G04 MADE WITH FRITZING*
G04 WWW.FRITZING.ORG*
G04 SINGLE SIDED*
G04 HOLES NOT PLATED*
G04 CONTOUR ON CENTER OF CONTOUR VECTOR*
%FSLAX26Y26*%
%MOIN*%
%ADD10C,0.070000*%
%ADD11C,0.133690*%
%ADD12C,0.138554*%
%ADD13C,0.118110*%
%ADD14R,0.085497X0.276407X0.065497X0.256407*%
%ADD15C,0.010000*%
%ADD16R,2.031540X0.845333X2.011540X0.825333*%
%ADD17R,0.082490X0.082490*%
%ADD18R,0.201240X0.293844*%
%ADD19R,2.755910X3.149610X2.739910X3.133610*%
%ADD20C,0.008000*%
%ADD21R,0.610025X0.462046X0.590025X0.442046*%
%ADD22R,1.043746X0.631250X1.024014X0.611518*%
%ADD23C,0.009866*%
%ADD24R,0.393666X0.492000X0.379778X0.478112*%
%ADD25C,0.006944*%
%ADD26C,0.005000*%
%ADD27C,0.006000*%
%ADD28C,0.004000*%
%ADD29R,0.001000X0.001000*%
%G04SILK1*%
%FSLAX26Y26*%
%MOIN*%
D10*
X401274Y2723846D03*
X401274Y2275441D03*
X2247800Y2723846D03*
X2247800Y2275441D03*
D11*
X623477Y1851040D03*
D12*
X215561Y1853660D03*
D13*
X1030670Y313540D03*
D15*
X239013Y2631712D02*
X314510Y2631712D01*
X314510Y2365305D01*
X239013Y2365305D01*
X239013Y2631712D01*
D02*
X315468Y2919301D02*
X2337008Y2919301D01*
X2337008Y2083968D01*
X315468Y2083968D01*
X315468Y2919301D01*
D02*
D17*
X832776Y2401542D03*
X734859Y2401542D03*
X636942Y2401542D03*
D18*
X433818Y2499927D03*
D20*
X4000Y3145610D02*
X2751910Y3145610D01*
X2751910Y4000D01*
X4000Y4000D01*
X4000Y3145610D01*
D02*
D15*
X125412Y1943950D02*
X725437Y1943950D01*
X725437Y1491904D01*
X125412Y1491904D01*
X125412Y1943950D01*
D02*
D23*
X115950Y822270D02*
X1149830Y822270D01*
X1149830Y200886D01*
X115950Y200886D01*
X115950Y822270D01*
D02*
D25*
X330795Y1413540D02*
X717517Y1413540D01*
X717517Y928484D01*
X330795Y928484D01*
X330795Y1413540D01*
D02*
D26*
X546805Y2511851D02*
X687196Y2547707D01*
D02*
X648535Y2461551D02*
X701652Y2518217D01*
D02*
X828427Y2463326D02*
X771761Y2516443D01*
D02*
X731863Y2462748D02*
X731863Y2515865D01*
D15*
D02*
X568947Y335050D02*
X568947Y405050D01*
D02*
X568947Y405050D02*
X548946Y385050D01*
D02*
X568947Y405050D02*
X588947Y385050D01*
D02*
X598948Y305050D02*
X668951Y305050D01*
D02*
X648950Y325050D02*
X668951Y305050D01*
D02*
X668951Y305050D02*
X648950Y285050D01*
D27*
D02*
X1773490Y1713110D02*
X1773490Y1090320D01*
D02*
X1564550Y1713110D02*
X1564550Y1090320D01*
D28*
D02*
X1746070Y1674740D02*
X1746070Y1614420D01*
D02*
X1746070Y1614420D02*
X1742770Y1614420D01*
D02*
X1742770Y1614420D02*
X1739480Y1616070D01*
D02*
X1739480Y1616070D02*
X1736730Y1614420D01*
D02*
X1736730Y1614420D02*
X1733990Y1614420D01*
D02*
X1733990Y1614420D02*
X1699440Y1600720D01*
D02*
X1699440Y1600720D02*
X1737840Y1561790D01*
D02*
X1737840Y1561790D02*
X1740580Y1559600D01*
D02*
X1740580Y1559600D02*
X1743870Y1557960D01*
D02*
X1743870Y1557960D02*
X1746070Y1557410D01*
D02*
X1746070Y1557410D02*
X1746070Y1522880D01*
D02*
X1746070Y1522880D02*
X1741130Y1530000D01*
D02*
X1741130Y1530000D02*
X1737300Y1535490D01*
D02*
X1737300Y1535490D02*
X1730710Y1543160D01*
D02*
X1730710Y1543160D02*
X1682450Y1594700D01*
D02*
X1682450Y1594700D02*
X1606780Y1563990D01*
D02*
X1606780Y1563990D02*
X1594720Y1555220D01*
D02*
X1594720Y1555220D02*
X1594720Y1553570D01*
D02*
X1594720Y1553570D02*
X1598000Y1550280D01*
D02*
X1598000Y1550280D02*
X1611170Y1545910D01*
D02*
X1611170Y1545910D02*
X1635840Y1539320D01*
D02*
X1635840Y1539320D02*
X1667100Y1531640D01*
D02*
X1667100Y1531640D02*
X1725230Y1517390D01*
D02*
X1725230Y1517390D02*
X1735090Y1515200D01*
D02*
X1735090Y1515200D02*
X1746070Y1515200D01*
D02*
X1746070Y1515200D02*
X1746070Y1390750D01*
D02*
X1746070Y1390750D02*
X1744410Y1384170D01*
D02*
X1744410Y1384170D02*
X1741680Y1379780D01*
D02*
X1741680Y1379780D02*
X1735650Y1376500D01*
D02*
X1735650Y1376500D02*
X1730160Y1374310D01*
D02*
X1730160Y1374310D02*
X1720840Y1374310D01*
D02*
X1720840Y1374310D02*
X1716450Y1375950D01*
D02*
X1716450Y1375950D02*
X1689040Y1382530D01*
D02*
X1689040Y1382530D02*
X1683550Y1384730D01*
D02*
X1683550Y1384730D02*
X1675330Y1392950D01*
D02*
X1675330Y1392950D02*
X1672580Y1399520D01*
D02*
X1672580Y1399520D02*
X1670390Y1408300D01*
D02*
X1670390Y1408300D02*
X1670390Y1419270D01*
D02*
X1670390Y1419270D02*
X1668200Y1403360D01*
D02*
X1668200Y1403360D02*
X1662710Y1391850D01*
D02*
X1662710Y1391850D02*
X1661610Y1391310D01*
D02*
X1661610Y1391310D02*
X1646820Y1391310D01*
D02*
X1646820Y1391310D02*
X1622670Y1397340D01*
D02*
X1622670Y1397340D02*
X1616660Y1401160D01*
D02*
X1616660Y1401160D02*
X1610070Y1402270D01*
D02*
X1610070Y1402270D02*
X1600740Y1410490D01*
D02*
X1600740Y1410490D02*
X1597460Y1417060D01*
D02*
X1597460Y1417060D02*
X1594170Y1427490D01*
D02*
X1594170Y1427490D02*
X1594170Y1617720D01*
D02*
X1594170Y1617720D02*
X1600200Y1614420D01*
D02*
X1600200Y1614420D02*
X1604050Y1614420D01*
D02*
X1604050Y1614420D02*
X1647360Y1631970D01*
D02*
X1647360Y1631970D02*
X1602950Y1677470D01*
D02*
X1602950Y1677470D02*
X1594170Y1682400D01*
D02*
X1594170Y1682400D02*
X1594170Y1714750D01*
D02*
X1594170Y1714750D02*
X1604050Y1701060D01*
D02*
X1604050Y1701060D02*
X1663810Y1637450D01*
D02*
X1663810Y1637450D02*
X1740040Y1668700D01*
D02*
X1740040Y1668700D02*
X1746070Y1674740D01*
D02*
X1727420Y1473530D02*
X1727420Y1423090D01*
D02*
X1727420Y1423090D02*
X1724680Y1418160D01*
D02*
X1724680Y1418160D02*
X1715910Y1417610D01*
D02*
X1715910Y1417610D02*
X1686840Y1425290D01*
D02*
X1686840Y1425290D02*
X1683010Y1426930D01*
D02*
X1683010Y1426930D02*
X1680810Y1430230D01*
D02*
X1680810Y1430230D02*
X1680810Y1485040D01*
D02*
X1680810Y1485040D02*
X1727420Y1473530D01*
D02*
X1661070Y1488880D02*
X1661070Y1438990D01*
D02*
X1661070Y1438990D02*
X1659430Y1434610D01*
D02*
X1659430Y1434610D02*
X1655590Y1431880D01*
D02*
X1655590Y1431880D02*
X1653930Y1431880D01*
D02*
X1653930Y1431880D02*
X1621590Y1440090D01*
D02*
X1621590Y1440090D02*
X1618300Y1442280D01*
D02*
X1618300Y1442280D02*
X1613910Y1446130D01*
D02*
X1613910Y1446130D02*
X1612810Y1448310D01*
D02*
X1612810Y1448310D02*
X1612810Y1501490D01*
D02*
X1612810Y1501490D02*
X1661070Y1488880D01*
D02*
X1656680Y1329350D02*
X1679160Y1325520D01*
D02*
X1679160Y1325520D02*
X1683550Y1323880D01*
D02*
X1683550Y1323880D02*
X1687400Y1321670D01*
D02*
X1687400Y1321670D02*
X1689040Y1318380D01*
D02*
X1689040Y1318380D02*
X1689040Y1279460D01*
D02*
X1689040Y1279460D02*
X1688480Y1277270D01*
D02*
X1688480Y1277270D02*
X1686840Y1275630D01*
D02*
X1686840Y1275630D02*
X1679720Y1275630D01*
D02*
X1679720Y1275630D02*
X1656140Y1281660D01*
D02*
X1656140Y1281660D02*
X1656140Y1328810D01*
D02*
X1656140Y1328810D02*
X1656680Y1329350D01*
D02*
X1594170Y1258630D02*
X1594170Y1367180D01*
D02*
X1594170Y1367180D02*
X1595270Y1371560D01*
D02*
X1595270Y1371560D02*
X1598560Y1375950D01*
D02*
X1598560Y1375950D02*
X1602390Y1378700D01*
D02*
X1602390Y1378700D02*
X1608420Y1380340D01*
D02*
X1608420Y1380340D02*
X1613910Y1380340D01*
D02*
X1613910Y1380340D02*
X1622670Y1379240D01*
D02*
X1622670Y1379240D02*
X1671490Y1368270D01*
D02*
X1671490Y1368270D02*
X1677520Y1366630D01*
D02*
X1677520Y1366630D02*
X1690680Y1360060D01*
D02*
X1690680Y1360060D02*
X1697800Y1355110D01*
D02*
X1697800Y1355110D02*
X1703290Y1346340D01*
D02*
X1703290Y1346340D02*
X1705490Y1339770D01*
D02*
X1705490Y1339770D02*
X1706030Y1336490D01*
D02*
X1706030Y1336490D02*
X1706030Y1250410D01*
D02*
X1706030Y1250410D02*
X1703830Y1244380D01*
D02*
X1703830Y1244380D02*
X1698360Y1237240D01*
D02*
X1698360Y1237240D02*
X1696160Y1235060D01*
D02*
X1696160Y1235060D02*
X1676970Y1235060D01*
D02*
X1676970Y1235060D02*
X1639140Y1244380D01*
D02*
X1639140Y1244380D02*
X1639140Y1334280D01*
D02*
X1639140Y1334280D02*
X1620490Y1338670D01*
D02*
X1620490Y1338670D02*
X1617200Y1339770D01*
D02*
X1617200Y1339770D02*
X1613350Y1339230D01*
D02*
X1613350Y1339230D02*
X1611710Y1337020D01*
D02*
X1611710Y1337020D02*
X1611710Y1258090D01*
D02*
X1611710Y1258090D02*
X1612810Y1250950D01*
D02*
X1612810Y1250950D02*
X1594170Y1258630D01*
D02*
X1656680Y1183520D02*
X1679160Y1179690D01*
D02*
X1679160Y1179690D02*
X1683550Y1178050D01*
D02*
X1683550Y1178050D02*
X1687400Y1175850D01*
D02*
X1687400Y1175850D02*
X1689040Y1172560D01*
D02*
X1689040Y1172560D02*
X1689040Y1133630D01*
D02*
X1689040Y1133630D02*
X1688480Y1131450D01*
D02*
X1688480Y1131450D02*
X1686840Y1129800D01*
D02*
X1686840Y1129800D02*
X1679720Y1129800D01*
D02*
X1679720Y1129800D02*
X1656140Y1135840D01*
D02*
X1656140Y1135840D02*
X1656140Y1182980D01*
D02*
X1656140Y1182980D02*
X1656680Y1183520D01*
D02*
X1594170Y1112810D02*
X1594170Y1221350D01*
D02*
X1594170Y1221350D02*
X1595270Y1225740D01*
D02*
X1595270Y1225740D02*
X1598560Y1230130D01*
D02*
X1598560Y1230130D02*
X1602390Y1232870D01*
D02*
X1602390Y1232870D02*
X1608420Y1234520D01*
D02*
X1608420Y1234520D02*
X1613910Y1234520D01*
D02*
X1613910Y1234520D02*
X1622670Y1233410D01*
D02*
X1622670Y1233410D02*
X1671490Y1222450D01*
D02*
X1671490Y1222450D02*
X1677520Y1220810D01*
D02*
X1677520Y1220810D02*
X1690680Y1214230D01*
D02*
X1690680Y1214230D02*
X1697800Y1209300D01*
D02*
X1697800Y1209300D02*
X1703290Y1200520D01*
D02*
X1703290Y1200520D02*
X1705490Y1193950D01*
D02*
X1705490Y1193950D02*
X1706030Y1190660D01*
D02*
X1706030Y1190660D02*
X1706030Y1104570D01*
D02*
X1706030Y1104570D02*
X1703830Y1098560D01*
D02*
X1703830Y1098560D02*
X1698360Y1091420D01*
D02*
X1698360Y1091420D02*
X1696160Y1089230D01*
D02*
X1696160Y1089230D02*
X1676970Y1089230D01*
D02*
X1676970Y1089230D02*
X1639140Y1098560D01*
D02*
X1639140Y1098560D02*
X1639140Y1188460D01*
D02*
X1639140Y1188460D02*
X1620490Y1192840D01*
D02*
X1620490Y1192840D02*
X1617200Y1193950D01*
D02*
X1617200Y1193950D02*
X1613350Y1193390D01*
D02*
X1613350Y1193390D02*
X1611710Y1191200D01*
D02*
X1611710Y1191200D02*
X1611710Y1112250D01*
D02*
X1611710Y1112250D02*
X1612810Y1105130D01*
D02*
X1612810Y1105130D02*
X1594170Y1112810D01*
D02*
X1526170Y1371560D02*
X1526170Y1366630D01*
D02*
X1526170Y1366630D02*
X1529470Y1362240D01*
D02*
X1529470Y1362240D02*
X1533850Y1357850D01*
D02*
X1533850Y1357850D02*
X1531110Y1352920D01*
D02*
X1531110Y1352920D02*
X1531110Y1333180D01*
D02*
X1531110Y1333180D02*
X1529470Y1317290D01*
D02*
X1529470Y1317290D02*
X1522890Y1306320D01*
D02*
X1522890Y1306320D02*
X1517940Y1303590D01*
D02*
X1517940Y1303590D02*
X1515760Y1303590D01*
D02*
X1515760Y1303590D02*
X1510810Y1305770D01*
D02*
X1510810Y1305770D02*
X1506980Y1309060D01*
D02*
X1506980Y1309060D02*
X1502590Y1315640D01*
D02*
X1502590Y1315640D02*
X1490530Y1339770D01*
D02*
X1490530Y1339770D02*
X1485600Y1352380D01*
D02*
X1485600Y1352380D02*
X1483390Y1362240D01*
D02*
X1483390Y1362240D02*
X1482850Y1365530D01*
D02*
X1482850Y1365530D02*
X1482850Y1369380D01*
D02*
X1482850Y1369380D02*
X1477920Y1371020D01*
D02*
X1477920Y1371020D02*
X1468040Y1374310D01*
D02*
X1468040Y1374310D02*
X1459270Y1377050D01*
D02*
X1459270Y1377050D02*
X1455430Y1379240D01*
D02*
X1455430Y1379240D02*
X1453250Y1380340D01*
D02*
X1453250Y1380340D02*
X1452150Y1382530D01*
D02*
X1452150Y1382530D02*
X1453790Y1385270D01*
D02*
X1453790Y1385270D02*
X1457080Y1387460D01*
D02*
X1457080Y1387460D02*
X1460910Y1387460D01*
D02*
X1460910Y1387460D02*
X1465300Y1386360D01*
D02*
X1465300Y1386360D02*
X1475720Y1381430D01*
D02*
X1475720Y1381430D02*
X1483390Y1378140D01*
D02*
X1483390Y1378140D02*
X1490530Y1377050D01*
D02*
X1490530Y1377050D02*
X1497100Y1375410D01*
D02*
X1497100Y1375410D02*
X1505880Y1372660D01*
D02*
X1505880Y1372660D02*
X1512470Y1369920D01*
D02*
X1512470Y1369920D02*
X1516860Y1367180D01*
D02*
X1516860Y1367180D02*
X1516860Y1371560D01*
D02*
X1516860Y1371560D02*
X1526170Y1371560D01*
D02*
X1520150Y1352380D02*
X1520150Y1324410D01*
D02*
X1520150Y1324410D02*
X1517400Y1317840D01*
D02*
X1517400Y1317840D02*
X1516300Y1316200D01*
D02*
X1516300Y1316200D02*
X1514650Y1316740D01*
D02*
X1514650Y1316740D02*
X1512470Y1319490D01*
D02*
X1512470Y1319490D02*
X1508080Y1328250D01*
D02*
X1508080Y1328250D02*
X1503150Y1335380D01*
D02*
X1503150Y1335380D02*
X1500400Y1345250D01*
D02*
X1500400Y1345250D02*
X1497660Y1352380D01*
D02*
X1497660Y1352380D02*
X1497100Y1356770D01*
D02*
X1497100Y1356770D02*
X1497100Y1363340D01*
D02*
X1497100Y1363340D02*
X1517400Y1353480D01*
D02*
X1517400Y1353480D02*
X1520150Y1352380D01*
D02*
X1517400Y1278370D02*
X1519590Y1280020D01*
D02*
X1519590Y1280020D02*
X1521230Y1282750D01*
D02*
X1521230Y1282750D02*
X1523430Y1283850D01*
D02*
X1523430Y1283850D02*
X1526720Y1283290D01*
D02*
X1526720Y1283290D02*
X1530010Y1280020D01*
D02*
X1530010Y1280020D02*
X1532210Y1273990D01*
D02*
X1532210Y1273990D02*
X1534950Y1266850D01*
D02*
X1534950Y1266850D02*
X1534950Y1235060D01*
D02*
X1534950Y1235060D02*
X1533290Y1228480D01*
D02*
X1533290Y1228480D02*
X1530560Y1220810D01*
D02*
X1530560Y1220810D02*
X1527820Y1216410D01*
D02*
X1527820Y1216410D02*
X1523430Y1212570D01*
D02*
X1523430Y1212570D02*
X1520680Y1211490D01*
D02*
X1520680Y1211490D02*
X1515760Y1214230D01*
D02*
X1515760Y1214230D02*
X1511370Y1214230D01*
D02*
X1511370Y1214230D02*
X1506980Y1218620D01*
D02*
X1506980Y1218620D02*
X1503150Y1224640D01*
D02*
X1503150Y1224640D02*
X1497660Y1236700D01*
D02*
X1497660Y1236700D02*
X1490530Y1248210D01*
D02*
X1490530Y1248210D02*
X1487240Y1253700D01*
D02*
X1487240Y1253700D02*
X1479020Y1245480D01*
D02*
X1479020Y1245480D02*
X1471890Y1235060D01*
D02*
X1471890Y1235060D02*
X1465850Y1227380D01*
D02*
X1465850Y1227380D02*
X1460370Y1222990D01*
D02*
X1460370Y1222990D02*
X1454880Y1220810D01*
D02*
X1454880Y1220810D02*
X1451590Y1220250D01*
D02*
X1451590Y1220250D02*
X1448310Y1221890D01*
D02*
X1448310Y1221890D02*
X1447760Y1223550D01*
D02*
X1447760Y1223550D02*
X1451050Y1227920D01*
D02*
X1451050Y1227920D02*
X1468040Y1249310D01*
D02*
X1468040Y1249310D02*
X1481750Y1269590D01*
D02*
X1481750Y1269590D02*
X1481750Y1273430D01*
D02*
X1481750Y1273430D02*
X1477920Y1274520D01*
D02*
X1477920Y1274520D02*
X1466960Y1278370D01*
D02*
X1466960Y1278370D02*
X1457080Y1281660D01*
D02*
X1457080Y1281660D02*
X1451590Y1283850D01*
D02*
X1451590Y1283850D02*
X1448310Y1283850D01*
D02*
X1448310Y1283850D02*
X1453790Y1289880D01*
D02*
X1453790Y1289880D02*
X1462010Y1290420D01*
D02*
X1462010Y1290420D02*
X1467500Y1289340D01*
D02*
X1467500Y1289340D02*
X1485040Y1284390D01*
D02*
X1485040Y1284390D02*
X1494920Y1281660D01*
D02*
X1494920Y1281660D02*
X1508620Y1275630D01*
D02*
X1508620Y1275630D02*
X1515760Y1271780D01*
D02*
X1515760Y1271780D02*
X1519590Y1270140D01*
D02*
X1519590Y1270140D02*
X1520150Y1273990D01*
D02*
X1520150Y1273990D02*
X1516860Y1278370D01*
D02*
X1516860Y1278370D02*
X1517400Y1278370D01*
D02*
X1521790Y1254800D02*
X1521790Y1235060D01*
D02*
X1521790Y1235060D02*
X1520680Y1228480D01*
D02*
X1520680Y1228480D02*
X1517400Y1226840D01*
D02*
X1517400Y1226840D02*
X1516300Y1230660D01*
D02*
X1516300Y1230660D02*
X1510810Y1236160D01*
D02*
X1510810Y1236160D02*
X1506420Y1243820D01*
D02*
X1506420Y1243820D02*
X1502590Y1250950D01*
D02*
X1502590Y1250950D02*
X1500950Y1259170D01*
D02*
X1500950Y1259170D02*
X1497660Y1265750D01*
D02*
X1497660Y1265750D02*
X1516300Y1255340D01*
D02*
X1516300Y1255340D02*
X1521790Y1254800D01*
D02*
X1516300Y1152820D02*
X1516300Y1139120D01*
D02*
X1516300Y1139120D02*
X1514110Y1132530D01*
D02*
X1514110Y1132530D02*
X1501510Y1120480D01*
D02*
X1501510Y1120480D02*
X1488340Y1120480D01*
D02*
X1488340Y1120480D02*
X1480650Y1131450D01*
D02*
X1480650Y1131450D02*
X1474080Y1142950D01*
D02*
X1474080Y1142950D02*
X1469690Y1156660D01*
D02*
X1469690Y1156660D02*
X1464750Y1169810D01*
D02*
X1464750Y1169810D02*
X1464210Y1182980D01*
D02*
X1464210Y1182980D02*
X1466960Y1187910D01*
D02*
X1466960Y1187910D02*
X1472430Y1187370D01*
D02*
X1472430Y1187370D02*
X1488340Y1182420D01*
D02*
X1488340Y1182420D02*
X1500950Y1173100D01*
D02*
X1500950Y1173100D02*
X1511910Y1158850D01*
D02*
X1511910Y1158850D02*
X1516300Y1152820D01*
D02*
X1534950Y1146800D02*
X1532750Y1141310D01*
D02*
X1532750Y1141310D02*
X1528360Y1137480D01*
D02*
X1528360Y1137480D02*
X1525620Y1136920D01*
D02*
X1525620Y1136920D02*
X1523430Y1129240D01*
D02*
X1523430Y1129240D02*
X1515760Y1118280D01*
D02*
X1515760Y1118280D02*
X1508080Y1108960D01*
D02*
X1508080Y1108960D02*
X1497660Y1106230D01*
D02*
X1497660Y1106230D02*
X1490530Y1107310D01*
D02*
X1490530Y1107310D02*
X1479570Y1113350D01*
D02*
X1479570Y1113350D02*
X1471330Y1123770D01*
D02*
X1471330Y1123770D02*
X1463660Y1131450D01*
D02*
X1463660Y1131450D02*
X1460370Y1145700D01*
D02*
X1460370Y1145700D02*
X1453790Y1156120D01*
D02*
X1453790Y1156120D02*
X1451590Y1172020D01*
D02*
X1451590Y1172020D02*
X1451590Y1184620D01*
D02*
X1451590Y1184620D02*
X1457640Y1193950D01*
D02*
X1457640Y1193950D02*
X1468040Y1199420D01*
D02*
X1468040Y1199420D02*
X1479020Y1198880D01*
D02*
X1479020Y1198880D02*
X1492170Y1196130D01*
D02*
X1492170Y1196130D02*
X1496560Y1194490D01*
D02*
X1496560Y1194490D02*
X1511370Y1179690D01*
D02*
X1511370Y1179690D02*
X1528920Y1158850D01*
D02*
X1528920Y1158850D02*
X1534950Y1147340D01*
D29*
X205500Y3149110D02*
X224500Y3149110D01*
X205500Y3148110D02*
X224500Y3148110D01*
X205500Y3147110D02*
X225500Y3147110D01*
X205500Y3146110D02*
X225500Y3146110D01*
X206500Y3145110D02*
X225500Y3145110D01*
X207500Y3144110D02*
X225500Y3144110D01*
X219500Y3143110D02*
X225500Y3143110D01*
X219500Y3142110D02*
X225500Y3142110D01*
X219500Y3141110D02*
X225500Y3141110D01*
X219500Y3140110D02*
X225500Y3140110D01*
X219500Y3139110D02*
X225500Y3139110D01*
X219500Y3138110D02*
X225500Y3138110D01*
X218500Y3137110D02*
X225500Y3137110D01*
X171500Y3136110D02*
X225500Y3136110D01*
X171500Y3135110D02*
X225500Y3135110D01*
X171500Y3134110D02*
X225500Y3134110D01*
X171500Y3133110D02*
X225500Y3133110D01*
X171500Y3132110D02*
X225500Y3132110D01*
X171500Y3131110D02*
X225500Y3131110D01*
X171500Y3130110D02*
X225500Y3130110D01*
X171500Y3129110D02*
X177500Y3129110D01*
X219500Y3129110D02*
X225500Y3129110D01*
X171500Y3128110D02*
X177500Y3128110D01*
X219500Y3128110D02*
X225500Y3128110D01*
X171500Y3127110D02*
X177500Y3127110D01*
X219500Y3127110D02*
X225500Y3127110D01*
X171500Y3126110D02*
X177500Y3126110D01*
X219500Y3126110D02*
X225500Y3126110D01*
X171500Y3125110D02*
X177500Y3125110D01*
X219500Y3125110D02*
X225500Y3125110D01*
X171500Y3124110D02*
X177500Y3124110D01*
X219500Y3124110D02*
X225500Y3124110D01*
X171500Y3123110D02*
X177500Y3123110D01*
X219500Y3123110D02*
X225500Y3123110D01*
X171500Y3122110D02*
X177500Y3122110D01*
X219500Y3122110D02*
X225500Y3122110D01*
X171500Y3121110D02*
X177500Y3121110D01*
X219500Y3121110D02*
X225500Y3121110D01*
X171500Y3120110D02*
X177500Y3120110D01*
X219500Y3120110D02*
X225500Y3120110D01*
X172500Y3119110D02*
X177500Y3119110D01*
X219500Y3119110D02*
X224500Y3119110D01*
X172500Y3118110D02*
X177500Y3118110D01*
X219500Y3118110D02*
X224500Y3118110D01*
X173500Y3117110D02*
X176500Y3117110D01*
X220500Y3117110D02*
X223500Y3117110D01*
X173500Y3099110D02*
X223500Y3099110D01*
X172500Y3098110D02*
X224500Y3098110D01*
X172500Y3097110D02*
X224500Y3097110D01*
X172500Y3096110D02*
X225500Y3096110D01*
X172500Y3095110D02*
X224500Y3095110D01*
X172500Y3094110D02*
X224500Y3094110D01*
X173500Y3093110D02*
X223500Y3093110D01*
X191500Y3092110D02*
X199500Y3092110D01*
X212500Y3092110D02*
X220500Y3092110D01*
X190500Y3091110D02*
X198500Y3091110D01*
X213500Y3091110D02*
X221500Y3091110D01*
X189500Y3090110D02*
X197500Y3090110D01*
X214500Y3090110D02*
X222500Y3090110D01*
X188500Y3089110D02*
X196500Y3089110D01*
X214500Y3089110D02*
X223500Y3089110D01*
X188500Y3088110D02*
X195500Y3088110D01*
X215500Y3088110D02*
X223500Y3088110D01*
X187500Y3087110D02*
X195500Y3087110D01*
X216500Y3087110D02*
X224500Y3087110D01*
X187500Y3086110D02*
X194500Y3086110D01*
X217500Y3086110D02*
X224500Y3086110D01*
X186500Y3085110D02*
X193500Y3085110D01*
X218500Y3085110D02*
X224500Y3085110D01*
X186500Y3084110D02*
X192500Y3084110D01*
X218500Y3084110D02*
X224500Y3084110D01*
X186500Y3083110D02*
X192500Y3083110D01*
X219500Y3083110D02*
X225500Y3083110D01*
X186500Y3082110D02*
X192500Y3082110D01*
X219500Y3082110D02*
X225500Y3082110D01*
X186500Y3081110D02*
X192500Y3081110D01*
X219500Y3081110D02*
X225500Y3081110D01*
X186500Y3080110D02*
X192500Y3080110D01*
X219500Y3080110D02*
X225500Y3080110D01*
X186500Y3079110D02*
X192500Y3079110D01*
X219500Y3079110D02*
X225500Y3079110D01*
X186500Y3078110D02*
X192500Y3078110D01*
X219500Y3078110D02*
X225500Y3078110D01*
X186500Y3077110D02*
X192500Y3077110D01*
X218500Y3077110D02*
X225500Y3077110D01*
X186500Y3076110D02*
X193500Y3076110D01*
X218500Y3076110D02*
X224500Y3076110D01*
X187500Y3075110D02*
X193500Y3075110D01*
X217500Y3075110D02*
X224500Y3075110D01*
X187500Y3074110D02*
X194500Y3074110D01*
X217500Y3074110D02*
X224500Y3074110D01*
X187500Y3073110D02*
X195500Y3073110D01*
X215500Y3073110D02*
X223500Y3073110D01*
X188500Y3072110D02*
X197500Y3072110D01*
X213500Y3072110D02*
X223500Y3072110D01*
X189500Y3071110D02*
X222500Y3071110D01*
X190500Y3070110D02*
X221500Y3070110D01*
X190500Y3069110D02*
X220500Y3069110D01*
X191500Y3068110D02*
X219500Y3068110D01*
X192500Y3067110D02*
X218500Y3067110D01*
X194500Y3066110D02*
X217500Y3066110D01*
X198500Y3065110D02*
X214500Y3065110D01*
X198500Y3048110D02*
X213500Y3048110D01*
X195500Y3047110D02*
X216500Y3047110D01*
X193500Y3046110D02*
X218500Y3046110D01*
X191500Y3045110D02*
X219500Y3045110D01*
X190500Y3044110D02*
X220500Y3044110D01*
X189500Y3043110D02*
X221500Y3043110D01*
X189500Y3042110D02*
X222500Y3042110D01*
X188500Y3041110D02*
X197500Y3041110D01*
X213500Y3041110D02*
X223500Y3041110D01*
X188500Y3040110D02*
X195500Y3040110D01*
X215500Y3040110D02*
X223500Y3040110D01*
X187500Y3039110D02*
X194500Y3039110D01*
X217500Y3039110D02*
X224500Y3039110D01*
X187500Y3038110D02*
X193500Y3038110D01*
X217500Y3038110D02*
X224500Y3038110D01*
X186500Y3037110D02*
X193500Y3037110D01*
X218500Y3037110D02*
X224500Y3037110D01*
X186500Y3036110D02*
X192500Y3036110D01*
X218500Y3036110D02*
X225500Y3036110D01*
X186500Y3035110D02*
X192500Y3035110D01*
X219500Y3035110D02*
X225500Y3035110D01*
X186500Y3034110D02*
X192500Y3034110D01*
X219500Y3034110D02*
X225500Y3034110D01*
X186500Y3033110D02*
X192500Y3033110D01*
X219500Y3033110D02*
X225500Y3033110D01*
X186500Y3032110D02*
X192500Y3032110D01*
X219500Y3032110D02*
X225500Y3032110D01*
X186500Y3031110D02*
X192500Y3031110D01*
X219500Y3031110D02*
X225500Y3031110D01*
X186500Y3030110D02*
X192500Y3030110D01*
X219500Y3030110D02*
X225500Y3030110D01*
X186500Y3029110D02*
X192500Y3029110D01*
X219500Y3029110D02*
X225500Y3029110D01*
X186500Y3028110D02*
X192500Y3028110D01*
X219500Y3028110D02*
X225500Y3028110D01*
X186500Y3027110D02*
X192500Y3027110D01*
X219500Y3027110D02*
X225500Y3027110D01*
X186500Y3026110D02*
X192500Y3026110D01*
X218500Y3026110D02*
X225500Y3026110D01*
X186500Y3025110D02*
X193500Y3025110D01*
X218500Y3025110D02*
X224500Y3025110D01*
X187500Y3024110D02*
X193500Y3024110D01*
X218500Y3024110D02*
X224500Y3024110D01*
X187500Y3023110D02*
X194500Y3023110D01*
X217500Y3023110D02*
X224500Y3023110D01*
X187500Y3022110D02*
X195500Y3022110D01*
X216500Y3022110D02*
X223500Y3022110D01*
X188500Y3021110D02*
X196500Y3021110D01*
X214500Y3021110D02*
X223500Y3021110D01*
X188500Y3020110D02*
X222500Y3020110D01*
X189500Y3019110D02*
X221500Y3019110D01*
X190500Y3018110D02*
X221500Y3018110D01*
X191500Y3017110D02*
X220500Y3017110D01*
X192500Y3016110D02*
X219500Y3016110D01*
X194500Y3015110D02*
X217500Y3015110D01*
X196500Y3014110D02*
X215500Y3014110D01*
X172500Y2999110D02*
X223500Y2999110D01*
X171500Y2998110D02*
X224500Y2998110D01*
X171500Y2997110D02*
X224500Y2997110D01*
X171500Y2996110D02*
X225500Y2996110D01*
X171500Y2995110D02*
X224500Y2995110D01*
X171500Y2994110D02*
X224500Y2994110D01*
X171500Y2993110D02*
X222500Y2993110D01*
X172500Y2992110D02*
X184500Y2992110D01*
X172500Y2991110D02*
X186500Y2991110D01*
X173500Y2990110D02*
X188500Y2990110D01*
X175500Y2989110D02*
X190500Y2989110D01*
X177500Y2988110D02*
X192500Y2988110D01*
X179500Y2987110D02*
X194500Y2987110D01*
X181500Y2986110D02*
X196500Y2986110D01*
X183500Y2985110D02*
X198500Y2985110D01*
X185500Y2984110D02*
X200500Y2984110D01*
X187500Y2983110D02*
X202500Y2983110D01*
X189500Y2982110D02*
X204500Y2982110D01*
X191500Y2981110D02*
X205500Y2981110D01*
X193500Y2980110D02*
X206500Y2980110D01*
X194500Y2979110D02*
X206500Y2979110D01*
X192500Y2978110D02*
X205500Y2978110D01*
X190500Y2977110D02*
X205500Y2977110D01*
X188500Y2976110D02*
X203500Y2976110D01*
X186500Y2975110D02*
X201500Y2975110D01*
X183500Y2974110D02*
X199500Y2974110D01*
X181500Y2973110D02*
X197500Y2973110D01*
X179500Y2972110D02*
X195500Y2972110D01*
X177500Y2971110D02*
X192500Y2971110D01*
X175500Y2970110D02*
X190500Y2970110D01*
X173500Y2969110D02*
X188500Y2969110D01*
X172500Y2968110D02*
X186500Y2968110D01*
X172500Y2967110D02*
X184500Y2967110D01*
X171500Y2966110D02*
X222500Y2966110D01*
X171500Y2965110D02*
X224500Y2965110D01*
X171500Y2964110D02*
X224500Y2964110D01*
X171500Y2963110D02*
X225500Y2963110D01*
X171500Y2962110D02*
X224500Y2962110D01*
X171500Y2961110D02*
X224500Y2961110D01*
X172500Y2960110D02*
X223500Y2960110D01*
X713500Y2773110D02*
X719500Y2773110D01*
X712500Y2772110D02*
X720500Y2772110D01*
X712500Y2771110D02*
X721500Y2771110D01*
X712500Y2770110D02*
X720500Y2770110D01*
X712500Y2769110D02*
X720500Y2769110D01*
X712500Y2768110D02*
X717500Y2768110D01*
X712500Y2767110D02*
X716500Y2767110D01*
X712500Y2766110D02*
X716500Y2766110D01*
X712500Y2765110D02*
X716500Y2765110D01*
X712500Y2764110D02*
X716500Y2764110D01*
X712500Y2763110D02*
X749500Y2763110D01*
X712500Y2762110D02*
X749500Y2762110D01*
X712500Y2761110D02*
X750500Y2761110D01*
X712500Y2760110D02*
X749500Y2760110D01*
X712500Y2759110D02*
X749500Y2759110D01*
X712500Y2758110D02*
X716500Y2758110D01*
X712500Y2757110D02*
X716500Y2757110D01*
X712500Y2756110D02*
X716500Y2756110D01*
X712500Y2755110D02*
X716500Y2755110D01*
X712500Y2754110D02*
X717500Y2754110D01*
X712500Y2753110D02*
X720500Y2753110D01*
X712500Y2752110D02*
X720500Y2752110D01*
X712500Y2751110D02*
X721500Y2751110D01*
X712500Y2750110D02*
X720500Y2750110D01*
X713500Y2749110D02*
X719500Y2749110D01*
X713500Y2737110D02*
X746500Y2737110D01*
X713500Y2736110D02*
X747500Y2736110D01*
X713500Y2735110D02*
X748500Y2735110D01*
X713500Y2734110D02*
X749500Y2734110D01*
X743500Y2733110D02*
X749500Y2733110D01*
X745500Y2732110D02*
X750500Y2732110D01*
X746500Y2731110D02*
X750500Y2731110D01*
X746500Y2730110D02*
X750500Y2730110D01*
X746500Y2729110D02*
X750500Y2729110D01*
X746500Y2728110D02*
X750500Y2728110D01*
X746500Y2727110D02*
X750500Y2727110D01*
X746500Y2726110D02*
X750500Y2726110D01*
X746500Y2725110D02*
X750500Y2725110D01*
X746500Y2724110D02*
X750500Y2724110D01*
X746500Y2723110D02*
X750500Y2723110D01*
X746500Y2722110D02*
X750500Y2722110D01*
X746500Y2721110D02*
X750500Y2721110D01*
X745500Y2720110D02*
X750500Y2720110D01*
X745500Y2719110D02*
X749500Y2719110D01*
X714500Y2718110D02*
X749500Y2718110D01*
X713500Y2717110D02*
X748500Y2717110D01*
X713500Y2716110D02*
X748500Y2716110D01*
X713500Y2715110D02*
X747500Y2715110D01*
X714500Y2714110D02*
X745500Y2714110D01*
X728500Y2702110D02*
X734500Y2702110D01*
X726500Y2701110D02*
X737500Y2701110D01*
X724500Y2700110D02*
X739500Y2700110D01*
X722500Y2699110D02*
X741500Y2699110D01*
X720500Y2698110D02*
X743500Y2698110D01*
X718500Y2697110D02*
X728500Y2697110D01*
X735500Y2697110D02*
X745500Y2697110D01*
X716500Y2696110D02*
X726500Y2696110D01*
X737500Y2696110D02*
X746500Y2696110D01*
X714500Y2695110D02*
X724500Y2695110D01*
X739500Y2695110D02*
X748500Y2695110D01*
X714500Y2694110D02*
X722500Y2694110D01*
X741500Y2694110D02*
X749500Y2694110D01*
X713500Y2693110D02*
X720500Y2693110D01*
X743500Y2693110D02*
X749500Y2693110D01*
X713500Y2692110D02*
X718500Y2692110D01*
X745500Y2692110D02*
X749500Y2692110D01*
X713500Y2691110D02*
X717500Y2691110D01*
X746500Y2691110D02*
X750500Y2691110D01*
X713500Y2690110D02*
X717500Y2690110D01*
X746500Y2690110D02*
X750500Y2690110D01*
X713500Y2689110D02*
X718500Y2689110D01*
X745500Y2689110D02*
X749500Y2689110D01*
X713500Y2688110D02*
X720500Y2688110D01*
X743500Y2688110D02*
X749500Y2688110D01*
X714500Y2687110D02*
X722500Y2687110D01*
X741500Y2687110D02*
X749500Y2687110D01*
X714500Y2686110D02*
X724500Y2686110D01*
X739500Y2686110D02*
X748500Y2686110D01*
X716500Y2685110D02*
X726500Y2685110D01*
X737500Y2685110D02*
X747500Y2685110D01*
X717500Y2684110D02*
X728500Y2684110D01*
X735500Y2684110D02*
X745500Y2684110D01*
X719500Y2683110D02*
X743500Y2683110D01*
X721500Y2682110D02*
X741500Y2682110D01*
X723500Y2681110D02*
X739500Y2681110D01*
X725500Y2680110D02*
X737500Y2680110D01*
X728500Y2679110D02*
X734500Y2679110D01*
X717500Y2667110D02*
X730500Y2667110D01*
X716500Y2666110D02*
X732500Y2666110D01*
X714500Y2665110D02*
X733500Y2665110D01*
X714500Y2664110D02*
X734500Y2664110D01*
X375500Y2663110D02*
X385500Y2663110D01*
X713500Y2663110D02*
X734500Y2663110D01*
X367500Y2662110D02*
X393500Y2662110D01*
X713500Y2662110D02*
X718500Y2662110D01*
X730500Y2662110D02*
X735500Y2662110D01*
X363500Y2661110D02*
X398500Y2661110D01*
X713500Y2661110D02*
X717500Y2661110D01*
X731500Y2661110D02*
X735500Y2661110D01*
X359500Y2660110D02*
X401500Y2660110D01*
X712500Y2660110D02*
X716500Y2660110D01*
X731500Y2660110D02*
X735500Y2660110D01*
X357500Y2659110D02*
X404500Y2659110D01*
X712500Y2659110D02*
X716500Y2659110D01*
X731500Y2659110D02*
X735500Y2659110D01*
X354500Y2658110D02*
X406500Y2658110D01*
X712500Y2658110D02*
X716500Y2658110D01*
X731500Y2658110D02*
X735500Y2658110D01*
X352500Y2657110D02*
X408500Y2657110D01*
X712500Y2657110D02*
X716500Y2657110D01*
X731500Y2657110D02*
X735500Y2657110D01*
X350500Y2656110D02*
X410500Y2656110D01*
X712500Y2656110D02*
X716500Y2656110D01*
X731500Y2656110D02*
X735500Y2656110D01*
X349500Y2655110D02*
X412500Y2655110D01*
X712500Y2655110D02*
X716500Y2655110D01*
X731500Y2655110D02*
X735500Y2655110D01*
X347500Y2654110D02*
X414500Y2654110D01*
X712500Y2654110D02*
X716500Y2654110D01*
X731500Y2654110D02*
X735500Y2654110D01*
X346500Y2653110D02*
X415500Y2653110D01*
X712500Y2653110D02*
X716500Y2653110D01*
X731500Y2653110D02*
X735500Y2653110D01*
X344500Y2652110D02*
X416500Y2652110D01*
X712500Y2652110D02*
X716500Y2652110D01*
X731500Y2652110D02*
X735500Y2652110D01*
X343500Y2651110D02*
X417500Y2651110D01*
X712500Y2651110D02*
X716500Y2651110D01*
X731500Y2651110D02*
X735500Y2651110D01*
X342500Y2650110D02*
X418500Y2650110D01*
X712500Y2650110D02*
X716500Y2650110D01*
X731500Y2650110D02*
X735500Y2650110D01*
X341500Y2649110D02*
X419500Y2649110D01*
X712500Y2649110D02*
X716500Y2649110D01*
X731500Y2649110D02*
X735500Y2649110D01*
X341500Y2648110D02*
X420500Y2648110D01*
X712500Y2648110D02*
X717500Y2648110D01*
X731500Y2648110D02*
X736500Y2648110D01*
X340500Y2647110D02*
X421500Y2647110D01*
X712500Y2647110D02*
X749500Y2647110D01*
X339500Y2646110D02*
X421500Y2646110D01*
X712500Y2646110D02*
X750500Y2646110D01*
X339500Y2645110D02*
X422500Y2645110D01*
X712500Y2645110D02*
X750500Y2645110D01*
X338500Y2644110D02*
X422500Y2644110D01*
X712500Y2644110D02*
X749500Y2644110D01*
X338500Y2643110D02*
X423500Y2643110D01*
X338500Y2642110D02*
X423500Y2642110D01*
X337500Y2641110D02*
X423500Y2641110D01*
X337500Y2640110D02*
X423500Y2640110D01*
X337500Y2639110D02*
X423500Y2639110D01*
X509500Y2639110D02*
X518500Y2639110D01*
X337500Y2638110D02*
X423500Y2638110D01*
X505500Y2638110D02*
X522500Y2638110D01*
X337500Y2637110D02*
X423500Y2637110D01*
X503500Y2637110D02*
X525500Y2637110D01*
X337500Y2636110D02*
X423500Y2636110D01*
X500500Y2636110D02*
X527500Y2636110D01*
X337500Y2635110D02*
X423500Y2635110D01*
X499500Y2635110D02*
X529500Y2635110D01*
X338500Y2634110D02*
X423500Y2634110D01*
X497500Y2634110D02*
X530500Y2634110D01*
X338500Y2633110D02*
X423500Y2633110D01*
X496500Y2633110D02*
X532500Y2633110D01*
X338500Y2632110D02*
X422500Y2632110D01*
X495500Y2632110D02*
X533500Y2632110D01*
X714500Y2632110D02*
X715500Y2632110D01*
X748500Y2632110D02*
X748500Y2632110D01*
X339500Y2631110D02*
X422500Y2631110D01*
X493500Y2631110D02*
X534500Y2631110D01*
X713500Y2631110D02*
X716500Y2631110D01*
X746500Y2631110D02*
X749500Y2631110D01*
X339500Y2630110D02*
X421500Y2630110D01*
X492500Y2630110D02*
X535500Y2630110D01*
X713500Y2630110D02*
X716500Y2630110D01*
X746500Y2630110D02*
X750500Y2630110D01*
X340500Y2629110D02*
X420500Y2629110D01*
X491500Y2629110D02*
X536500Y2629110D01*
X712500Y2629110D02*
X716500Y2629110D01*
X746500Y2629110D02*
X750500Y2629110D01*
X341500Y2628110D02*
X420500Y2628110D01*
X490500Y2628110D02*
X537500Y2628110D01*
X712500Y2628110D02*
X716500Y2628110D01*
X746500Y2628110D02*
X750500Y2628110D01*
X342500Y2627110D02*
X419500Y2627110D01*
X490500Y2627110D02*
X538500Y2627110D01*
X712500Y2627110D02*
X716500Y2627110D01*
X746500Y2627110D02*
X750500Y2627110D01*
X342500Y2626110D02*
X418500Y2626110D01*
X489500Y2626110D02*
X539500Y2626110D01*
X712500Y2626110D02*
X716500Y2626110D01*
X746500Y2626110D02*
X750500Y2626110D01*
X344500Y2625110D02*
X417500Y2625110D01*
X488500Y2625110D02*
X539500Y2625110D01*
X712500Y2625110D02*
X716500Y2625110D01*
X746500Y2625110D02*
X750500Y2625110D01*
X345500Y2624110D02*
X416500Y2624110D01*
X487500Y2624110D02*
X540500Y2624110D01*
X712500Y2624110D02*
X716500Y2624110D01*
X746500Y2624110D02*
X750500Y2624110D01*
X346500Y2623110D02*
X415500Y2623110D01*
X487500Y2623110D02*
X541500Y2623110D01*
X712500Y2623110D02*
X716500Y2623110D01*
X746500Y2623110D02*
X750500Y2623110D01*
X347500Y2622110D02*
X413500Y2622110D01*
X486500Y2622110D02*
X541500Y2622110D01*
X712500Y2622110D02*
X716500Y2622110D01*
X730500Y2622110D02*
X732500Y2622110D01*
X746500Y2622110D02*
X750500Y2622110D01*
X349500Y2621110D02*
X412500Y2621110D01*
X485500Y2621110D02*
X542500Y2621110D01*
X712500Y2621110D02*
X716500Y2621110D01*
X729500Y2621110D02*
X733500Y2621110D01*
X746500Y2621110D02*
X750500Y2621110D01*
X350500Y2620110D02*
X410500Y2620110D01*
X485500Y2620110D02*
X542500Y2620110D01*
X712500Y2620110D02*
X716500Y2620110D01*
X729500Y2620110D02*
X733500Y2620110D01*
X746500Y2620110D02*
X750500Y2620110D01*
X352500Y2619110D02*
X408500Y2619110D01*
X484500Y2619110D02*
X543500Y2619110D01*
X712500Y2619110D02*
X716500Y2619110D01*
X729500Y2619110D02*
X733500Y2619110D01*
X746500Y2619110D02*
X750500Y2619110D01*
X354500Y2618110D02*
X406500Y2618110D01*
X484500Y2618110D02*
X543500Y2618110D01*
X712500Y2618110D02*
X716500Y2618110D01*
X729500Y2618110D02*
X733500Y2618110D01*
X746500Y2618110D02*
X750500Y2618110D01*
X357500Y2617110D02*
X404500Y2617110D01*
X483500Y2617110D02*
X544500Y2617110D01*
X712500Y2617110D02*
X716500Y2617110D01*
X729500Y2617110D02*
X733500Y2617110D01*
X746500Y2617110D02*
X750500Y2617110D01*
X360500Y2616110D02*
X401500Y2616110D01*
X483500Y2616110D02*
X544500Y2616110D01*
X712500Y2616110D02*
X716500Y2616110D01*
X729500Y2616110D02*
X733500Y2616110D01*
X746500Y2616110D02*
X750500Y2616110D01*
X363500Y2615110D02*
X397500Y2615110D01*
X483500Y2615110D02*
X545500Y2615110D01*
X712500Y2615110D02*
X716500Y2615110D01*
X729500Y2615110D02*
X733500Y2615110D01*
X746500Y2615110D02*
X750500Y2615110D01*
X368500Y2614110D02*
X393500Y2614110D01*
X482500Y2614110D02*
X545500Y2614110D01*
X712500Y2614110D02*
X716500Y2614110D01*
X729500Y2614110D02*
X733500Y2614110D01*
X746500Y2614110D02*
X750500Y2614110D01*
X377500Y2613110D02*
X383500Y2613110D01*
X482500Y2613110D02*
X545500Y2613110D01*
X712500Y2613110D02*
X717500Y2613110D01*
X729500Y2613110D02*
X733500Y2613110D01*
X746500Y2613110D02*
X750500Y2613110D01*
X482500Y2612110D02*
X546500Y2612110D01*
X712500Y2612110D02*
X750500Y2612110D01*
X481500Y2611110D02*
X546500Y2611110D01*
X712500Y2611110D02*
X750500Y2611110D01*
X481500Y2610110D02*
X546500Y2610110D01*
X712500Y2610110D02*
X750500Y2610110D01*
X481500Y2609110D02*
X547500Y2609110D01*
X712500Y2609110D02*
X750500Y2609110D01*
X480500Y2608110D02*
X547500Y2608110D01*
X713500Y2608110D02*
X750500Y2608110D01*
X480500Y2607110D02*
X547500Y2607110D01*
X480500Y2606110D02*
X547500Y2606110D01*
X480500Y2605110D02*
X547500Y2605110D01*
X480500Y2604110D02*
X548500Y2604110D01*
X480500Y2603110D02*
X548500Y2603110D01*
X480500Y2602110D02*
X548500Y2602110D01*
X479500Y2601110D02*
X548500Y2601110D01*
X479500Y2600110D02*
X548500Y2600110D01*
X479500Y2599110D02*
X548500Y2599110D01*
X479500Y2598110D02*
X548500Y2598110D01*
X479500Y2597110D02*
X548500Y2597110D01*
X479500Y2596110D02*
X548500Y2596110D01*
X713500Y2596110D02*
X716500Y2596110D01*
X746500Y2596110D02*
X749500Y2596110D01*
X479500Y2595110D02*
X548500Y2595110D01*
X713500Y2595110D02*
X716500Y2595110D01*
X746500Y2595110D02*
X750500Y2595110D01*
X479500Y2594110D02*
X548500Y2594110D01*
X712500Y2594110D02*
X716500Y2594110D01*
X746500Y2594110D02*
X750500Y2594110D01*
X479500Y2593110D02*
X548500Y2593110D01*
X712500Y2593110D02*
X716500Y2593110D01*
X746500Y2593110D02*
X750500Y2593110D01*
X479500Y2592110D02*
X548500Y2592110D01*
X712500Y2592110D02*
X716500Y2592110D01*
X746500Y2592110D02*
X750500Y2592110D01*
X479500Y2591110D02*
X548500Y2591110D01*
X712500Y2591110D02*
X716500Y2591110D01*
X746500Y2591110D02*
X750500Y2591110D01*
X480500Y2590110D02*
X548500Y2590110D01*
X712500Y2590110D02*
X716500Y2590110D01*
X746500Y2590110D02*
X750500Y2590110D01*
X480500Y2589110D02*
X548500Y2589110D01*
X712500Y2589110D02*
X716500Y2589110D01*
X746500Y2589110D02*
X750500Y2589110D01*
X480500Y2588110D02*
X547500Y2588110D01*
X712500Y2588110D02*
X716500Y2588110D01*
X746500Y2588110D02*
X750500Y2588110D01*
X480500Y2587110D02*
X547500Y2587110D01*
X712500Y2587110D02*
X716500Y2587110D01*
X731500Y2587110D02*
X731500Y2587110D01*
X746500Y2587110D02*
X750500Y2587110D01*
X480500Y2586110D02*
X547500Y2586110D01*
X712500Y2586110D02*
X716500Y2586110D01*
X730500Y2586110D02*
X733500Y2586110D01*
X746500Y2586110D02*
X750500Y2586110D01*
X480500Y2585110D02*
X547500Y2585110D01*
X712500Y2585110D02*
X716500Y2585110D01*
X729500Y2585110D02*
X733500Y2585110D01*
X746500Y2585110D02*
X750500Y2585110D01*
X481500Y2584110D02*
X547500Y2584110D01*
X712500Y2584110D02*
X716500Y2584110D01*
X729500Y2584110D02*
X733500Y2584110D01*
X746500Y2584110D02*
X750500Y2584110D01*
X481500Y2583110D02*
X546500Y2583110D01*
X712500Y2583110D02*
X716500Y2583110D01*
X729500Y2583110D02*
X733500Y2583110D01*
X746500Y2583110D02*
X750500Y2583110D01*
X481500Y2582110D02*
X546500Y2582110D01*
X712500Y2582110D02*
X716500Y2582110D01*
X729500Y2582110D02*
X733500Y2582110D01*
X746500Y2582110D02*
X750500Y2582110D01*
X482500Y2581110D02*
X546500Y2581110D01*
X712500Y2581110D02*
X716500Y2581110D01*
X729500Y2581110D02*
X733500Y2581110D01*
X746500Y2581110D02*
X750500Y2581110D01*
X482500Y2580110D02*
X546500Y2580110D01*
X712500Y2580110D02*
X716500Y2580110D01*
X729500Y2580110D02*
X733500Y2580110D01*
X746500Y2580110D02*
X750500Y2580110D01*
X482500Y2579110D02*
X545500Y2579110D01*
X712500Y2579110D02*
X716500Y2579110D01*
X729500Y2579110D02*
X733500Y2579110D01*
X746500Y2579110D02*
X750500Y2579110D01*
X483500Y2578110D02*
X545500Y2578110D01*
X712500Y2578110D02*
X716500Y2578110D01*
X729500Y2578110D02*
X733500Y2578110D01*
X746500Y2578110D02*
X750500Y2578110D01*
X483500Y2577110D02*
X544500Y2577110D01*
X712500Y2577110D02*
X750500Y2577110D01*
X483500Y2576110D02*
X544500Y2576110D01*
X712500Y2576110D02*
X750500Y2576110D01*
X484500Y2575110D02*
X544500Y2575110D01*
X712500Y2575110D02*
X750500Y2575110D01*
X484500Y2574110D02*
X543500Y2574110D01*
X712500Y2574110D02*
X750500Y2574110D01*
X485500Y2573110D02*
X543500Y2573110D01*
X712500Y2573110D02*
X750500Y2573110D01*
X485500Y2572110D02*
X542500Y2572110D01*
X486500Y2571110D02*
X541500Y2571110D01*
X487500Y2570110D02*
X541500Y2570110D01*
X487500Y2569110D02*
X540500Y2569110D01*
X488500Y2568110D02*
X539500Y2568110D01*
X489500Y2567110D02*
X539500Y2567110D01*
X489500Y2566110D02*
X538500Y2566110D01*
X490500Y2565110D02*
X537500Y2565110D01*
X491500Y2564110D02*
X536500Y2564110D01*
X492500Y2563110D02*
X535500Y2563110D01*
X493500Y2562110D02*
X534500Y2562110D01*
X494500Y2561110D02*
X533500Y2561110D01*
X713500Y2561110D02*
X715500Y2561110D01*
X747500Y2561110D02*
X749500Y2561110D01*
X495500Y2560110D02*
X532500Y2560110D01*
X713500Y2560110D02*
X716500Y2560110D01*
X746500Y2560110D02*
X749500Y2560110D01*
X497500Y2559110D02*
X531500Y2559110D01*
X713500Y2559110D02*
X717500Y2559110D01*
X745500Y2559110D02*
X750500Y2559110D01*
X498500Y2558110D02*
X529500Y2558110D01*
X713500Y2558110D02*
X718500Y2558110D01*
X744500Y2558110D02*
X749500Y2558110D01*
X500500Y2557110D02*
X527500Y2557110D01*
X713500Y2557110D02*
X719500Y2557110D01*
X743500Y2557110D02*
X749500Y2557110D01*
X502500Y2556110D02*
X525500Y2556110D01*
X714500Y2556110D02*
X720500Y2556110D01*
X742500Y2556110D02*
X748500Y2556110D01*
X504500Y2555110D02*
X523500Y2555110D01*
X715500Y2555110D02*
X721500Y2555110D01*
X741500Y2555110D02*
X747500Y2555110D01*
X508500Y2554110D02*
X519500Y2554110D01*
X716500Y2554110D02*
X722500Y2554110D01*
X741500Y2554110D02*
X746500Y2554110D01*
X717500Y2553110D02*
X722500Y2553110D01*
X740500Y2553110D02*
X745500Y2553110D01*
X718500Y2552110D02*
X723500Y2552110D01*
X739500Y2552110D02*
X744500Y2552110D01*
X719500Y2551110D02*
X724500Y2551110D01*
X738500Y2551110D02*
X744500Y2551110D01*
X719500Y2550110D02*
X725500Y2550110D01*
X737500Y2550110D02*
X743500Y2550110D01*
X720500Y2549110D02*
X726500Y2549110D01*
X736500Y2549110D02*
X742500Y2549110D01*
X721500Y2548110D02*
X727500Y2548110D01*
X735500Y2548110D02*
X741500Y2548110D01*
X722500Y2547110D02*
X728500Y2547110D01*
X735500Y2547110D02*
X740500Y2547110D01*
X723500Y2546110D02*
X728500Y2546110D01*
X734500Y2546110D02*
X739500Y2546110D01*
X724500Y2545110D02*
X729500Y2545110D01*
X733500Y2545110D02*
X738500Y2545110D01*
X725500Y2544110D02*
X730500Y2544110D01*
X732500Y2544110D02*
X738500Y2544110D01*
X725500Y2543110D02*
X737500Y2543110D01*
X714500Y2542110D02*
X748500Y2542110D01*
X713500Y2541110D02*
X749500Y2541110D01*
X713500Y2540110D02*
X750500Y2540110D01*
X713500Y2539110D02*
X750500Y2539110D01*
X713500Y2538110D02*
X749500Y2538110D01*
X507500Y2447110D02*
X520500Y2447110D01*
X504500Y2446110D02*
X523500Y2446110D01*
X502500Y2445110D02*
X526500Y2445110D01*
X500500Y2444110D02*
X528500Y2444110D01*
X498500Y2443110D02*
X529500Y2443110D01*
X497500Y2442110D02*
X531500Y2442110D01*
X495500Y2441110D02*
X532500Y2441110D01*
X494500Y2440110D02*
X533500Y2440110D01*
X493500Y2439110D02*
X534500Y2439110D01*
X492500Y2438110D02*
X535500Y2438110D01*
X491500Y2437110D02*
X536500Y2437110D01*
X490500Y2436110D02*
X537500Y2436110D01*
X489500Y2435110D02*
X538500Y2435110D01*
X489500Y2434110D02*
X539500Y2434110D01*
X488500Y2433110D02*
X540500Y2433110D01*
X487500Y2432110D02*
X540500Y2432110D01*
X486500Y2431110D02*
X541500Y2431110D01*
X486500Y2430110D02*
X541500Y2430110D01*
X485500Y2429110D02*
X542500Y2429110D01*
X485500Y2428110D02*
X543500Y2428110D01*
X484500Y2427110D02*
X543500Y2427110D01*
X484500Y2426110D02*
X544500Y2426110D01*
X483500Y2425110D02*
X544500Y2425110D01*
X483500Y2424110D02*
X544500Y2424110D01*
X483500Y2423110D02*
X545500Y2423110D01*
X482500Y2422110D02*
X545500Y2422110D01*
X482500Y2421110D02*
X546500Y2421110D01*
X481500Y2420110D02*
X546500Y2420110D01*
X481500Y2419110D02*
X546500Y2419110D01*
X481500Y2418110D02*
X546500Y2418110D01*
X481500Y2417110D02*
X547500Y2417110D01*
X480500Y2416110D02*
X547500Y2416110D01*
X480500Y2415110D02*
X547500Y2415110D01*
X480500Y2414110D02*
X547500Y2414110D01*
X480500Y2413110D02*
X548500Y2413110D01*
X480500Y2412110D02*
X548500Y2412110D01*
X480500Y2411110D02*
X548500Y2411110D01*
X479500Y2410110D02*
X548500Y2410110D01*
X479500Y2409110D02*
X548500Y2409110D01*
X479500Y2408110D02*
X548500Y2408110D01*
X479500Y2407110D02*
X548500Y2407110D01*
X479500Y2406110D02*
X548500Y2406110D01*
X479500Y2405110D02*
X548500Y2405110D01*
X479500Y2404110D02*
X548500Y2404110D01*
X479500Y2403110D02*
X548500Y2403110D01*
X479500Y2402110D02*
X548500Y2402110D01*
X479500Y2401110D02*
X548500Y2401110D01*
X479500Y2400110D02*
X548500Y2400110D01*
X480500Y2399110D02*
X548500Y2399110D01*
X480500Y2398110D02*
X548500Y2398110D01*
X480500Y2397110D02*
X548500Y2397110D01*
X480500Y2396110D02*
X547500Y2396110D01*
X480500Y2395110D02*
X547500Y2395110D01*
X480500Y2394110D02*
X547500Y2394110D01*
X481500Y2393110D02*
X547500Y2393110D01*
X481500Y2392110D02*
X547500Y2392110D01*
X481500Y2391110D02*
X546500Y2391110D01*
X481500Y2390110D02*
X546500Y2390110D01*
X482500Y2389110D02*
X546500Y2389110D01*
X375500Y2388110D02*
X386500Y2388110D01*
X482500Y2388110D02*
X545500Y2388110D01*
X367500Y2387110D02*
X393500Y2387110D01*
X482500Y2387110D02*
X545500Y2387110D01*
X363500Y2386110D02*
X398500Y2386110D01*
X483500Y2386110D02*
X545500Y2386110D01*
X359500Y2385110D02*
X401500Y2385110D01*
X483500Y2385110D02*
X544500Y2385110D01*
X356500Y2384110D02*
X404500Y2384110D01*
X484500Y2384110D02*
X544500Y2384110D01*
X354500Y2383110D02*
X406500Y2383110D01*
X484500Y2383110D02*
X543500Y2383110D01*
X352500Y2382110D02*
X409500Y2382110D01*
X484500Y2382110D02*
X543500Y2382110D01*
X350500Y2381110D02*
X410500Y2381110D01*
X485500Y2381110D02*
X542500Y2381110D01*
X348500Y2380110D02*
X412500Y2380110D01*
X486500Y2380110D02*
X542500Y2380110D01*
X347500Y2379110D02*
X414500Y2379110D01*
X486500Y2379110D02*
X541500Y2379110D01*
X346500Y2378110D02*
X415500Y2378110D01*
X487500Y2378110D02*
X541500Y2378110D01*
X344500Y2377110D02*
X416500Y2377110D01*
X487500Y2377110D02*
X540500Y2377110D01*
X343500Y2376110D02*
X417500Y2376110D01*
X488500Y2376110D02*
X539500Y2376110D01*
X342500Y2375110D02*
X418500Y2375110D01*
X489500Y2375110D02*
X538500Y2375110D01*
X341500Y2374110D02*
X419500Y2374110D01*
X490500Y2374110D02*
X538500Y2374110D01*
X341500Y2373110D02*
X420500Y2373110D01*
X491500Y2373110D02*
X537500Y2373110D01*
X340500Y2372110D02*
X421500Y2372110D01*
X491500Y2372110D02*
X536500Y2372110D01*
X339500Y2371110D02*
X421500Y2371110D01*
X492500Y2371110D02*
X535500Y2371110D01*
X339500Y2370110D02*
X422500Y2370110D01*
X494500Y2370110D02*
X534500Y2370110D01*
X338500Y2369110D02*
X422500Y2369110D01*
X495500Y2369110D02*
X533500Y2369110D01*
X338500Y2368110D02*
X423500Y2368110D01*
X496500Y2368110D02*
X531500Y2368110D01*
X338500Y2367110D02*
X423500Y2367110D01*
X497500Y2367110D02*
X530500Y2367110D01*
X337500Y2366110D02*
X423500Y2366110D01*
X499500Y2366110D02*
X528500Y2366110D01*
X337500Y2365110D02*
X423500Y2365110D01*
X501500Y2365110D02*
X527500Y2365110D01*
X337500Y2364110D02*
X423500Y2364110D01*
X503500Y2364110D02*
X524500Y2364110D01*
X337500Y2363110D02*
X423500Y2363110D01*
X506500Y2363110D02*
X522500Y2363110D01*
X337500Y2362110D02*
X423500Y2362110D01*
X510500Y2362110D02*
X517500Y2362110D01*
X337500Y2361110D02*
X423500Y2361110D01*
X337500Y2360110D02*
X423500Y2360110D01*
X338500Y2359110D02*
X423500Y2359110D01*
X338500Y2358110D02*
X423500Y2358110D01*
X338500Y2357110D02*
X422500Y2357110D01*
X339500Y2356110D02*
X422500Y2356110D01*
X339500Y2355110D02*
X421500Y2355110D01*
X340500Y2354110D02*
X420500Y2354110D01*
X341500Y2353110D02*
X420500Y2353110D01*
X342500Y2352110D02*
X419500Y2352110D01*
X343500Y2351110D02*
X418500Y2351110D01*
X344500Y2350110D02*
X417500Y2350110D01*
X345500Y2349110D02*
X416500Y2349110D01*
X346500Y2348110D02*
X415500Y2348110D01*
X347500Y2347110D02*
X413500Y2347110D01*
X349500Y2346110D02*
X412500Y2346110D01*
X350500Y2345110D02*
X410500Y2345110D01*
X352500Y2344110D02*
X408500Y2344110D01*
X355500Y2343110D02*
X406500Y2343110D01*
X357500Y2342110D02*
X403500Y2342110D01*
X360500Y2341110D02*
X401500Y2341110D01*
X363500Y2340110D02*
X397500Y2340110D01*
X368500Y2339110D02*
X392500Y2339110D01*
X379500Y2338110D02*
X382500Y2338110D01*
X975500Y1863110D02*
X2019500Y1863110D01*
X975500Y1862110D02*
X2020500Y1862110D01*
X975500Y1861110D02*
X2021500Y1861110D01*
X975500Y1860110D02*
X2022500Y1860110D01*
X975500Y1859110D02*
X2023500Y1859110D01*
X975500Y1858110D02*
X2024500Y1858110D01*
X975500Y1857110D02*
X2025500Y1857110D01*
X975500Y1856110D02*
X2026500Y1856110D01*
X975500Y1855110D02*
X982500Y1855110D01*
X2017500Y1855110D02*
X2027500Y1855110D01*
X975500Y1854110D02*
X982500Y1854110D01*
X2018500Y1854110D02*
X2028500Y1854110D01*
X975500Y1853110D02*
X982500Y1853110D01*
X2019500Y1853110D02*
X2029500Y1853110D01*
X975500Y1852110D02*
X982500Y1852110D01*
X2020500Y1852110D02*
X2030500Y1852110D01*
X975500Y1851110D02*
X982500Y1851110D01*
X2021500Y1851110D02*
X2031500Y1851110D01*
X975500Y1850110D02*
X982500Y1850110D01*
X2022500Y1850110D02*
X2032500Y1850110D01*
X975500Y1849110D02*
X982500Y1849110D01*
X2023500Y1849110D02*
X2033500Y1849110D01*
X975500Y1848110D02*
X982500Y1848110D01*
X2024500Y1848110D02*
X2034500Y1848110D01*
X975500Y1847110D02*
X982500Y1847110D01*
X2025500Y1847110D02*
X2035500Y1847110D01*
X975500Y1846110D02*
X982500Y1846110D01*
X2026500Y1846110D02*
X2036500Y1846110D01*
X975500Y1845110D02*
X982500Y1845110D01*
X2027500Y1845110D02*
X2037500Y1845110D01*
X975500Y1844110D02*
X982500Y1844110D01*
X1200500Y1844110D02*
X1202500Y1844110D01*
X2028500Y1844110D02*
X2038500Y1844110D01*
X975500Y1843110D02*
X982500Y1843110D01*
X1199500Y1843110D02*
X1203500Y1843110D01*
X2029500Y1843110D02*
X2039500Y1843110D01*
X975500Y1842110D02*
X982500Y1842110D01*
X1199500Y1842110D02*
X1204500Y1842110D01*
X2030500Y1842110D02*
X2040500Y1842110D01*
X975500Y1841110D02*
X982500Y1841110D01*
X1200500Y1841110D02*
X1204500Y1841110D01*
X2031500Y1841110D02*
X2041500Y1841110D01*
X975500Y1840110D02*
X982500Y1840110D01*
X1201500Y1840110D02*
X1205500Y1840110D01*
X2032500Y1840110D02*
X2042500Y1840110D01*
X975500Y1839110D02*
X982500Y1839110D01*
X1202500Y1839110D02*
X1206500Y1839110D01*
X2033500Y1839110D02*
X2043500Y1839110D01*
X975500Y1838110D02*
X982500Y1838110D01*
X1202500Y1838110D02*
X1207500Y1838110D01*
X2034500Y1838110D02*
X2044500Y1838110D01*
X975500Y1837110D02*
X982500Y1837110D01*
X1203500Y1837110D02*
X1207500Y1837110D01*
X2035500Y1837110D02*
X2045500Y1837110D01*
X975500Y1836110D02*
X982500Y1836110D01*
X1204500Y1836110D02*
X1208500Y1836110D01*
X2036500Y1836110D02*
X2046500Y1836110D01*
X975500Y1835110D02*
X982500Y1835110D01*
X1170500Y1835110D02*
X1209500Y1835110D01*
X2037500Y1835110D02*
X2047500Y1835110D01*
X975500Y1834110D02*
X982500Y1834110D01*
X1170500Y1834110D02*
X1209500Y1834110D01*
X2038500Y1834110D02*
X2048500Y1834110D01*
X975500Y1833110D02*
X982500Y1833110D01*
X1170500Y1833110D02*
X1209500Y1833110D01*
X2039500Y1833110D02*
X2049500Y1833110D01*
X975500Y1832110D02*
X982500Y1832110D01*
X1170500Y1832110D02*
X1209500Y1832110D01*
X2040500Y1832110D02*
X2050500Y1832110D01*
X975500Y1831110D02*
X982500Y1831110D01*
X1171500Y1831110D02*
X1209500Y1831110D01*
X2041500Y1831110D02*
X2051500Y1831110D01*
X975500Y1830110D02*
X982500Y1830110D01*
X2042500Y1830110D02*
X2052500Y1830110D01*
X975500Y1829110D02*
X982500Y1829110D01*
X2043500Y1829110D02*
X2053500Y1829110D01*
X975500Y1828110D02*
X982500Y1828110D01*
X2044500Y1828110D02*
X2054500Y1828110D01*
X975500Y1827110D02*
X982500Y1827110D01*
X2045500Y1827110D02*
X2055500Y1827110D01*
X975500Y1826110D02*
X982500Y1826110D01*
X2046500Y1826110D02*
X2056500Y1826110D01*
X975500Y1825110D02*
X982500Y1825110D01*
X2047500Y1825110D02*
X2057500Y1825110D01*
X975500Y1824110D02*
X982500Y1824110D01*
X2048500Y1824110D02*
X2058500Y1824110D01*
X975500Y1823110D02*
X982500Y1823110D01*
X2049500Y1823110D02*
X2059500Y1823110D01*
X975500Y1822110D02*
X982500Y1822110D01*
X2050500Y1822110D02*
X2060500Y1822110D01*
X975500Y1821110D02*
X982500Y1821110D01*
X2051500Y1821110D02*
X2061500Y1821110D01*
X975500Y1820110D02*
X982500Y1820110D01*
X2052500Y1820110D02*
X2062500Y1820110D01*
X975500Y1819110D02*
X982500Y1819110D01*
X2053500Y1819110D02*
X2063500Y1819110D01*
X975500Y1818110D02*
X982500Y1818110D01*
X2054500Y1818110D02*
X2064500Y1818110D01*
X975500Y1817110D02*
X982500Y1817110D01*
X2055500Y1817110D02*
X2065500Y1817110D01*
X975500Y1816110D02*
X982500Y1816110D01*
X1181500Y1816110D02*
X1199500Y1816110D01*
X2056500Y1816110D02*
X2066500Y1816110D01*
X975500Y1815110D02*
X982500Y1815110D01*
X1178500Y1815110D02*
X1202500Y1815110D01*
X2057500Y1815110D02*
X2067500Y1815110D01*
X975500Y1814110D02*
X982500Y1814110D01*
X1176500Y1814110D02*
X1204500Y1814110D01*
X2058500Y1814110D02*
X2068500Y1814110D01*
X975500Y1813110D02*
X982500Y1813110D01*
X1174500Y1813110D02*
X1206500Y1813110D01*
X2059500Y1813110D02*
X2069500Y1813110D01*
X975500Y1812110D02*
X982500Y1812110D01*
X1173500Y1812110D02*
X1207500Y1812110D01*
X2060500Y1812110D02*
X2070500Y1812110D01*
X975500Y1811110D02*
X982500Y1811110D01*
X1172500Y1811110D02*
X1180500Y1811110D01*
X1200500Y1811110D02*
X1208500Y1811110D01*
X2061500Y1811110D02*
X2071500Y1811110D01*
X975500Y1810110D02*
X982500Y1810110D01*
X1171500Y1810110D02*
X1177500Y1810110D01*
X1203500Y1810110D02*
X1208500Y1810110D01*
X2062500Y1810110D02*
X2072500Y1810110D01*
X975500Y1809110D02*
X982500Y1809110D01*
X1171500Y1809110D02*
X1175500Y1809110D01*
X1204500Y1809110D02*
X1209500Y1809110D01*
X2063500Y1809110D02*
X2073500Y1809110D01*
X975500Y1808110D02*
X982500Y1808110D01*
X1171500Y1808110D02*
X1174500Y1808110D01*
X1205500Y1808110D02*
X1209500Y1808110D01*
X2064500Y1808110D02*
X2074500Y1808110D01*
X975500Y1807110D02*
X982500Y1807110D01*
X1170500Y1807110D02*
X1174500Y1807110D01*
X1206500Y1807110D02*
X1209500Y1807110D01*
X2065500Y1807110D02*
X2075500Y1807110D01*
X975500Y1806110D02*
X982500Y1806110D01*
X1170500Y1806110D02*
X1173500Y1806110D01*
X1206500Y1806110D02*
X1210500Y1806110D01*
X2066500Y1806110D02*
X2076500Y1806110D01*
X975500Y1805110D02*
X982500Y1805110D01*
X1170500Y1805110D02*
X1173500Y1805110D01*
X1206500Y1805110D02*
X1210500Y1805110D01*
X2067500Y1805110D02*
X2077500Y1805110D01*
X975500Y1804110D02*
X982500Y1804110D01*
X1170500Y1804110D02*
X1173500Y1804110D01*
X1206500Y1804110D02*
X1210500Y1804110D01*
X2068500Y1804110D02*
X2078500Y1804110D01*
X975500Y1803110D02*
X982500Y1803110D01*
X1170500Y1803110D02*
X1173500Y1803110D01*
X1206500Y1803110D02*
X1210500Y1803110D01*
X2069500Y1803110D02*
X2079500Y1803110D01*
X975500Y1802110D02*
X982500Y1802110D01*
X1170500Y1802110D02*
X1174500Y1802110D01*
X1206500Y1802110D02*
X1209500Y1802110D01*
X2070500Y1802110D02*
X2080500Y1802110D01*
X975500Y1801110D02*
X982500Y1801110D01*
X1170500Y1801110D02*
X1174500Y1801110D01*
X1206500Y1801110D02*
X1209500Y1801110D01*
X2071500Y1801110D02*
X2081500Y1801110D01*
X975500Y1800110D02*
X982500Y1800110D01*
X1171500Y1800110D02*
X1175500Y1800110D01*
X1205500Y1800110D02*
X1209500Y1800110D01*
X2072500Y1800110D02*
X2082500Y1800110D01*
X975500Y1799110D02*
X982500Y1799110D01*
X1171500Y1799110D02*
X1176500Y1799110D01*
X1204500Y1799110D02*
X1208500Y1799110D01*
X2073500Y1799110D02*
X2083500Y1799110D01*
X975500Y1798110D02*
X982500Y1798110D01*
X1172500Y1798110D02*
X1178500Y1798110D01*
X1201500Y1798110D02*
X1208500Y1798110D01*
X2074500Y1798110D02*
X2084500Y1798110D01*
X975500Y1797110D02*
X982500Y1797110D01*
X1172500Y1797110D02*
X1182500Y1797110D01*
X1197500Y1797110D02*
X1207500Y1797110D01*
X2075500Y1797110D02*
X2085500Y1797110D01*
X975500Y1796110D02*
X982500Y1796110D01*
X1173500Y1796110D02*
X1206500Y1796110D01*
X2076500Y1796110D02*
X2086500Y1796110D01*
X975500Y1795110D02*
X982500Y1795110D01*
X1175500Y1795110D02*
X1205500Y1795110D01*
X2058500Y1795110D02*
X2059500Y1795110D01*
X2077500Y1795110D02*
X2087500Y1795110D01*
X975500Y1794110D02*
X982500Y1794110D01*
X1176500Y1794110D02*
X1203500Y1794110D01*
X2057500Y1794110D02*
X2059500Y1794110D01*
X2078500Y1794110D02*
X2088500Y1794110D01*
X975500Y1793110D02*
X982500Y1793110D01*
X1179500Y1793110D02*
X1200500Y1793110D01*
X2056500Y1793110D02*
X2060500Y1793110D01*
X2079500Y1793110D02*
X2089500Y1793110D01*
X975500Y1792110D02*
X982500Y1792110D01*
X1184500Y1792110D02*
X1195500Y1792110D01*
X2057500Y1792110D02*
X2061500Y1792110D01*
X2080500Y1792110D02*
X2090500Y1792110D01*
X975500Y1791110D02*
X982500Y1791110D01*
X2057500Y1791110D02*
X2062500Y1791110D01*
X2081500Y1791110D02*
X2091500Y1791110D01*
X975500Y1790110D02*
X982500Y1790110D01*
X2058500Y1790110D02*
X2062500Y1790110D01*
X2082500Y1790110D02*
X2092500Y1790110D01*
X975500Y1789110D02*
X982500Y1789110D01*
X2059500Y1789110D02*
X2063500Y1789110D01*
X2083500Y1789110D02*
X2093500Y1789110D01*
X975500Y1788110D02*
X982500Y1788110D01*
X2060500Y1788110D02*
X2064500Y1788110D01*
X2084500Y1788110D02*
X2094500Y1788110D01*
X975500Y1787110D02*
X982500Y1787110D01*
X2061500Y1787110D02*
X2065500Y1787110D01*
X2085500Y1787110D02*
X2095500Y1787110D01*
X975500Y1786110D02*
X982500Y1786110D01*
X2028500Y1786110D02*
X2058500Y1786110D01*
X2061500Y1786110D02*
X2066500Y1786110D01*
X2086500Y1786110D02*
X2096500Y1786110D01*
X975500Y1785110D02*
X982500Y1785110D01*
X2027500Y1785110D02*
X2066500Y1785110D01*
X2087500Y1785110D02*
X2097500Y1785110D01*
X975500Y1784110D02*
X982500Y1784110D01*
X2027500Y1784110D02*
X2066500Y1784110D01*
X2088500Y1784110D02*
X2098500Y1784110D01*
X975500Y1783110D02*
X982500Y1783110D01*
X2027500Y1783110D02*
X2066500Y1783110D01*
X2089500Y1783110D02*
X2099500Y1783110D01*
X975500Y1782110D02*
X982500Y1782110D01*
X2027500Y1782110D02*
X2066500Y1782110D01*
X2090500Y1782110D02*
X2100500Y1782110D01*
X975500Y1781110D02*
X982500Y1781110D01*
X2091500Y1781110D02*
X2101500Y1781110D01*
X975500Y1780110D02*
X982500Y1780110D01*
X2092500Y1780110D02*
X2102500Y1780110D01*
X975500Y1779110D02*
X982500Y1779110D01*
X2093500Y1779110D02*
X2103500Y1779110D01*
X975500Y1778110D02*
X982500Y1778110D01*
X2094500Y1778110D02*
X2104500Y1778110D01*
X975500Y1777110D02*
X982500Y1777110D01*
X2095500Y1777110D02*
X2105500Y1777110D01*
X975500Y1776110D02*
X982500Y1776110D01*
X2096500Y1776110D02*
X2106500Y1776110D01*
X975500Y1775110D02*
X982500Y1775110D01*
X2097500Y1775110D02*
X2107500Y1775110D01*
X975500Y1774110D02*
X982500Y1774110D01*
X2098500Y1774110D02*
X2108500Y1774110D01*
X975500Y1773110D02*
X982500Y1773110D01*
X2099500Y1773110D02*
X2109500Y1773110D01*
X975500Y1772110D02*
X982500Y1772110D01*
X2100500Y1772110D02*
X2110500Y1772110D01*
X975500Y1771110D02*
X982500Y1771110D01*
X2101500Y1771110D02*
X2111500Y1771110D01*
X975500Y1770110D02*
X982500Y1770110D01*
X2102500Y1770110D02*
X2112500Y1770110D01*
X975500Y1769110D02*
X982500Y1769110D01*
X2103500Y1769110D02*
X2113500Y1769110D01*
X975500Y1768110D02*
X982500Y1768110D01*
X2104500Y1768110D02*
X2114500Y1768110D01*
X975500Y1767110D02*
X982500Y1767110D01*
X2105500Y1767110D02*
X2115500Y1767110D01*
X975500Y1766110D02*
X982500Y1766110D01*
X2106500Y1766110D02*
X2116500Y1766110D01*
X975500Y1765110D02*
X982500Y1765110D01*
X2107500Y1765110D02*
X2117500Y1765110D01*
X975500Y1764110D02*
X982500Y1764110D01*
X2108500Y1764110D02*
X2118500Y1764110D01*
X975500Y1763110D02*
X982500Y1763110D01*
X2109500Y1763110D02*
X2119500Y1763110D01*
X975500Y1762110D02*
X982500Y1762110D01*
X2110500Y1762110D02*
X2120500Y1762110D01*
X975500Y1761110D02*
X982500Y1761110D01*
X2111500Y1761110D02*
X2121500Y1761110D01*
X975500Y1760110D02*
X982500Y1760110D01*
X2112500Y1760110D02*
X2122500Y1760110D01*
X975500Y1759110D02*
X982500Y1759110D01*
X2113500Y1759110D02*
X2123500Y1759110D01*
X975500Y1758110D02*
X982500Y1758110D01*
X2114500Y1758110D02*
X2124500Y1758110D01*
X975500Y1757110D02*
X982500Y1757110D01*
X2115500Y1757110D02*
X2125500Y1757110D01*
X975500Y1756110D02*
X982500Y1756110D01*
X2116500Y1756110D02*
X2126500Y1756110D01*
X975500Y1755110D02*
X982500Y1755110D01*
X2117500Y1755110D02*
X2127500Y1755110D01*
X975500Y1754110D02*
X982500Y1754110D01*
X2118500Y1754110D02*
X2128500Y1754110D01*
X975500Y1753110D02*
X982500Y1753110D01*
X2119500Y1753110D02*
X2129500Y1753110D01*
X975500Y1752110D02*
X982500Y1752110D01*
X2120500Y1752110D02*
X2130500Y1752110D01*
X975500Y1751110D02*
X982500Y1751110D01*
X2121500Y1751110D02*
X2131500Y1751110D01*
X975500Y1750110D02*
X982500Y1750110D01*
X2122500Y1750110D02*
X2132500Y1750110D01*
X975500Y1749110D02*
X982500Y1749110D01*
X2123500Y1749110D02*
X2133500Y1749110D01*
X975500Y1748110D02*
X982500Y1748110D01*
X2124500Y1748110D02*
X2134500Y1748110D01*
X975500Y1747110D02*
X982500Y1747110D01*
X2125500Y1747110D02*
X2135500Y1747110D01*
X975500Y1746110D02*
X982500Y1746110D01*
X2126500Y1746110D02*
X2136500Y1746110D01*
X975500Y1745110D02*
X982500Y1745110D01*
X2127500Y1745110D02*
X2137500Y1745110D01*
X975500Y1744110D02*
X982500Y1744110D01*
X2128500Y1744110D02*
X2138500Y1744110D01*
X975500Y1743110D02*
X982500Y1743110D01*
X2129500Y1743110D02*
X2139500Y1743110D01*
X975500Y1742110D02*
X982500Y1742110D01*
X2130500Y1742110D02*
X2140500Y1742110D01*
X975500Y1741110D02*
X982500Y1741110D01*
X2131500Y1741110D02*
X2141500Y1741110D01*
X975500Y1740110D02*
X982500Y1740110D01*
X2132500Y1740110D02*
X2142500Y1740110D01*
X975500Y1739110D02*
X982500Y1739110D01*
X2133500Y1739110D02*
X2143500Y1739110D01*
X975500Y1738110D02*
X982500Y1738110D01*
X2134500Y1738110D02*
X2144500Y1738110D01*
X975500Y1737110D02*
X982500Y1737110D01*
X2135500Y1737110D02*
X2145500Y1737110D01*
X975500Y1736110D02*
X982500Y1736110D01*
X2136500Y1736110D02*
X2146500Y1736110D01*
X975500Y1735110D02*
X982500Y1735110D01*
X2137500Y1735110D02*
X2147500Y1735110D01*
X975500Y1734110D02*
X982500Y1734110D01*
X2138500Y1734110D02*
X2148500Y1734110D01*
X975500Y1733110D02*
X982500Y1733110D01*
X2139500Y1733110D02*
X2149500Y1733110D01*
X975500Y1732110D02*
X982500Y1732110D01*
X2140500Y1732110D02*
X2150500Y1732110D01*
X975500Y1731110D02*
X982500Y1731110D01*
X2141500Y1731110D02*
X2151500Y1731110D01*
X975500Y1730110D02*
X982500Y1730110D01*
X2142500Y1730110D02*
X2152500Y1730110D01*
X975500Y1729110D02*
X982500Y1729110D01*
X2143500Y1729110D02*
X2153500Y1729110D01*
X975500Y1728110D02*
X982500Y1728110D01*
X2144500Y1728110D02*
X2154500Y1728110D01*
X975500Y1727110D02*
X982500Y1727110D01*
X2145500Y1727110D02*
X2155500Y1727110D01*
X975500Y1726110D02*
X982500Y1726110D01*
X2146500Y1726110D02*
X2156500Y1726110D01*
X975500Y1725110D02*
X982500Y1725110D01*
X2147500Y1725110D02*
X2157500Y1725110D01*
X975500Y1724110D02*
X982500Y1724110D01*
X2148500Y1724110D02*
X2158500Y1724110D01*
X975500Y1723110D02*
X982500Y1723110D01*
X2149500Y1723110D02*
X2159500Y1723110D01*
X975500Y1722110D02*
X982500Y1722110D01*
X2150500Y1722110D02*
X2160500Y1722110D01*
X975500Y1721110D02*
X982500Y1721110D01*
X2151500Y1721110D02*
X2161500Y1721110D01*
X975500Y1720110D02*
X982500Y1720110D01*
X2152500Y1720110D02*
X2162500Y1720110D01*
X975500Y1719110D02*
X982500Y1719110D01*
X2153500Y1719110D02*
X2163500Y1719110D01*
X975500Y1718110D02*
X982500Y1718110D01*
X2154500Y1718110D02*
X2164500Y1718110D01*
X975500Y1717110D02*
X982500Y1717110D01*
X2155500Y1717110D02*
X2165500Y1717110D01*
X975500Y1716110D02*
X982500Y1716110D01*
X2156500Y1716110D02*
X2166500Y1716110D01*
X975500Y1715110D02*
X982500Y1715110D01*
X2157500Y1715110D02*
X2167500Y1715110D01*
X975500Y1714110D02*
X982500Y1714110D01*
X2158500Y1714110D02*
X2168500Y1714110D01*
X975500Y1713110D02*
X982500Y1713110D01*
X2159500Y1713110D02*
X2169500Y1713110D01*
X975500Y1712110D02*
X982500Y1712110D01*
X2160500Y1712110D02*
X2170500Y1712110D01*
X975500Y1711110D02*
X982500Y1711110D01*
X2161500Y1711110D02*
X2171500Y1711110D01*
X975500Y1710110D02*
X982500Y1710110D01*
X2162500Y1710110D02*
X2172500Y1710110D01*
X975500Y1709110D02*
X982500Y1709110D01*
X2163500Y1709110D02*
X2173500Y1709110D01*
X975500Y1708110D02*
X982500Y1708110D01*
X2164500Y1708110D02*
X2174500Y1708110D01*
X975500Y1707110D02*
X982500Y1707110D01*
X2165500Y1707110D02*
X2175500Y1707110D01*
X975500Y1706110D02*
X982500Y1706110D01*
X2166500Y1706110D02*
X2176500Y1706110D01*
X975500Y1705110D02*
X982500Y1705110D01*
X2167500Y1705110D02*
X2177500Y1705110D01*
X975500Y1704110D02*
X982500Y1704110D01*
X2168500Y1704110D02*
X2178500Y1704110D01*
X975500Y1703110D02*
X982500Y1703110D01*
X2169500Y1703110D02*
X2179500Y1703110D01*
X975500Y1702110D02*
X982500Y1702110D01*
X2170500Y1702110D02*
X2180500Y1702110D01*
X975500Y1701110D02*
X982500Y1701110D01*
X2171500Y1701110D02*
X2181500Y1701110D01*
X975500Y1700110D02*
X982500Y1700110D01*
X2172500Y1700110D02*
X2182500Y1700110D01*
X975500Y1699110D02*
X982500Y1699110D01*
X2173500Y1699110D02*
X2183500Y1699110D01*
X975500Y1698110D02*
X982500Y1698110D01*
X2174500Y1698110D02*
X2184500Y1698110D01*
X975500Y1697110D02*
X982500Y1697110D01*
X2175500Y1697110D02*
X2185500Y1697110D01*
X975500Y1696110D02*
X982500Y1696110D01*
X2176500Y1696110D02*
X2186500Y1696110D01*
X975500Y1695110D02*
X982500Y1695110D01*
X2177500Y1695110D02*
X2187500Y1695110D01*
X975500Y1694110D02*
X982500Y1694110D01*
X2178500Y1694110D02*
X2188500Y1694110D01*
X975500Y1693110D02*
X982500Y1693110D01*
X2179500Y1693110D02*
X2189500Y1693110D01*
X975500Y1692110D02*
X982500Y1692110D01*
X2180500Y1692110D02*
X2190500Y1692110D01*
X975500Y1691110D02*
X982500Y1691110D01*
X2181500Y1691110D02*
X2191500Y1691110D01*
X975500Y1690110D02*
X982500Y1690110D01*
X2182500Y1690110D02*
X2192500Y1690110D01*
X975500Y1689110D02*
X982500Y1689110D01*
X2183500Y1689110D02*
X2193500Y1689110D01*
X975500Y1688110D02*
X982500Y1688110D01*
X2184500Y1688110D02*
X2194500Y1688110D01*
X975500Y1687110D02*
X982500Y1687110D01*
X2185500Y1687110D02*
X2195500Y1687110D01*
X975500Y1686110D02*
X982500Y1686110D01*
X2186500Y1686110D02*
X2196500Y1686110D01*
X975500Y1685110D02*
X982500Y1685110D01*
X2187500Y1685110D02*
X2197500Y1685110D01*
X975500Y1684110D02*
X982500Y1684110D01*
X2188500Y1684110D02*
X2198500Y1684110D01*
X975500Y1683110D02*
X982500Y1683110D01*
X2189500Y1683110D02*
X2199500Y1683110D01*
X975500Y1682110D02*
X982500Y1682110D01*
X2190500Y1682110D02*
X2200500Y1682110D01*
X975500Y1681110D02*
X982500Y1681110D01*
X2191500Y1681110D02*
X2201500Y1681110D01*
X975500Y1680110D02*
X982500Y1680110D01*
X2192500Y1680110D02*
X2202500Y1680110D01*
X975500Y1679110D02*
X982500Y1679110D01*
X2193500Y1679110D02*
X2203500Y1679110D01*
X975500Y1678110D02*
X982500Y1678110D01*
X2194500Y1678110D02*
X2204500Y1678110D01*
X975500Y1677110D02*
X982500Y1677110D01*
X2195500Y1677110D02*
X2205500Y1677110D01*
X975500Y1676110D02*
X982500Y1676110D01*
X2196500Y1676110D02*
X2206500Y1676110D01*
X975500Y1675110D02*
X982500Y1675110D01*
X2197500Y1675110D02*
X2207500Y1675110D01*
X975500Y1674110D02*
X982500Y1674110D01*
X2198500Y1674110D02*
X2208500Y1674110D01*
X975500Y1673110D02*
X982500Y1673110D01*
X2199500Y1673110D02*
X2209500Y1673110D01*
X975500Y1672110D02*
X982500Y1672110D01*
X2200500Y1672110D02*
X2210500Y1672110D01*
X975500Y1671110D02*
X982500Y1671110D01*
X2201500Y1671110D02*
X2211500Y1671110D01*
X975500Y1670110D02*
X982500Y1670110D01*
X2202500Y1670110D02*
X2212500Y1670110D01*
X975500Y1669110D02*
X982500Y1669110D01*
X2203500Y1669110D02*
X2213500Y1669110D01*
X975500Y1668110D02*
X982500Y1668110D01*
X2204500Y1668110D02*
X2214500Y1668110D01*
X975500Y1667110D02*
X982500Y1667110D01*
X2205500Y1667110D02*
X2215500Y1667110D01*
X975500Y1666110D02*
X982500Y1666110D01*
X2206500Y1666110D02*
X2216500Y1666110D01*
X975500Y1665110D02*
X982500Y1665110D01*
X2207500Y1665110D02*
X2217500Y1665110D01*
X975500Y1664110D02*
X982500Y1664110D01*
X2208500Y1664110D02*
X2218500Y1664110D01*
X975500Y1663110D02*
X982500Y1663110D01*
X2209500Y1663110D02*
X2219500Y1663110D01*
X975500Y1662110D02*
X982500Y1662110D01*
X2210500Y1662110D02*
X2220500Y1662110D01*
X975500Y1661110D02*
X982500Y1661110D01*
X2211500Y1661110D02*
X2221500Y1661110D01*
X975500Y1660110D02*
X982500Y1660110D01*
X2212500Y1660110D02*
X2222500Y1660110D01*
X975500Y1659110D02*
X982500Y1659110D01*
X2213500Y1659110D02*
X2223500Y1659110D01*
X975500Y1658110D02*
X982500Y1658110D01*
X2214500Y1658110D02*
X2224500Y1658110D01*
X975500Y1657110D02*
X982500Y1657110D01*
X2215500Y1657110D02*
X2225500Y1657110D01*
X975500Y1656110D02*
X982500Y1656110D01*
X2216500Y1656110D02*
X2226500Y1656110D01*
X975500Y1655110D02*
X982500Y1655110D01*
X2217500Y1655110D02*
X2227500Y1655110D01*
X975500Y1654110D02*
X982500Y1654110D01*
X2218500Y1654110D02*
X2228500Y1654110D01*
X975500Y1653110D02*
X982500Y1653110D01*
X2219500Y1653110D02*
X2229500Y1653110D01*
X975500Y1652110D02*
X982500Y1652110D01*
X2220500Y1652110D02*
X2230500Y1652110D01*
X975500Y1651110D02*
X982500Y1651110D01*
X2221500Y1651110D02*
X2231500Y1651110D01*
X975500Y1650110D02*
X982500Y1650110D01*
X2222500Y1650110D02*
X2232500Y1650110D01*
X975500Y1649110D02*
X982500Y1649110D01*
X2223500Y1649110D02*
X2233500Y1649110D01*
X975500Y1648110D02*
X982500Y1648110D01*
X2224500Y1648110D02*
X2234500Y1648110D01*
X975500Y1647110D02*
X982500Y1647110D01*
X2225500Y1647110D02*
X2235500Y1647110D01*
X975500Y1646110D02*
X982500Y1646110D01*
X2226500Y1646110D02*
X2236500Y1646110D01*
X975500Y1645110D02*
X982500Y1645110D01*
X2227500Y1645110D02*
X2237500Y1645110D01*
X975500Y1644110D02*
X982500Y1644110D01*
X2228500Y1644110D02*
X2238500Y1644110D01*
X975500Y1643110D02*
X982500Y1643110D01*
X2229500Y1643110D02*
X2239500Y1643110D01*
X975500Y1642110D02*
X982500Y1642110D01*
X2230500Y1642110D02*
X2240500Y1642110D01*
X975500Y1641110D02*
X982500Y1641110D01*
X2231500Y1641110D02*
X2241500Y1641110D01*
X975500Y1640110D02*
X982500Y1640110D01*
X2232500Y1640110D02*
X2242500Y1640110D01*
X975500Y1639110D02*
X982500Y1639110D01*
X2233500Y1639110D02*
X2243500Y1639110D01*
X975500Y1638110D02*
X982500Y1638110D01*
X2234500Y1638110D02*
X2244500Y1638110D01*
X975500Y1637110D02*
X982500Y1637110D01*
X2235500Y1637110D02*
X2245500Y1637110D01*
X975500Y1636110D02*
X982500Y1636110D01*
X2236500Y1636110D02*
X2246500Y1636110D01*
X975500Y1635110D02*
X982500Y1635110D01*
X2237500Y1635110D02*
X2247500Y1635110D01*
X975500Y1634110D02*
X982500Y1634110D01*
X2238500Y1634110D02*
X2248500Y1634110D01*
X975500Y1633110D02*
X982500Y1633110D01*
X2239500Y1633110D02*
X2249500Y1633110D01*
X975500Y1632110D02*
X982500Y1632110D01*
X2240500Y1632110D02*
X2250500Y1632110D01*
X975500Y1631110D02*
X982500Y1631110D01*
X2241500Y1631110D02*
X2251500Y1631110D01*
X975500Y1630110D02*
X982500Y1630110D01*
X2242500Y1630110D02*
X2252500Y1630110D01*
X975500Y1629110D02*
X982500Y1629110D01*
X2243500Y1629110D02*
X2253500Y1629110D01*
X975500Y1628110D02*
X982500Y1628110D01*
X2244500Y1628110D02*
X2254500Y1628110D01*
X975500Y1627110D02*
X982500Y1627110D01*
X2245500Y1627110D02*
X2255500Y1627110D01*
X975500Y1626110D02*
X982500Y1626110D01*
X2246500Y1626110D02*
X2256500Y1626110D01*
X975500Y1625110D02*
X982500Y1625110D01*
X2247500Y1625110D02*
X2257500Y1625110D01*
X975500Y1624110D02*
X982500Y1624110D01*
X2248500Y1624110D02*
X2258500Y1624110D01*
X975500Y1623110D02*
X982500Y1623110D01*
X2249500Y1623110D02*
X2259500Y1623110D01*
X975500Y1622110D02*
X982500Y1622110D01*
X2250500Y1622110D02*
X2260500Y1622110D01*
X975500Y1621110D02*
X982500Y1621110D01*
X2251500Y1621110D02*
X2261500Y1621110D01*
X975500Y1620110D02*
X982500Y1620110D01*
X2252500Y1620110D02*
X2262500Y1620110D01*
X975500Y1619110D02*
X982500Y1619110D01*
X2253500Y1619110D02*
X2263500Y1619110D01*
X975500Y1618110D02*
X982500Y1618110D01*
X2254500Y1618110D02*
X2264500Y1618110D01*
X975500Y1617110D02*
X982500Y1617110D01*
X2255500Y1617110D02*
X2265500Y1617110D01*
X975500Y1616110D02*
X982500Y1616110D01*
X2256500Y1616110D02*
X2266500Y1616110D01*
X975500Y1615110D02*
X982500Y1615110D01*
X2257500Y1615110D02*
X2267500Y1615110D01*
X975500Y1614110D02*
X982500Y1614110D01*
X2258500Y1614110D02*
X2268500Y1614110D01*
X975500Y1613110D02*
X982500Y1613110D01*
X2259500Y1613110D02*
X2269500Y1613110D01*
X975500Y1612110D02*
X982500Y1612110D01*
X2260500Y1612110D02*
X2270500Y1612110D01*
X975500Y1611110D02*
X982500Y1611110D01*
X2261500Y1611110D02*
X2270500Y1611110D01*
X975500Y1610110D02*
X982500Y1610110D01*
X2262500Y1610110D02*
X2270500Y1610110D01*
X975500Y1609110D02*
X982500Y1609110D01*
X2263500Y1609110D02*
X2270500Y1609110D01*
X975500Y1608110D02*
X982500Y1608110D01*
X2263500Y1608110D02*
X2270500Y1608110D01*
X975500Y1607110D02*
X982500Y1607110D01*
X2263500Y1607110D02*
X2270500Y1607110D01*
X975500Y1606110D02*
X982500Y1606110D01*
X2263500Y1606110D02*
X2270500Y1606110D01*
X975500Y1605110D02*
X982500Y1605110D01*
X2263500Y1605110D02*
X2270500Y1605110D01*
X975500Y1604110D02*
X982500Y1604110D01*
X2263500Y1604110D02*
X2270500Y1604110D01*
X975500Y1603110D02*
X982500Y1603110D01*
X2263500Y1603110D02*
X2270500Y1603110D01*
X975500Y1602110D02*
X982500Y1602110D01*
X2263500Y1602110D02*
X2270500Y1602110D01*
X975500Y1601110D02*
X982500Y1601110D01*
X2263500Y1601110D02*
X2270500Y1601110D01*
X975500Y1600110D02*
X982500Y1600110D01*
X2263500Y1600110D02*
X2270500Y1600110D01*
X975500Y1599110D02*
X982500Y1599110D01*
X2263500Y1599110D02*
X2270500Y1599110D01*
X975500Y1598110D02*
X982500Y1598110D01*
X2263500Y1598110D02*
X2270500Y1598110D01*
X975500Y1597110D02*
X982500Y1597110D01*
X2263500Y1597110D02*
X2270500Y1597110D01*
X975500Y1596110D02*
X982500Y1596110D01*
X2263500Y1596110D02*
X2270500Y1596110D01*
X975500Y1595110D02*
X982500Y1595110D01*
X2263500Y1595110D02*
X2270500Y1595110D01*
X975500Y1594110D02*
X982500Y1594110D01*
X2263500Y1594110D02*
X2270500Y1594110D01*
X975500Y1593110D02*
X982500Y1593110D01*
X2263500Y1593110D02*
X2270500Y1593110D01*
X975500Y1592110D02*
X982500Y1592110D01*
X2263500Y1592110D02*
X2270500Y1592110D01*
X975500Y1591110D02*
X982500Y1591110D01*
X2263500Y1591110D02*
X2270500Y1591110D01*
X975500Y1590110D02*
X982500Y1590110D01*
X2263500Y1590110D02*
X2270500Y1590110D01*
X975500Y1589110D02*
X982500Y1589110D01*
X2263500Y1589110D02*
X2270500Y1589110D01*
X975500Y1588110D02*
X982500Y1588110D01*
X2263500Y1588110D02*
X2270500Y1588110D01*
X975500Y1587110D02*
X982500Y1587110D01*
X2263500Y1587110D02*
X2270500Y1587110D01*
X975500Y1586110D02*
X982500Y1586110D01*
X2263500Y1586110D02*
X2270500Y1586110D01*
X975500Y1585110D02*
X982500Y1585110D01*
X2263500Y1585110D02*
X2270500Y1585110D01*
X975500Y1584110D02*
X982500Y1584110D01*
X2263500Y1584110D02*
X2270500Y1584110D01*
X975500Y1583110D02*
X982500Y1583110D01*
X2263500Y1583110D02*
X2270500Y1583110D01*
X975500Y1582110D02*
X982500Y1582110D01*
X2263500Y1582110D02*
X2270500Y1582110D01*
X975500Y1581110D02*
X982500Y1581110D01*
X2263500Y1581110D02*
X2270500Y1581110D01*
X975500Y1580110D02*
X982500Y1580110D01*
X2263500Y1580110D02*
X2270500Y1580110D01*
X975500Y1579110D02*
X982500Y1579110D01*
X2263500Y1579110D02*
X2270500Y1579110D01*
X975500Y1578110D02*
X982500Y1578110D01*
X2263500Y1578110D02*
X2270500Y1578110D01*
X975500Y1577110D02*
X982500Y1577110D01*
X2263500Y1577110D02*
X2270500Y1577110D01*
X975500Y1576110D02*
X982500Y1576110D01*
X2263500Y1576110D02*
X2270500Y1576110D01*
X975500Y1575110D02*
X982500Y1575110D01*
X2263500Y1575110D02*
X2270500Y1575110D01*
X975500Y1574110D02*
X982500Y1574110D01*
X2263500Y1574110D02*
X2270500Y1574110D01*
X975500Y1573110D02*
X982500Y1573110D01*
X2263500Y1573110D02*
X2270500Y1573110D01*
X975500Y1572110D02*
X982500Y1572110D01*
X2263500Y1572110D02*
X2270500Y1572110D01*
X975500Y1571110D02*
X982500Y1571110D01*
X2263500Y1571110D02*
X2270500Y1571110D01*
X975500Y1570110D02*
X982500Y1570110D01*
X2263500Y1570110D02*
X2270500Y1570110D01*
X975500Y1569110D02*
X982500Y1569110D01*
X2263500Y1569110D02*
X2270500Y1569110D01*
X975500Y1568110D02*
X982500Y1568110D01*
X2263500Y1568110D02*
X2270500Y1568110D01*
X975500Y1567110D02*
X982500Y1567110D01*
X2263500Y1567110D02*
X2270500Y1567110D01*
X975500Y1566110D02*
X982500Y1566110D01*
X2263500Y1566110D02*
X2270500Y1566110D01*
X975500Y1565110D02*
X982500Y1565110D01*
X2263500Y1565110D02*
X2270500Y1565110D01*
X975500Y1564110D02*
X982500Y1564110D01*
X2263500Y1564110D02*
X2270500Y1564110D01*
X975500Y1563110D02*
X982500Y1563110D01*
X2263500Y1563110D02*
X2270500Y1563110D01*
X975500Y1562110D02*
X982500Y1562110D01*
X2263500Y1562110D02*
X2270500Y1562110D01*
X975500Y1561110D02*
X982500Y1561110D01*
X2263500Y1561110D02*
X2270500Y1561110D01*
X975500Y1560110D02*
X982500Y1560110D01*
X2263500Y1560110D02*
X2270500Y1560110D01*
X975500Y1559110D02*
X982500Y1559110D01*
X2263500Y1559110D02*
X2270500Y1559110D01*
X975500Y1558110D02*
X982500Y1558110D01*
X2263500Y1558110D02*
X2270500Y1558110D01*
X975500Y1557110D02*
X982500Y1557110D01*
X2263500Y1557110D02*
X2270500Y1557110D01*
X975500Y1556110D02*
X982500Y1556110D01*
X2263500Y1556110D02*
X2270500Y1556110D01*
X975500Y1555110D02*
X982500Y1555110D01*
X2263500Y1555110D02*
X2270500Y1555110D01*
X975500Y1554110D02*
X982500Y1554110D01*
X2263500Y1554110D02*
X2270500Y1554110D01*
X975500Y1553110D02*
X982500Y1553110D01*
X2263500Y1553110D02*
X2270500Y1553110D01*
X975500Y1552110D02*
X982500Y1552110D01*
X2263500Y1552110D02*
X2270500Y1552110D01*
X975500Y1551110D02*
X982500Y1551110D01*
X2263500Y1551110D02*
X2270500Y1551110D01*
X975500Y1550110D02*
X982500Y1550110D01*
X2263500Y1550110D02*
X2270500Y1550110D01*
X975500Y1549110D02*
X982500Y1549110D01*
X2263500Y1549110D02*
X2270500Y1549110D01*
X975500Y1548110D02*
X982500Y1548110D01*
X2263500Y1548110D02*
X2270500Y1548110D01*
X975500Y1547110D02*
X982500Y1547110D01*
X2263500Y1547110D02*
X2270500Y1547110D01*
X975500Y1546110D02*
X982500Y1546110D01*
X2263500Y1546110D02*
X2270500Y1546110D01*
X975500Y1545110D02*
X982500Y1545110D01*
X2263500Y1545110D02*
X2270500Y1545110D01*
X975500Y1544110D02*
X982500Y1544110D01*
X2263500Y1544110D02*
X2270500Y1544110D01*
X975500Y1543110D02*
X982500Y1543110D01*
X2263500Y1543110D02*
X2270500Y1543110D01*
X975500Y1542110D02*
X982500Y1542110D01*
X2263500Y1542110D02*
X2270500Y1542110D01*
X975500Y1541110D02*
X982500Y1541110D01*
X2263500Y1541110D02*
X2270500Y1541110D01*
X975500Y1540110D02*
X982500Y1540110D01*
X2263500Y1540110D02*
X2270500Y1540110D01*
X975500Y1539110D02*
X982500Y1539110D01*
X2263500Y1539110D02*
X2270500Y1539110D01*
X975500Y1538110D02*
X982500Y1538110D01*
X2263500Y1538110D02*
X2270500Y1538110D01*
X975500Y1537110D02*
X982500Y1537110D01*
X2263500Y1537110D02*
X2270500Y1537110D01*
X975500Y1536110D02*
X982500Y1536110D01*
X2263500Y1536110D02*
X2270500Y1536110D01*
X975500Y1535110D02*
X982500Y1535110D01*
X2263500Y1535110D02*
X2270500Y1535110D01*
X975500Y1534110D02*
X982500Y1534110D01*
X2263500Y1534110D02*
X2270500Y1534110D01*
X975500Y1533110D02*
X982500Y1533110D01*
X2263500Y1533110D02*
X2270500Y1533110D01*
X975500Y1532110D02*
X982500Y1532110D01*
X2263500Y1532110D02*
X2270500Y1532110D01*
X975500Y1531110D02*
X982500Y1531110D01*
X2263500Y1531110D02*
X2270500Y1531110D01*
X975500Y1530110D02*
X982500Y1530110D01*
X2263500Y1530110D02*
X2270500Y1530110D01*
X975500Y1529110D02*
X982500Y1529110D01*
X2263500Y1529110D02*
X2270500Y1529110D01*
X975500Y1528110D02*
X982500Y1528110D01*
X2263500Y1528110D02*
X2270500Y1528110D01*
X975500Y1527110D02*
X982500Y1527110D01*
X2263500Y1527110D02*
X2270500Y1527110D01*
X975500Y1526110D02*
X982500Y1526110D01*
X2263500Y1526110D02*
X2270500Y1526110D01*
X975500Y1525110D02*
X982500Y1525110D01*
X2263500Y1525110D02*
X2270500Y1525110D01*
X975500Y1524110D02*
X982500Y1524110D01*
X2263500Y1524110D02*
X2270500Y1524110D01*
X975500Y1523110D02*
X982500Y1523110D01*
X2263500Y1523110D02*
X2270500Y1523110D01*
X975500Y1522110D02*
X982500Y1522110D01*
X2263500Y1522110D02*
X2270500Y1522110D01*
X975500Y1521110D02*
X982500Y1521110D01*
X2263500Y1521110D02*
X2270500Y1521110D01*
X975500Y1520110D02*
X982500Y1520110D01*
X2263500Y1520110D02*
X2270500Y1520110D01*
X975500Y1519110D02*
X982500Y1519110D01*
X2263500Y1519110D02*
X2270500Y1519110D01*
X975500Y1518110D02*
X982500Y1518110D01*
X2263500Y1518110D02*
X2270500Y1518110D01*
X975500Y1517110D02*
X982500Y1517110D01*
X2263500Y1517110D02*
X2270500Y1517110D01*
X975500Y1516110D02*
X982500Y1516110D01*
X2263500Y1516110D02*
X2270500Y1516110D01*
X975500Y1515110D02*
X982500Y1515110D01*
X2263500Y1515110D02*
X2270500Y1515110D01*
X975500Y1514110D02*
X982500Y1514110D01*
X2263500Y1514110D02*
X2270500Y1514110D01*
X975500Y1513110D02*
X982500Y1513110D01*
X2263500Y1513110D02*
X2270500Y1513110D01*
X975500Y1512110D02*
X982500Y1512110D01*
X2263500Y1512110D02*
X2270500Y1512110D01*
X975500Y1511110D02*
X982500Y1511110D01*
X2263500Y1511110D02*
X2270500Y1511110D01*
X975500Y1510110D02*
X982500Y1510110D01*
X2263500Y1510110D02*
X2270500Y1510110D01*
X975500Y1509110D02*
X982500Y1509110D01*
X2263500Y1509110D02*
X2270500Y1509110D01*
X975500Y1508110D02*
X982500Y1508110D01*
X2263500Y1508110D02*
X2270500Y1508110D01*
X975500Y1507110D02*
X982500Y1507110D01*
X2263500Y1507110D02*
X2270500Y1507110D01*
X975500Y1506110D02*
X982500Y1506110D01*
X2263500Y1506110D02*
X2270500Y1506110D01*
X975500Y1505110D02*
X982500Y1505110D01*
X2263500Y1505110D02*
X2270500Y1505110D01*
X975500Y1504110D02*
X982500Y1504110D01*
X2263500Y1504110D02*
X2270500Y1504110D01*
X975500Y1503110D02*
X982500Y1503110D01*
X2263500Y1503110D02*
X2270500Y1503110D01*
X975500Y1502110D02*
X982500Y1502110D01*
X2263500Y1502110D02*
X2270500Y1502110D01*
X975500Y1501110D02*
X982500Y1501110D01*
X2263500Y1501110D02*
X2270500Y1501110D01*
X975500Y1500110D02*
X982500Y1500110D01*
X2263500Y1500110D02*
X2270500Y1500110D01*
X975500Y1499110D02*
X982500Y1499110D01*
X2263500Y1499110D02*
X2270500Y1499110D01*
X975500Y1498110D02*
X982500Y1498110D01*
X2263500Y1498110D02*
X2270500Y1498110D01*
X975500Y1497110D02*
X982500Y1497110D01*
X2263500Y1497110D02*
X2270500Y1497110D01*
X975500Y1496110D02*
X982500Y1496110D01*
X2263500Y1496110D02*
X2270500Y1496110D01*
X975500Y1495110D02*
X982500Y1495110D01*
X2263500Y1495110D02*
X2270500Y1495110D01*
X975500Y1494110D02*
X982500Y1494110D01*
X2263500Y1494110D02*
X2270500Y1494110D01*
X975500Y1493110D02*
X982500Y1493110D01*
X2263500Y1493110D02*
X2270500Y1493110D01*
X975500Y1492110D02*
X982500Y1492110D01*
X2263500Y1492110D02*
X2270500Y1492110D01*
X975500Y1491110D02*
X982500Y1491110D01*
X2263500Y1491110D02*
X2270500Y1491110D01*
X975500Y1490110D02*
X982500Y1490110D01*
X2263500Y1490110D02*
X2270500Y1490110D01*
X975500Y1489110D02*
X982500Y1489110D01*
X2263500Y1489110D02*
X2270500Y1489110D01*
X975500Y1488110D02*
X982500Y1488110D01*
X2263500Y1488110D02*
X2270500Y1488110D01*
X975500Y1487110D02*
X982500Y1487110D01*
X2263500Y1487110D02*
X2270500Y1487110D01*
X975500Y1486110D02*
X982500Y1486110D01*
X2263500Y1486110D02*
X2270500Y1486110D01*
X975500Y1485110D02*
X982500Y1485110D01*
X2263500Y1485110D02*
X2270500Y1485110D01*
X975500Y1484110D02*
X982500Y1484110D01*
X2263500Y1484110D02*
X2270500Y1484110D01*
X975500Y1483110D02*
X982500Y1483110D01*
X2263500Y1483110D02*
X2270500Y1483110D01*
X975500Y1482110D02*
X982500Y1482110D01*
X2263500Y1482110D02*
X2270500Y1482110D01*
X975500Y1481110D02*
X982500Y1481110D01*
X2263500Y1481110D02*
X2270500Y1481110D01*
X975500Y1480110D02*
X982500Y1480110D01*
X2263500Y1480110D02*
X2270500Y1480110D01*
X729500Y1479110D02*
X752500Y1479110D01*
X777500Y1479110D02*
X785500Y1479110D01*
X808500Y1479110D02*
X816500Y1479110D01*
X831500Y1479110D02*
X858500Y1479110D01*
X884500Y1479110D02*
X902500Y1479110D01*
X942500Y1479110D02*
X960500Y1479110D01*
X975500Y1479110D02*
X982500Y1479110D01*
X989500Y1479110D02*
X1015500Y1479110D01*
X2263500Y1479110D02*
X2270500Y1479110D01*
X729500Y1478110D02*
X755500Y1478110D01*
X777500Y1478110D02*
X786500Y1478110D01*
X808500Y1478110D02*
X816500Y1478110D01*
X831500Y1478110D02*
X860500Y1478110D01*
X883500Y1478110D02*
X902500Y1478110D01*
X941500Y1478110D02*
X961500Y1478110D01*
X975500Y1478110D02*
X982500Y1478110D01*
X988500Y1478110D02*
X1016500Y1478110D01*
X2263500Y1478110D02*
X2270500Y1478110D01*
X729500Y1477110D02*
X756500Y1477110D01*
X777500Y1477110D02*
X786500Y1477110D01*
X807500Y1477110D02*
X817500Y1477110D01*
X831500Y1477110D02*
X861500Y1477110D01*
X883500Y1477110D02*
X902500Y1477110D01*
X940500Y1477110D02*
X961500Y1477110D01*
X975500Y1477110D02*
X982500Y1477110D01*
X987500Y1477110D02*
X1017500Y1477110D01*
X2263500Y1477110D02*
X2270500Y1477110D01*
X729500Y1476110D02*
X758500Y1476110D01*
X777500Y1476110D02*
X787500Y1476110D01*
X807500Y1476110D02*
X817500Y1476110D01*
X831500Y1476110D02*
X862500Y1476110D01*
X883500Y1476110D02*
X902500Y1476110D01*
X940500Y1476110D02*
X961500Y1476110D01*
X975500Y1476110D02*
X982500Y1476110D01*
X986500Y1476110D02*
X1018500Y1476110D01*
X2263500Y1476110D02*
X2270500Y1476110D01*
X729500Y1475110D02*
X759500Y1475110D01*
X777500Y1475110D02*
X787500Y1475110D01*
X806500Y1475110D02*
X817500Y1475110D01*
X831500Y1475110D02*
X863500Y1475110D01*
X883500Y1475110D02*
X902500Y1475110D01*
X940500Y1475110D02*
X961500Y1475110D01*
X975500Y1475110D02*
X982500Y1475110D01*
X986500Y1475110D02*
X1019500Y1475110D01*
X2263500Y1475110D02*
X2270500Y1475110D01*
X729500Y1474110D02*
X759500Y1474110D01*
X777500Y1474110D02*
X788500Y1474110D01*
X806500Y1474110D02*
X817500Y1474110D01*
X831500Y1474110D02*
X864500Y1474110D01*
X884500Y1474110D02*
X902500Y1474110D01*
X940500Y1474110D02*
X961500Y1474110D01*
X975500Y1474110D02*
X982500Y1474110D01*
X986500Y1474110D02*
X1019500Y1474110D01*
X2263500Y1474110D02*
X2270500Y1474110D01*
X729500Y1473110D02*
X760500Y1473110D01*
X777500Y1473110D02*
X788500Y1473110D01*
X805500Y1473110D02*
X817500Y1473110D01*
X831500Y1473110D02*
X864500Y1473110D01*
X885500Y1473110D02*
X902500Y1473110D01*
X940500Y1473110D02*
X961500Y1473110D01*
X975500Y1473110D02*
X982500Y1473110D01*
X985500Y1473110D02*
X1019500Y1473110D01*
X2263500Y1473110D02*
X2270500Y1473110D01*
X729500Y1472110D02*
X735500Y1472110D01*
X752500Y1472110D02*
X761500Y1472110D01*
X777500Y1472110D02*
X789500Y1472110D01*
X805500Y1472110D02*
X817500Y1472110D01*
X831500Y1472110D02*
X837500Y1472110D01*
X857500Y1472110D02*
X864500Y1472110D01*
X896500Y1472110D02*
X902500Y1472110D01*
X940500Y1472110D02*
X946500Y1472110D01*
X955500Y1472110D02*
X961500Y1472110D01*
X975500Y1472110D02*
X982500Y1472110D01*
X985500Y1472110D02*
X991500Y1472110D01*
X1013500Y1472110D02*
X1019500Y1472110D01*
X2263500Y1472110D02*
X2270500Y1472110D01*
X729500Y1471110D02*
X735500Y1471110D01*
X754500Y1471110D02*
X761500Y1471110D01*
X777500Y1471110D02*
X789500Y1471110D01*
X804500Y1471110D02*
X817500Y1471110D01*
X831500Y1471110D02*
X837500Y1471110D01*
X858500Y1471110D02*
X865500Y1471110D01*
X896500Y1471110D02*
X902500Y1471110D01*
X940500Y1471110D02*
X946500Y1471110D01*
X955500Y1471110D02*
X961500Y1471110D01*
X975500Y1471110D02*
X982500Y1471110D01*
X985500Y1471110D02*
X991500Y1471110D01*
X1013500Y1471110D02*
X1019500Y1471110D01*
X2263500Y1471110D02*
X2270500Y1471110D01*
X729500Y1470110D02*
X735500Y1470110D01*
X755500Y1470110D02*
X761500Y1470110D01*
X777500Y1470110D02*
X790500Y1470110D01*
X804500Y1470110D02*
X817500Y1470110D01*
X831500Y1470110D02*
X837500Y1470110D01*
X859500Y1470110D02*
X865500Y1470110D01*
X896500Y1470110D02*
X902500Y1470110D01*
X940500Y1470110D02*
X946500Y1470110D01*
X955500Y1470110D02*
X961500Y1470110D01*
X975500Y1470110D02*
X982500Y1470110D01*
X985500Y1470110D02*
X991500Y1470110D01*
X1013500Y1470110D02*
X1019500Y1470110D01*
X2263500Y1470110D02*
X2270500Y1470110D01*
X729500Y1469110D02*
X735500Y1469110D01*
X755500Y1469110D02*
X762500Y1469110D01*
X777500Y1469110D02*
X790500Y1469110D01*
X803500Y1469110D02*
X817500Y1469110D01*
X831500Y1469110D02*
X837500Y1469110D01*
X859500Y1469110D02*
X865500Y1469110D01*
X896500Y1469110D02*
X902500Y1469110D01*
X940500Y1469110D02*
X946500Y1469110D01*
X955500Y1469110D02*
X961500Y1469110D01*
X975500Y1469110D02*
X982500Y1469110D01*
X985500Y1469110D02*
X991500Y1469110D01*
X1013500Y1469110D02*
X1019500Y1469110D01*
X2263500Y1469110D02*
X2270500Y1469110D01*
X729500Y1468110D02*
X735500Y1468110D01*
X756500Y1468110D02*
X762500Y1468110D01*
X777500Y1468110D02*
X791500Y1468110D01*
X803500Y1468110D02*
X817500Y1468110D01*
X831500Y1468110D02*
X837500Y1468110D01*
X859500Y1468110D02*
X865500Y1468110D01*
X896500Y1468110D02*
X902500Y1468110D01*
X940500Y1468110D02*
X946500Y1468110D01*
X955500Y1468110D02*
X961500Y1468110D01*
X975500Y1468110D02*
X982500Y1468110D01*
X985500Y1468110D02*
X991500Y1468110D01*
X1013500Y1468110D02*
X1019500Y1468110D01*
X2263500Y1468110D02*
X2270500Y1468110D01*
X729500Y1467110D02*
X735500Y1467110D01*
X756500Y1467110D02*
X762500Y1467110D01*
X777500Y1467110D02*
X791500Y1467110D01*
X802500Y1467110D02*
X817500Y1467110D01*
X831500Y1467110D02*
X837500Y1467110D01*
X859500Y1467110D02*
X865500Y1467110D01*
X896500Y1467110D02*
X902500Y1467110D01*
X940500Y1467110D02*
X946500Y1467110D01*
X955500Y1467110D02*
X961500Y1467110D01*
X975500Y1467110D02*
X982500Y1467110D01*
X985500Y1467110D02*
X991500Y1467110D01*
X1013500Y1467110D02*
X1019500Y1467110D01*
X2263500Y1467110D02*
X2270500Y1467110D01*
X729500Y1466110D02*
X735500Y1466110D01*
X756500Y1466110D02*
X762500Y1466110D01*
X777500Y1466110D02*
X783500Y1466110D01*
X785500Y1466110D02*
X792500Y1466110D01*
X802500Y1466110D02*
X817500Y1466110D01*
X831500Y1466110D02*
X837500Y1466110D01*
X859500Y1466110D02*
X865500Y1466110D01*
X896500Y1466110D02*
X902500Y1466110D01*
X940500Y1466110D02*
X946500Y1466110D01*
X955500Y1466110D02*
X961500Y1466110D01*
X975500Y1466110D02*
X982500Y1466110D01*
X985500Y1466110D02*
X991500Y1466110D01*
X1013500Y1466110D02*
X1019500Y1466110D01*
X2263500Y1466110D02*
X2270500Y1466110D01*
X729500Y1465110D02*
X735500Y1465110D01*
X756500Y1465110D02*
X762500Y1465110D01*
X777500Y1465110D02*
X783500Y1465110D01*
X785500Y1465110D02*
X792500Y1465110D01*
X801500Y1465110D02*
X808500Y1465110D01*
X810500Y1465110D02*
X817500Y1465110D01*
X831500Y1465110D02*
X837500Y1465110D01*
X859500Y1465110D02*
X865500Y1465110D01*
X896500Y1465110D02*
X902500Y1465110D01*
X940500Y1465110D02*
X946500Y1465110D01*
X955500Y1465110D02*
X961500Y1465110D01*
X975500Y1465110D02*
X982500Y1465110D01*
X985500Y1465110D02*
X991500Y1465110D01*
X1013500Y1465110D02*
X1019500Y1465110D01*
X2263500Y1465110D02*
X2270500Y1465110D01*
X729500Y1464110D02*
X735500Y1464110D01*
X756500Y1464110D02*
X762500Y1464110D01*
X777500Y1464110D02*
X783500Y1464110D01*
X786500Y1464110D02*
X793500Y1464110D01*
X801500Y1464110D02*
X808500Y1464110D01*
X810500Y1464110D02*
X817500Y1464110D01*
X831500Y1464110D02*
X837500Y1464110D01*
X859500Y1464110D02*
X865500Y1464110D01*
X896500Y1464110D02*
X902500Y1464110D01*
X940500Y1464110D02*
X946500Y1464110D01*
X955500Y1464110D02*
X961500Y1464110D01*
X975500Y1464110D02*
X982500Y1464110D01*
X985500Y1464110D02*
X991500Y1464110D01*
X1013500Y1464110D02*
X1019500Y1464110D01*
X2263500Y1464110D02*
X2270500Y1464110D01*
X729500Y1463110D02*
X735500Y1463110D01*
X756500Y1463110D02*
X762500Y1463110D01*
X777500Y1463110D02*
X783500Y1463110D01*
X786500Y1463110D02*
X793500Y1463110D01*
X800500Y1463110D02*
X807500Y1463110D01*
X810500Y1463110D02*
X817500Y1463110D01*
X831500Y1463110D02*
X837500Y1463110D01*
X859500Y1463110D02*
X865500Y1463110D01*
X896500Y1463110D02*
X902500Y1463110D01*
X940500Y1463110D02*
X946500Y1463110D01*
X955500Y1463110D02*
X961500Y1463110D01*
X975500Y1463110D02*
X982500Y1463110D01*
X985500Y1463110D02*
X991500Y1463110D01*
X1013500Y1463110D02*
X1019500Y1463110D01*
X2263500Y1463110D02*
X2270500Y1463110D01*
X729500Y1462110D02*
X735500Y1462110D01*
X756500Y1462110D02*
X762500Y1462110D01*
X777500Y1462110D02*
X783500Y1462110D01*
X787500Y1462110D02*
X794500Y1462110D01*
X800500Y1462110D02*
X807500Y1462110D01*
X810500Y1462110D02*
X817500Y1462110D01*
X831500Y1462110D02*
X837500Y1462110D01*
X859500Y1462110D02*
X865500Y1462110D01*
X896500Y1462110D02*
X902500Y1462110D01*
X940500Y1462110D02*
X946500Y1462110D01*
X955500Y1462110D02*
X961500Y1462110D01*
X975500Y1462110D02*
X982500Y1462110D01*
X985500Y1462110D02*
X991500Y1462110D01*
X1013500Y1462110D02*
X1019500Y1462110D01*
X2263500Y1462110D02*
X2270500Y1462110D01*
X729500Y1461110D02*
X735500Y1461110D01*
X756500Y1461110D02*
X762500Y1461110D01*
X777500Y1461110D02*
X783500Y1461110D01*
X787500Y1461110D02*
X794500Y1461110D01*
X799500Y1461110D02*
X806500Y1461110D01*
X810500Y1461110D02*
X817500Y1461110D01*
X831500Y1461110D02*
X837500Y1461110D01*
X859500Y1461110D02*
X865500Y1461110D01*
X896500Y1461110D02*
X902500Y1461110D01*
X940500Y1461110D02*
X946500Y1461110D01*
X955500Y1461110D02*
X961500Y1461110D01*
X975500Y1461110D02*
X982500Y1461110D01*
X985500Y1461110D02*
X991500Y1461110D01*
X1013500Y1461110D02*
X1019500Y1461110D01*
X2263500Y1461110D02*
X2270500Y1461110D01*
X729500Y1460110D02*
X735500Y1460110D01*
X755500Y1460110D02*
X762500Y1460110D01*
X777500Y1460110D02*
X783500Y1460110D01*
X788500Y1460110D02*
X794500Y1460110D01*
X799500Y1460110D02*
X806500Y1460110D01*
X810500Y1460110D02*
X817500Y1460110D01*
X831500Y1460110D02*
X837500Y1460110D01*
X859500Y1460110D02*
X865500Y1460110D01*
X896500Y1460110D02*
X902500Y1460110D01*
X940500Y1460110D02*
X946500Y1460110D01*
X955500Y1460110D02*
X961500Y1460110D01*
X975500Y1460110D02*
X982500Y1460110D01*
X985500Y1460110D02*
X991500Y1460110D01*
X1013500Y1460110D02*
X1019500Y1460110D01*
X2263500Y1460110D02*
X2270500Y1460110D01*
X729500Y1459110D02*
X735500Y1459110D01*
X755500Y1459110D02*
X761500Y1459110D01*
X777500Y1459110D02*
X783500Y1459110D01*
X788500Y1459110D02*
X795500Y1459110D01*
X798500Y1459110D02*
X805500Y1459110D01*
X810500Y1459110D02*
X817500Y1459110D01*
X831500Y1459110D02*
X837500Y1459110D01*
X859500Y1459110D02*
X865500Y1459110D01*
X896500Y1459110D02*
X902500Y1459110D01*
X940500Y1459110D02*
X946500Y1459110D01*
X955500Y1459110D02*
X961500Y1459110D01*
X975500Y1459110D02*
X982500Y1459110D01*
X985500Y1459110D02*
X991500Y1459110D01*
X1013500Y1459110D02*
X1019500Y1459110D01*
X2263500Y1459110D02*
X2270500Y1459110D01*
X729500Y1458110D02*
X735500Y1458110D01*
X754500Y1458110D02*
X761500Y1458110D01*
X777500Y1458110D02*
X783500Y1458110D01*
X789500Y1458110D02*
X795500Y1458110D01*
X798500Y1458110D02*
X805500Y1458110D01*
X810500Y1458110D02*
X817500Y1458110D01*
X831500Y1458110D02*
X837500Y1458110D01*
X859500Y1458110D02*
X865500Y1458110D01*
X896500Y1458110D02*
X902500Y1458110D01*
X940500Y1458110D02*
X946500Y1458110D01*
X955500Y1458110D02*
X961500Y1458110D01*
X975500Y1458110D02*
X982500Y1458110D01*
X985500Y1458110D02*
X991500Y1458110D01*
X1013500Y1458110D02*
X1019500Y1458110D01*
X2263500Y1458110D02*
X2270500Y1458110D01*
X729500Y1457110D02*
X735500Y1457110D01*
X752500Y1457110D02*
X761500Y1457110D01*
X777500Y1457110D02*
X783500Y1457110D01*
X789500Y1457110D02*
X804500Y1457110D01*
X810500Y1457110D02*
X817500Y1457110D01*
X831500Y1457110D02*
X837500Y1457110D01*
X859500Y1457110D02*
X865500Y1457110D01*
X896500Y1457110D02*
X902500Y1457110D01*
X940500Y1457110D02*
X946500Y1457110D01*
X955500Y1457110D02*
X961500Y1457110D01*
X975500Y1457110D02*
X982500Y1457110D01*
X985500Y1457110D02*
X991500Y1457110D01*
X1013500Y1457110D02*
X1019500Y1457110D01*
X2263500Y1457110D02*
X2270500Y1457110D01*
X729500Y1456110D02*
X760500Y1456110D01*
X777500Y1456110D02*
X783500Y1456110D01*
X790500Y1456110D02*
X804500Y1456110D01*
X810500Y1456110D02*
X817500Y1456110D01*
X831500Y1456110D02*
X837500Y1456110D01*
X859500Y1456110D02*
X865500Y1456110D01*
X896500Y1456110D02*
X902500Y1456110D01*
X939500Y1456110D02*
X962500Y1456110D01*
X975500Y1456110D02*
X982500Y1456110D01*
X985500Y1456110D02*
X991500Y1456110D01*
X1013500Y1456110D02*
X1019500Y1456110D01*
X2263500Y1456110D02*
X2270500Y1456110D01*
X729500Y1455110D02*
X759500Y1455110D01*
X777500Y1455110D02*
X783500Y1455110D01*
X790500Y1455110D02*
X803500Y1455110D01*
X810500Y1455110D02*
X817500Y1455110D01*
X831500Y1455110D02*
X837500Y1455110D01*
X858500Y1455110D02*
X865500Y1455110D01*
X896500Y1455110D02*
X902500Y1455110D01*
X937500Y1455110D02*
X965500Y1455110D01*
X975500Y1455110D02*
X982500Y1455110D01*
X985500Y1455110D02*
X991500Y1455110D01*
X1013500Y1455110D02*
X1019500Y1455110D01*
X2263500Y1455110D02*
X2270500Y1455110D01*
X729500Y1454110D02*
X759500Y1454110D01*
X777500Y1454110D02*
X783500Y1454110D01*
X791500Y1454110D02*
X803500Y1454110D01*
X810500Y1454110D02*
X817500Y1454110D01*
X831500Y1454110D02*
X837500Y1454110D01*
X857500Y1454110D02*
X864500Y1454110D01*
X896500Y1454110D02*
X902500Y1454110D01*
X936500Y1454110D02*
X966500Y1454110D01*
X975500Y1454110D02*
X982500Y1454110D01*
X985500Y1454110D02*
X991500Y1454110D01*
X1013500Y1454110D02*
X1019500Y1454110D01*
X2263500Y1454110D02*
X2270500Y1454110D01*
X729500Y1453110D02*
X758500Y1453110D01*
X777500Y1453110D02*
X783500Y1453110D01*
X791500Y1453110D02*
X802500Y1453110D01*
X810500Y1453110D02*
X817500Y1453110D01*
X831500Y1453110D02*
X864500Y1453110D01*
X896500Y1453110D02*
X902500Y1453110D01*
X935500Y1453110D02*
X967500Y1453110D01*
X975500Y1453110D02*
X982500Y1453110D01*
X985500Y1453110D02*
X991500Y1453110D01*
X1013500Y1453110D02*
X1019500Y1453110D01*
X2263500Y1453110D02*
X2270500Y1453110D01*
X729500Y1452110D02*
X758500Y1452110D01*
X777500Y1452110D02*
X783500Y1452110D01*
X791500Y1452110D02*
X802500Y1452110D01*
X810500Y1452110D02*
X817500Y1452110D01*
X831500Y1452110D02*
X864500Y1452110D01*
X896500Y1452110D02*
X902500Y1452110D01*
X935500Y1452110D02*
X967500Y1452110D01*
X975500Y1452110D02*
X982500Y1452110D01*
X985500Y1452110D02*
X991500Y1452110D01*
X1013500Y1452110D02*
X1019500Y1452110D01*
X2263500Y1452110D02*
X2270500Y1452110D01*
X729500Y1451110D02*
X759500Y1451110D01*
X777500Y1451110D02*
X783500Y1451110D01*
X792500Y1451110D02*
X801500Y1451110D01*
X810500Y1451110D02*
X817500Y1451110D01*
X831500Y1451110D02*
X863500Y1451110D01*
X896500Y1451110D02*
X902500Y1451110D01*
X934500Y1451110D02*
X967500Y1451110D01*
X975500Y1451110D02*
X982500Y1451110D01*
X985500Y1451110D02*
X991500Y1451110D01*
X1013500Y1451110D02*
X1019500Y1451110D01*
X2263500Y1451110D02*
X2270500Y1451110D01*
X729500Y1450110D02*
X760500Y1450110D01*
X777500Y1450110D02*
X783500Y1450110D01*
X792500Y1450110D02*
X801500Y1450110D01*
X810500Y1450110D02*
X817500Y1450110D01*
X831500Y1450110D02*
X862500Y1450110D01*
X896500Y1450110D02*
X902500Y1450110D01*
X934500Y1450110D02*
X968500Y1450110D01*
X975500Y1450110D02*
X982500Y1450110D01*
X985500Y1450110D02*
X991500Y1450110D01*
X1013500Y1450110D02*
X1019500Y1450110D01*
X2263500Y1450110D02*
X2270500Y1450110D01*
X729500Y1449110D02*
X735500Y1449110D01*
X750500Y1449110D02*
X760500Y1449110D01*
X777500Y1449110D02*
X783500Y1449110D01*
X793500Y1449110D02*
X800500Y1449110D01*
X810500Y1449110D02*
X817500Y1449110D01*
X831500Y1449110D02*
X861500Y1449110D01*
X896500Y1449110D02*
X902500Y1449110D01*
X934500Y1449110D02*
X940500Y1449110D01*
X961500Y1449110D02*
X968500Y1449110D01*
X975500Y1449110D02*
X982500Y1449110D01*
X985500Y1449110D02*
X991500Y1449110D01*
X1013500Y1449110D02*
X1019500Y1449110D01*
X2263500Y1449110D02*
X2270500Y1449110D01*
X729500Y1448110D02*
X735500Y1448110D01*
X753500Y1448110D02*
X761500Y1448110D01*
X777500Y1448110D02*
X783500Y1448110D01*
X793500Y1448110D02*
X800500Y1448110D01*
X810500Y1448110D02*
X817500Y1448110D01*
X831500Y1448110D02*
X860500Y1448110D01*
X896500Y1448110D02*
X902500Y1448110D01*
X934500Y1448110D02*
X940500Y1448110D01*
X962500Y1448110D02*
X968500Y1448110D01*
X975500Y1448110D02*
X982500Y1448110D01*
X985500Y1448110D02*
X991500Y1448110D01*
X1013500Y1448110D02*
X1019500Y1448110D01*
X2263500Y1448110D02*
X2270500Y1448110D01*
X729500Y1447110D02*
X735500Y1447110D01*
X754500Y1447110D02*
X761500Y1447110D01*
X777500Y1447110D02*
X783500Y1447110D01*
X794500Y1447110D02*
X799500Y1447110D01*
X810500Y1447110D02*
X817500Y1447110D01*
X831500Y1447110D02*
X858500Y1447110D01*
X896500Y1447110D02*
X902500Y1447110D01*
X934500Y1447110D02*
X940500Y1447110D01*
X962500Y1447110D02*
X968500Y1447110D01*
X975500Y1447110D02*
X982500Y1447110D01*
X985500Y1447110D02*
X991500Y1447110D01*
X1013500Y1447110D02*
X1019500Y1447110D01*
X2263500Y1447110D02*
X2270500Y1447110D01*
X729500Y1446110D02*
X735500Y1446110D01*
X755500Y1446110D02*
X762500Y1446110D01*
X777500Y1446110D02*
X783500Y1446110D01*
X795500Y1446110D02*
X799500Y1446110D01*
X810500Y1446110D02*
X817500Y1446110D01*
X831500Y1446110D02*
X838500Y1446110D01*
X896500Y1446110D02*
X902500Y1446110D01*
X912500Y1446110D02*
X915500Y1446110D01*
X934500Y1446110D02*
X940500Y1446110D01*
X962500Y1446110D02*
X968500Y1446110D01*
X975500Y1446110D02*
X982500Y1446110D01*
X985500Y1446110D02*
X991500Y1446110D01*
X1013500Y1446110D02*
X1019500Y1446110D01*
X2263500Y1446110D02*
X2270500Y1446110D01*
X729500Y1445110D02*
X735500Y1445110D01*
X755500Y1445110D02*
X762500Y1445110D01*
X777500Y1445110D02*
X783500Y1445110D01*
X795500Y1445110D02*
X798500Y1445110D01*
X810500Y1445110D02*
X817500Y1445110D01*
X831500Y1445110D02*
X837500Y1445110D01*
X896500Y1445110D02*
X902500Y1445110D01*
X911500Y1445110D02*
X916500Y1445110D01*
X934500Y1445110D02*
X940500Y1445110D01*
X962500Y1445110D02*
X968500Y1445110D01*
X975500Y1445110D02*
X982500Y1445110D01*
X985500Y1445110D02*
X991500Y1445110D01*
X1013500Y1445110D02*
X1019500Y1445110D01*
X2263500Y1445110D02*
X2270500Y1445110D01*
X729500Y1444110D02*
X735500Y1444110D01*
X756500Y1444110D02*
X762500Y1444110D01*
X777500Y1444110D02*
X783500Y1444110D01*
X810500Y1444110D02*
X817500Y1444110D01*
X831500Y1444110D02*
X837500Y1444110D01*
X896500Y1444110D02*
X902500Y1444110D01*
X910500Y1444110D02*
X916500Y1444110D01*
X934500Y1444110D02*
X940500Y1444110D01*
X962500Y1444110D02*
X968500Y1444110D01*
X975500Y1444110D02*
X982500Y1444110D01*
X985500Y1444110D02*
X991500Y1444110D01*
X1013500Y1444110D02*
X1019500Y1444110D01*
X2263500Y1444110D02*
X2270500Y1444110D01*
X729500Y1443110D02*
X735500Y1443110D01*
X756500Y1443110D02*
X762500Y1443110D01*
X777500Y1443110D02*
X783500Y1443110D01*
X810500Y1443110D02*
X817500Y1443110D01*
X831500Y1443110D02*
X837500Y1443110D01*
X896500Y1443110D02*
X902500Y1443110D01*
X910500Y1443110D02*
X916500Y1443110D01*
X934500Y1443110D02*
X940500Y1443110D01*
X962500Y1443110D02*
X968500Y1443110D01*
X975500Y1443110D02*
X982500Y1443110D01*
X985500Y1443110D02*
X991500Y1443110D01*
X1013500Y1443110D02*
X1019500Y1443110D01*
X2263500Y1443110D02*
X2270500Y1443110D01*
X729500Y1442110D02*
X735500Y1442110D01*
X756500Y1442110D02*
X762500Y1442110D01*
X777500Y1442110D02*
X783500Y1442110D01*
X810500Y1442110D02*
X817500Y1442110D01*
X831500Y1442110D02*
X837500Y1442110D01*
X896500Y1442110D02*
X902500Y1442110D01*
X910500Y1442110D02*
X916500Y1442110D01*
X934500Y1442110D02*
X940500Y1442110D01*
X962500Y1442110D02*
X968500Y1442110D01*
X975500Y1442110D02*
X982500Y1442110D01*
X985500Y1442110D02*
X991500Y1442110D01*
X1013500Y1442110D02*
X1019500Y1442110D01*
X2263500Y1442110D02*
X2270500Y1442110D01*
X729500Y1441110D02*
X735500Y1441110D01*
X756500Y1441110D02*
X762500Y1441110D01*
X777500Y1441110D02*
X783500Y1441110D01*
X810500Y1441110D02*
X817500Y1441110D01*
X831500Y1441110D02*
X837500Y1441110D01*
X896500Y1441110D02*
X902500Y1441110D01*
X910500Y1441110D02*
X916500Y1441110D01*
X934500Y1441110D02*
X940500Y1441110D01*
X962500Y1441110D02*
X968500Y1441110D01*
X975500Y1441110D02*
X982500Y1441110D01*
X985500Y1441110D02*
X991500Y1441110D01*
X1013500Y1441110D02*
X1019500Y1441110D01*
X2263500Y1441110D02*
X2270500Y1441110D01*
X729500Y1440110D02*
X735500Y1440110D01*
X756500Y1440110D02*
X762500Y1440110D01*
X777500Y1440110D02*
X783500Y1440110D01*
X810500Y1440110D02*
X817500Y1440110D01*
X831500Y1440110D02*
X837500Y1440110D01*
X896500Y1440110D02*
X902500Y1440110D01*
X910500Y1440110D02*
X916500Y1440110D01*
X934500Y1440110D02*
X940500Y1440110D01*
X962500Y1440110D02*
X968500Y1440110D01*
X975500Y1440110D02*
X982500Y1440110D01*
X985500Y1440110D02*
X991500Y1440110D01*
X1013500Y1440110D02*
X1019500Y1440110D01*
X2263500Y1440110D02*
X2270500Y1440110D01*
X729500Y1439110D02*
X735500Y1439110D01*
X756500Y1439110D02*
X762500Y1439110D01*
X777500Y1439110D02*
X783500Y1439110D01*
X810500Y1439110D02*
X817500Y1439110D01*
X831500Y1439110D02*
X837500Y1439110D01*
X896500Y1439110D02*
X902500Y1439110D01*
X910500Y1439110D02*
X916500Y1439110D01*
X934500Y1439110D02*
X940500Y1439110D01*
X962500Y1439110D02*
X968500Y1439110D01*
X975500Y1439110D02*
X982500Y1439110D01*
X985500Y1439110D02*
X991500Y1439110D01*
X1013500Y1439110D02*
X1019500Y1439110D01*
X2263500Y1439110D02*
X2270500Y1439110D01*
X729500Y1438110D02*
X735500Y1438110D01*
X756500Y1438110D02*
X762500Y1438110D01*
X777500Y1438110D02*
X783500Y1438110D01*
X810500Y1438110D02*
X817500Y1438110D01*
X831500Y1438110D02*
X837500Y1438110D01*
X896500Y1438110D02*
X902500Y1438110D01*
X910500Y1438110D02*
X916500Y1438110D01*
X934500Y1438110D02*
X940500Y1438110D01*
X962500Y1438110D02*
X968500Y1438110D01*
X975500Y1438110D02*
X982500Y1438110D01*
X985500Y1438110D02*
X991500Y1438110D01*
X1013500Y1438110D02*
X1019500Y1438110D01*
X2263500Y1438110D02*
X2270500Y1438110D01*
X729500Y1437110D02*
X735500Y1437110D01*
X756500Y1437110D02*
X762500Y1437110D01*
X777500Y1437110D02*
X783500Y1437110D01*
X810500Y1437110D02*
X817500Y1437110D01*
X831500Y1437110D02*
X837500Y1437110D01*
X896500Y1437110D02*
X902500Y1437110D01*
X910500Y1437110D02*
X916500Y1437110D01*
X934500Y1437110D02*
X940500Y1437110D01*
X962500Y1437110D02*
X968500Y1437110D01*
X975500Y1437110D02*
X982500Y1437110D01*
X985500Y1437110D02*
X991500Y1437110D01*
X1013500Y1437110D02*
X1019500Y1437110D01*
X2263500Y1437110D02*
X2270500Y1437110D01*
X729500Y1436110D02*
X735500Y1436110D01*
X755500Y1436110D02*
X762500Y1436110D01*
X777500Y1436110D02*
X783500Y1436110D01*
X810500Y1436110D02*
X817500Y1436110D01*
X831500Y1436110D02*
X837500Y1436110D01*
X896500Y1436110D02*
X902500Y1436110D01*
X910500Y1436110D02*
X916500Y1436110D01*
X934500Y1436110D02*
X940500Y1436110D01*
X962500Y1436110D02*
X968500Y1436110D01*
X975500Y1436110D02*
X982500Y1436110D01*
X985500Y1436110D02*
X991500Y1436110D01*
X1013500Y1436110D02*
X1019500Y1436110D01*
X2263500Y1436110D02*
X2270500Y1436110D01*
X729500Y1435110D02*
X735500Y1435110D01*
X754500Y1435110D02*
X761500Y1435110D01*
X777500Y1435110D02*
X783500Y1435110D01*
X810500Y1435110D02*
X817500Y1435110D01*
X831500Y1435110D02*
X837500Y1435110D01*
X896500Y1435110D02*
X902500Y1435110D01*
X910500Y1435110D02*
X916500Y1435110D01*
X934500Y1435110D02*
X940500Y1435110D01*
X962500Y1435110D02*
X968500Y1435110D01*
X975500Y1435110D02*
X982500Y1435110D01*
X985500Y1435110D02*
X991500Y1435110D01*
X1013500Y1435110D02*
X1019500Y1435110D01*
X2263500Y1435110D02*
X2270500Y1435110D01*
X729500Y1434110D02*
X735500Y1434110D01*
X753500Y1434110D02*
X761500Y1434110D01*
X777500Y1434110D02*
X783500Y1434110D01*
X810500Y1434110D02*
X817500Y1434110D01*
X831500Y1434110D02*
X837500Y1434110D01*
X896500Y1434110D02*
X902500Y1434110D01*
X910500Y1434110D02*
X916500Y1434110D01*
X934500Y1434110D02*
X940500Y1434110D01*
X962500Y1434110D02*
X968500Y1434110D01*
X975500Y1434110D02*
X982500Y1434110D01*
X985500Y1434110D02*
X991500Y1434110D01*
X1013500Y1434110D02*
X1019500Y1434110D01*
X2263500Y1434110D02*
X2270500Y1434110D01*
X729500Y1433110D02*
X735500Y1433110D01*
X751500Y1433110D02*
X760500Y1433110D01*
X777500Y1433110D02*
X783500Y1433110D01*
X810500Y1433110D02*
X817500Y1433110D01*
X831500Y1433110D02*
X837500Y1433110D01*
X896500Y1433110D02*
X902500Y1433110D01*
X910500Y1433110D02*
X916500Y1433110D01*
X934500Y1433110D02*
X940500Y1433110D01*
X962500Y1433110D02*
X968500Y1433110D01*
X975500Y1433110D02*
X982500Y1433110D01*
X985500Y1433110D02*
X991500Y1433110D01*
X1013500Y1433110D02*
X1019500Y1433110D01*
X2263500Y1433110D02*
X2270500Y1433110D01*
X729500Y1432110D02*
X760500Y1432110D01*
X777500Y1432110D02*
X783500Y1432110D01*
X810500Y1432110D02*
X817500Y1432110D01*
X831500Y1432110D02*
X837500Y1432110D01*
X884500Y1432110D02*
X916500Y1432110D01*
X934500Y1432110D02*
X968500Y1432110D01*
X975500Y1432110D02*
X982500Y1432110D01*
X985500Y1432110D02*
X1019500Y1432110D01*
X2263500Y1432110D02*
X2270500Y1432110D01*
X729500Y1431110D02*
X759500Y1431110D01*
X777500Y1431110D02*
X783500Y1431110D01*
X810500Y1431110D02*
X817500Y1431110D01*
X831500Y1431110D02*
X837500Y1431110D01*
X883500Y1431110D02*
X916500Y1431110D01*
X934500Y1431110D02*
X967500Y1431110D01*
X975500Y1431110D02*
X982500Y1431110D01*
X986500Y1431110D02*
X1019500Y1431110D01*
X2263500Y1431110D02*
X2270500Y1431110D01*
X729500Y1430110D02*
X758500Y1430110D01*
X777500Y1430110D02*
X783500Y1430110D01*
X810500Y1430110D02*
X817500Y1430110D01*
X831500Y1430110D02*
X837500Y1430110D01*
X883500Y1430110D02*
X916500Y1430110D01*
X935500Y1430110D02*
X967500Y1430110D01*
X975500Y1430110D02*
X982500Y1430110D01*
X986500Y1430110D02*
X1018500Y1430110D01*
X2263500Y1430110D02*
X2270500Y1430110D01*
X729500Y1429110D02*
X757500Y1429110D01*
X777500Y1429110D02*
X783500Y1429110D01*
X811500Y1429110D02*
X816500Y1429110D01*
X831500Y1429110D02*
X837500Y1429110D01*
X883500Y1429110D02*
X916500Y1429110D01*
X935500Y1429110D02*
X967500Y1429110D01*
X975500Y1429110D02*
X982500Y1429110D01*
X986500Y1429110D02*
X1018500Y1429110D01*
X2263500Y1429110D02*
X2270500Y1429110D01*
X729500Y1428110D02*
X756500Y1428110D01*
X777500Y1428110D02*
X783500Y1428110D01*
X811500Y1428110D02*
X816500Y1428110D01*
X832500Y1428110D02*
X837500Y1428110D01*
X883500Y1428110D02*
X916500Y1428110D01*
X936500Y1428110D02*
X966500Y1428110D01*
X975500Y1428110D02*
X982500Y1428110D01*
X987500Y1428110D02*
X1017500Y1428110D01*
X2263500Y1428110D02*
X2270500Y1428110D01*
X729500Y1427110D02*
X754500Y1427110D01*
X778500Y1427110D02*
X782500Y1427110D01*
X811500Y1427110D02*
X816500Y1427110D01*
X832500Y1427110D02*
X837500Y1427110D01*
X883500Y1427110D02*
X915500Y1427110D01*
X937500Y1427110D02*
X965500Y1427110D01*
X975500Y1427110D02*
X982500Y1427110D01*
X988500Y1427110D02*
X1016500Y1427110D01*
X2263500Y1427110D02*
X2270500Y1427110D01*
X729500Y1426110D02*
X751500Y1426110D01*
X779500Y1426110D02*
X781500Y1426110D01*
X812500Y1426110D02*
X815500Y1426110D01*
X833500Y1426110D02*
X835500Y1426110D01*
X885500Y1426110D02*
X914500Y1426110D01*
X939500Y1426110D02*
X963500Y1426110D01*
X975500Y1426110D02*
X982500Y1426110D01*
X990500Y1426110D02*
X1014500Y1426110D01*
X2263500Y1426110D02*
X2270500Y1426110D01*
X975500Y1425110D02*
X982500Y1425110D01*
X2263500Y1425110D02*
X2270500Y1425110D01*
X975500Y1424110D02*
X982500Y1424110D01*
X2263500Y1424110D02*
X2270500Y1424110D01*
X975500Y1423110D02*
X982500Y1423110D01*
X2263500Y1423110D02*
X2270500Y1423110D01*
X975500Y1422110D02*
X982500Y1422110D01*
X2263500Y1422110D02*
X2270500Y1422110D01*
X975500Y1421110D02*
X982500Y1421110D01*
X2263500Y1421110D02*
X2270500Y1421110D01*
X975500Y1420110D02*
X982500Y1420110D01*
X2263500Y1420110D02*
X2270500Y1420110D01*
X975500Y1419110D02*
X982500Y1419110D01*
X2263500Y1419110D02*
X2270500Y1419110D01*
X975500Y1418110D02*
X982500Y1418110D01*
X2263500Y1418110D02*
X2270500Y1418110D01*
X975500Y1417110D02*
X982500Y1417110D01*
X2263500Y1417110D02*
X2270500Y1417110D01*
X975500Y1416110D02*
X982500Y1416110D01*
X2263500Y1416110D02*
X2270500Y1416110D01*
X975500Y1415110D02*
X982500Y1415110D01*
X2263500Y1415110D02*
X2270500Y1415110D01*
X975500Y1414110D02*
X982500Y1414110D01*
X2263500Y1414110D02*
X2270500Y1414110D01*
X975500Y1413110D02*
X982500Y1413110D01*
X2263500Y1413110D02*
X2270500Y1413110D01*
X975500Y1412110D02*
X982500Y1412110D01*
X2263500Y1412110D02*
X2270500Y1412110D01*
X975500Y1411110D02*
X982500Y1411110D01*
X2263500Y1411110D02*
X2270500Y1411110D01*
X975500Y1410110D02*
X982500Y1410110D01*
X2263500Y1410110D02*
X2270500Y1410110D01*
X975500Y1409110D02*
X982500Y1409110D01*
X2263500Y1409110D02*
X2270500Y1409110D01*
X975500Y1408110D02*
X982500Y1408110D01*
X2263500Y1408110D02*
X2270500Y1408110D01*
X975500Y1407110D02*
X982500Y1407110D01*
X2263500Y1407110D02*
X2270500Y1407110D01*
X975500Y1406110D02*
X982500Y1406110D01*
X2263500Y1406110D02*
X2270500Y1406110D01*
X975500Y1405110D02*
X982500Y1405110D01*
X2263500Y1405110D02*
X2270500Y1405110D01*
X975500Y1404110D02*
X982500Y1404110D01*
X2263500Y1404110D02*
X2270500Y1404110D01*
X975500Y1403110D02*
X982500Y1403110D01*
X2263500Y1403110D02*
X2270500Y1403110D01*
X975500Y1402110D02*
X982500Y1402110D01*
X2263500Y1402110D02*
X2270500Y1402110D01*
X975500Y1401110D02*
X982500Y1401110D01*
X2263500Y1401110D02*
X2270500Y1401110D01*
X975500Y1400110D02*
X982500Y1400110D01*
X2263500Y1400110D02*
X2270500Y1400110D01*
X975500Y1399110D02*
X982500Y1399110D01*
X2263500Y1399110D02*
X2270500Y1399110D01*
X975500Y1398110D02*
X982500Y1398110D01*
X2263500Y1398110D02*
X2270500Y1398110D01*
X975500Y1397110D02*
X982500Y1397110D01*
X2263500Y1397110D02*
X2270500Y1397110D01*
X975500Y1396110D02*
X982500Y1396110D01*
X2263500Y1396110D02*
X2270500Y1396110D01*
X975500Y1395110D02*
X982500Y1395110D01*
X2263500Y1395110D02*
X2270500Y1395110D01*
X975500Y1394110D02*
X982500Y1394110D01*
X2263500Y1394110D02*
X2270500Y1394110D01*
X975500Y1393110D02*
X982500Y1393110D01*
X2263500Y1393110D02*
X2270500Y1393110D01*
X975500Y1392110D02*
X982500Y1392110D01*
X2263500Y1392110D02*
X2270500Y1392110D01*
X975500Y1391110D02*
X982500Y1391110D01*
X2263500Y1391110D02*
X2270500Y1391110D01*
X975500Y1390110D02*
X982500Y1390110D01*
X2263500Y1390110D02*
X2270500Y1390110D01*
X975500Y1389110D02*
X982500Y1389110D01*
X2263500Y1389110D02*
X2270500Y1389110D01*
X975500Y1388110D02*
X982500Y1388110D01*
X2263500Y1388110D02*
X2270500Y1388110D01*
X975500Y1387110D02*
X982500Y1387110D01*
X2263500Y1387110D02*
X2270500Y1387110D01*
X975500Y1386110D02*
X982500Y1386110D01*
X2263500Y1386110D02*
X2270500Y1386110D01*
X975500Y1385110D02*
X982500Y1385110D01*
X2263500Y1385110D02*
X2270500Y1385110D01*
X975500Y1384110D02*
X982500Y1384110D01*
X2263500Y1384110D02*
X2270500Y1384110D01*
X975500Y1383110D02*
X982500Y1383110D01*
X2263500Y1383110D02*
X2270500Y1383110D01*
X975500Y1382110D02*
X982500Y1382110D01*
X2263500Y1382110D02*
X2270500Y1382110D01*
X975500Y1381110D02*
X982500Y1381110D01*
X2263500Y1381110D02*
X2270500Y1381110D01*
X975500Y1380110D02*
X982500Y1380110D01*
X2263500Y1380110D02*
X2270500Y1380110D01*
X975500Y1379110D02*
X982500Y1379110D01*
X2263500Y1379110D02*
X2270500Y1379110D01*
X975500Y1378110D02*
X982500Y1378110D01*
X2263500Y1378110D02*
X2270500Y1378110D01*
X975500Y1377110D02*
X982500Y1377110D01*
X2263500Y1377110D02*
X2270500Y1377110D01*
X975500Y1376110D02*
X982500Y1376110D01*
X2263500Y1376110D02*
X2270500Y1376110D01*
X975500Y1375110D02*
X982500Y1375110D01*
X2263500Y1375110D02*
X2270500Y1375110D01*
X975500Y1374110D02*
X982500Y1374110D01*
X2263500Y1374110D02*
X2270500Y1374110D01*
X975500Y1373110D02*
X982500Y1373110D01*
X2263500Y1373110D02*
X2270500Y1373110D01*
X975500Y1372110D02*
X982500Y1372110D01*
X2263500Y1372110D02*
X2270500Y1372110D01*
X975500Y1371110D02*
X982500Y1371110D01*
X2263500Y1371110D02*
X2270500Y1371110D01*
X975500Y1370110D02*
X982500Y1370110D01*
X2263500Y1370110D02*
X2270500Y1370110D01*
X975500Y1369110D02*
X982500Y1369110D01*
X2263500Y1369110D02*
X2270500Y1369110D01*
X975500Y1368110D02*
X982500Y1368110D01*
X2263500Y1368110D02*
X2270500Y1368110D01*
X975500Y1367110D02*
X982500Y1367110D01*
X2263500Y1367110D02*
X2270500Y1367110D01*
X975500Y1366110D02*
X982500Y1366110D01*
X2263500Y1366110D02*
X2270500Y1366110D01*
X975500Y1365110D02*
X982500Y1365110D01*
X2263500Y1365110D02*
X2270500Y1365110D01*
X975500Y1364110D02*
X982500Y1364110D01*
X2263500Y1364110D02*
X2270500Y1364110D01*
X975500Y1363110D02*
X982500Y1363110D01*
X2263500Y1363110D02*
X2270500Y1363110D01*
X975500Y1362110D02*
X982500Y1362110D01*
X2263500Y1362110D02*
X2270500Y1362110D01*
X975500Y1361110D02*
X982500Y1361110D01*
X2263500Y1361110D02*
X2270500Y1361110D01*
X975500Y1360110D02*
X982500Y1360110D01*
X2263500Y1360110D02*
X2270500Y1360110D01*
X975500Y1359110D02*
X982500Y1359110D01*
X2263500Y1359110D02*
X2270500Y1359110D01*
X975500Y1358110D02*
X982500Y1358110D01*
X2263500Y1358110D02*
X2270500Y1358110D01*
X975500Y1357110D02*
X982500Y1357110D01*
X2263500Y1357110D02*
X2270500Y1357110D01*
X975500Y1356110D02*
X982500Y1356110D01*
X2263500Y1356110D02*
X2270500Y1356110D01*
X975500Y1355110D02*
X982500Y1355110D01*
X2263500Y1355110D02*
X2270500Y1355110D01*
X975500Y1354110D02*
X982500Y1354110D01*
X2263500Y1354110D02*
X2270500Y1354110D01*
X975500Y1353110D02*
X982500Y1353110D01*
X2263500Y1353110D02*
X2270500Y1353110D01*
X975500Y1352110D02*
X982500Y1352110D01*
X2263500Y1352110D02*
X2270500Y1352110D01*
X975500Y1351110D02*
X982500Y1351110D01*
X2263500Y1351110D02*
X2270500Y1351110D01*
X975500Y1350110D02*
X982500Y1350110D01*
X2263500Y1350110D02*
X2270500Y1350110D01*
X975500Y1349110D02*
X982500Y1349110D01*
X2263500Y1349110D02*
X2270500Y1349110D01*
X975500Y1348110D02*
X982500Y1348110D01*
X2263500Y1348110D02*
X2270500Y1348110D01*
X975500Y1347110D02*
X982500Y1347110D01*
X2263500Y1347110D02*
X2270500Y1347110D01*
X975500Y1346110D02*
X982500Y1346110D01*
X2263500Y1346110D02*
X2270500Y1346110D01*
X975500Y1345110D02*
X982500Y1345110D01*
X2263500Y1345110D02*
X2270500Y1345110D01*
X975500Y1344110D02*
X982500Y1344110D01*
X2263500Y1344110D02*
X2270500Y1344110D01*
X975500Y1343110D02*
X982500Y1343110D01*
X2263500Y1343110D02*
X2270500Y1343110D01*
X975500Y1342110D02*
X982500Y1342110D01*
X2263500Y1342110D02*
X2270500Y1342110D01*
X975500Y1341110D02*
X982500Y1341110D01*
X2263500Y1341110D02*
X2270500Y1341110D01*
X975500Y1340110D02*
X982500Y1340110D01*
X2263500Y1340110D02*
X2270500Y1340110D01*
X975500Y1339110D02*
X982500Y1339110D01*
X2263500Y1339110D02*
X2270500Y1339110D01*
X975500Y1338110D02*
X982500Y1338110D01*
X2263500Y1338110D02*
X2270500Y1338110D01*
X975500Y1337110D02*
X982500Y1337110D01*
X2263500Y1337110D02*
X2270500Y1337110D01*
X975500Y1336110D02*
X982500Y1336110D01*
X2263500Y1336110D02*
X2270500Y1336110D01*
X975500Y1335110D02*
X982500Y1335110D01*
X2263500Y1335110D02*
X2270500Y1335110D01*
X975500Y1334110D02*
X982500Y1334110D01*
X2263500Y1334110D02*
X2270500Y1334110D01*
X975500Y1333110D02*
X982500Y1333110D01*
X2263500Y1333110D02*
X2270500Y1333110D01*
X975500Y1332110D02*
X982500Y1332110D01*
X2263500Y1332110D02*
X2270500Y1332110D01*
X975500Y1331110D02*
X982500Y1331110D01*
X2263500Y1331110D02*
X2270500Y1331110D01*
X975500Y1330110D02*
X982500Y1330110D01*
X2263500Y1330110D02*
X2270500Y1330110D01*
X975500Y1329110D02*
X982500Y1329110D01*
X2263500Y1329110D02*
X2270500Y1329110D01*
X975500Y1328110D02*
X982500Y1328110D01*
X2263500Y1328110D02*
X2270500Y1328110D01*
X975500Y1327110D02*
X982500Y1327110D01*
X2263500Y1327110D02*
X2270500Y1327110D01*
X975500Y1326110D02*
X982500Y1326110D01*
X2263500Y1326110D02*
X2270500Y1326110D01*
X975500Y1325110D02*
X982500Y1325110D01*
X2263500Y1325110D02*
X2270500Y1325110D01*
X975500Y1324110D02*
X982500Y1324110D01*
X2263500Y1324110D02*
X2270500Y1324110D01*
X975500Y1323110D02*
X982500Y1323110D01*
X2263500Y1323110D02*
X2270500Y1323110D01*
X975500Y1322110D02*
X982500Y1322110D01*
X2263500Y1322110D02*
X2270500Y1322110D01*
X975500Y1321110D02*
X982500Y1321110D01*
X2263500Y1321110D02*
X2270500Y1321110D01*
X975500Y1320110D02*
X982500Y1320110D01*
X2263500Y1320110D02*
X2270500Y1320110D01*
X975500Y1319110D02*
X982500Y1319110D01*
X2263500Y1319110D02*
X2270500Y1319110D01*
X975500Y1318110D02*
X982500Y1318110D01*
X2263500Y1318110D02*
X2270500Y1318110D01*
X975500Y1317110D02*
X982500Y1317110D01*
X2263500Y1317110D02*
X2270500Y1317110D01*
X975500Y1316110D02*
X982500Y1316110D01*
X2263500Y1316110D02*
X2270500Y1316110D01*
X975500Y1315110D02*
X982500Y1315110D01*
X2263500Y1315110D02*
X2270500Y1315110D01*
X975500Y1314110D02*
X982500Y1314110D01*
X2263500Y1314110D02*
X2270500Y1314110D01*
X975500Y1313110D02*
X982500Y1313110D01*
X2263500Y1313110D02*
X2270500Y1313110D01*
X975500Y1312110D02*
X982500Y1312110D01*
X2263500Y1312110D02*
X2270500Y1312110D01*
X975500Y1311110D02*
X982500Y1311110D01*
X2263500Y1311110D02*
X2270500Y1311110D01*
X975500Y1310110D02*
X982500Y1310110D01*
X2263500Y1310110D02*
X2270500Y1310110D01*
X975500Y1309110D02*
X982500Y1309110D01*
X2263500Y1309110D02*
X2270500Y1309110D01*
X975500Y1308110D02*
X982500Y1308110D01*
X2263500Y1308110D02*
X2270500Y1308110D01*
X975500Y1307110D02*
X982500Y1307110D01*
X2263500Y1307110D02*
X2270500Y1307110D01*
X975500Y1306110D02*
X982500Y1306110D01*
X2263500Y1306110D02*
X2270500Y1306110D01*
X975500Y1305110D02*
X982500Y1305110D01*
X2263500Y1305110D02*
X2270500Y1305110D01*
X975500Y1304110D02*
X982500Y1304110D01*
X2263500Y1304110D02*
X2270500Y1304110D01*
X975500Y1303110D02*
X982500Y1303110D01*
X2263500Y1303110D02*
X2270500Y1303110D01*
X975500Y1302110D02*
X982500Y1302110D01*
X2263500Y1302110D02*
X2270500Y1302110D01*
X975500Y1301110D02*
X982500Y1301110D01*
X2263500Y1301110D02*
X2270500Y1301110D01*
X975500Y1300110D02*
X982500Y1300110D01*
X2263500Y1300110D02*
X2270500Y1300110D01*
X975500Y1299110D02*
X982500Y1299110D01*
X2263500Y1299110D02*
X2270500Y1299110D01*
X975500Y1298110D02*
X982500Y1298110D01*
X2263500Y1298110D02*
X2270500Y1298110D01*
X975500Y1297110D02*
X982500Y1297110D01*
X2263500Y1297110D02*
X2270500Y1297110D01*
X975500Y1296110D02*
X982500Y1296110D01*
X2263500Y1296110D02*
X2270500Y1296110D01*
X975500Y1295110D02*
X982500Y1295110D01*
X2263500Y1295110D02*
X2270500Y1295110D01*
X975500Y1294110D02*
X982500Y1294110D01*
X2263500Y1294110D02*
X2270500Y1294110D01*
X975500Y1293110D02*
X982500Y1293110D01*
X2263500Y1293110D02*
X2270500Y1293110D01*
X975500Y1292110D02*
X982500Y1292110D01*
X2263500Y1292110D02*
X2270500Y1292110D01*
X975500Y1291110D02*
X982500Y1291110D01*
X2263500Y1291110D02*
X2270500Y1291110D01*
X975500Y1290110D02*
X982500Y1290110D01*
X2263500Y1290110D02*
X2270500Y1290110D01*
X975500Y1289110D02*
X982500Y1289110D01*
X2263500Y1289110D02*
X2270500Y1289110D01*
X975500Y1288110D02*
X982500Y1288110D01*
X2263500Y1288110D02*
X2270500Y1288110D01*
X975500Y1287110D02*
X982500Y1287110D01*
X2263500Y1287110D02*
X2270500Y1287110D01*
X975500Y1286110D02*
X982500Y1286110D01*
X2263500Y1286110D02*
X2270500Y1286110D01*
X975500Y1285110D02*
X982500Y1285110D01*
X2263500Y1285110D02*
X2270500Y1285110D01*
X975500Y1284110D02*
X982500Y1284110D01*
X2263500Y1284110D02*
X2270500Y1284110D01*
X975500Y1283110D02*
X982500Y1283110D01*
X2263500Y1283110D02*
X2270500Y1283110D01*
X975500Y1282110D02*
X982500Y1282110D01*
X2263500Y1282110D02*
X2270500Y1282110D01*
X975500Y1281110D02*
X982500Y1281110D01*
X2263500Y1281110D02*
X2270500Y1281110D01*
X975500Y1280110D02*
X982500Y1280110D01*
X2263500Y1280110D02*
X2270500Y1280110D01*
X975500Y1279110D02*
X982500Y1279110D01*
X2263500Y1279110D02*
X2270500Y1279110D01*
X975500Y1278110D02*
X982500Y1278110D01*
X2263500Y1278110D02*
X2270500Y1278110D01*
X975500Y1277110D02*
X982500Y1277110D01*
X2263500Y1277110D02*
X2270500Y1277110D01*
X975500Y1276110D02*
X982500Y1276110D01*
X2263500Y1276110D02*
X2270500Y1276110D01*
X975500Y1275110D02*
X982500Y1275110D01*
X2263500Y1275110D02*
X2270500Y1275110D01*
X975500Y1274110D02*
X982500Y1274110D01*
X2263500Y1274110D02*
X2270500Y1274110D01*
X975500Y1273110D02*
X982500Y1273110D01*
X2263500Y1273110D02*
X2270500Y1273110D01*
X975500Y1272110D02*
X982500Y1272110D01*
X2263500Y1272110D02*
X2270500Y1272110D01*
X975500Y1271110D02*
X982500Y1271110D01*
X2263500Y1271110D02*
X2270500Y1271110D01*
X975500Y1270110D02*
X982500Y1270110D01*
X2263500Y1270110D02*
X2270500Y1270110D01*
X975500Y1269110D02*
X982500Y1269110D01*
X2263500Y1269110D02*
X2270500Y1269110D01*
X975500Y1268110D02*
X982500Y1268110D01*
X2263500Y1268110D02*
X2270500Y1268110D01*
X975500Y1267110D02*
X982500Y1267110D01*
X2263500Y1267110D02*
X2270500Y1267110D01*
X975500Y1266110D02*
X982500Y1266110D01*
X2263500Y1266110D02*
X2270500Y1266110D01*
X975500Y1265110D02*
X982500Y1265110D01*
X2263500Y1265110D02*
X2270500Y1265110D01*
X975500Y1264110D02*
X982500Y1264110D01*
X2263500Y1264110D02*
X2270500Y1264110D01*
X975500Y1263110D02*
X982500Y1263110D01*
X2263500Y1263110D02*
X2270500Y1263110D01*
X975500Y1262110D02*
X982500Y1262110D01*
X2263500Y1262110D02*
X2270500Y1262110D01*
X975500Y1261110D02*
X982500Y1261110D01*
X2263500Y1261110D02*
X2270500Y1261110D01*
X975500Y1260110D02*
X982500Y1260110D01*
X2263500Y1260110D02*
X2270500Y1260110D01*
X975500Y1259110D02*
X982500Y1259110D01*
X2263500Y1259110D02*
X2270500Y1259110D01*
X975500Y1258110D02*
X982500Y1258110D01*
X2263500Y1258110D02*
X2270500Y1258110D01*
X975500Y1257110D02*
X982500Y1257110D01*
X2263500Y1257110D02*
X2270500Y1257110D01*
X975500Y1256110D02*
X982500Y1256110D01*
X2263500Y1256110D02*
X2270500Y1256110D01*
X975500Y1255110D02*
X982500Y1255110D01*
X2263500Y1255110D02*
X2270500Y1255110D01*
X975500Y1254110D02*
X982500Y1254110D01*
X2263500Y1254110D02*
X2270500Y1254110D01*
X975500Y1253110D02*
X982500Y1253110D01*
X2263500Y1253110D02*
X2270500Y1253110D01*
X975500Y1252110D02*
X982500Y1252110D01*
X2263500Y1252110D02*
X2270500Y1252110D01*
X975500Y1251110D02*
X982500Y1251110D01*
X2263500Y1251110D02*
X2270500Y1251110D01*
X975500Y1250110D02*
X982500Y1250110D01*
X2263500Y1250110D02*
X2270500Y1250110D01*
X975500Y1249110D02*
X982500Y1249110D01*
X2263500Y1249110D02*
X2270500Y1249110D01*
X975500Y1248110D02*
X982500Y1248110D01*
X2263500Y1248110D02*
X2270500Y1248110D01*
X975500Y1247110D02*
X982500Y1247110D01*
X2263500Y1247110D02*
X2270500Y1247110D01*
X975500Y1246110D02*
X982500Y1246110D01*
X2263500Y1246110D02*
X2270500Y1246110D01*
X975500Y1245110D02*
X982500Y1245110D01*
X2263500Y1245110D02*
X2270500Y1245110D01*
X975500Y1244110D02*
X982500Y1244110D01*
X2263500Y1244110D02*
X2270500Y1244110D01*
X975500Y1243110D02*
X982500Y1243110D01*
X2263500Y1243110D02*
X2270500Y1243110D01*
X975500Y1242110D02*
X982500Y1242110D01*
X2263500Y1242110D02*
X2270500Y1242110D01*
X975500Y1241110D02*
X982500Y1241110D01*
X2263500Y1241110D02*
X2270500Y1241110D01*
X975500Y1240110D02*
X982500Y1240110D01*
X2263500Y1240110D02*
X2270500Y1240110D01*
X975500Y1239110D02*
X982500Y1239110D01*
X2263500Y1239110D02*
X2270500Y1239110D01*
X975500Y1238110D02*
X982500Y1238110D01*
X2263500Y1238110D02*
X2270500Y1238110D01*
X975500Y1237110D02*
X982500Y1237110D01*
X2263500Y1237110D02*
X2270500Y1237110D01*
X975500Y1236110D02*
X982500Y1236110D01*
X2263500Y1236110D02*
X2270500Y1236110D01*
X975500Y1235110D02*
X982500Y1235110D01*
X2263500Y1235110D02*
X2270500Y1235110D01*
X975500Y1234110D02*
X982500Y1234110D01*
X2263500Y1234110D02*
X2270500Y1234110D01*
X975500Y1233110D02*
X982500Y1233110D01*
X2263500Y1233110D02*
X2270500Y1233110D01*
X975500Y1232110D02*
X982500Y1232110D01*
X2263500Y1232110D02*
X2270500Y1232110D01*
X975500Y1231110D02*
X982500Y1231110D01*
X2263500Y1231110D02*
X2270500Y1231110D01*
X975500Y1230110D02*
X982500Y1230110D01*
X2263500Y1230110D02*
X2270500Y1230110D01*
X975500Y1229110D02*
X982500Y1229110D01*
X2263500Y1229110D02*
X2270500Y1229110D01*
X975500Y1228110D02*
X982500Y1228110D01*
X2263500Y1228110D02*
X2270500Y1228110D01*
X975500Y1227110D02*
X982500Y1227110D01*
X2263500Y1227110D02*
X2270500Y1227110D01*
X975500Y1226110D02*
X982500Y1226110D01*
X2263500Y1226110D02*
X2270500Y1226110D01*
X975500Y1225110D02*
X982500Y1225110D01*
X2263500Y1225110D02*
X2270500Y1225110D01*
X975500Y1224110D02*
X982500Y1224110D01*
X2263500Y1224110D02*
X2270500Y1224110D01*
X975500Y1223110D02*
X982500Y1223110D01*
X2263500Y1223110D02*
X2270500Y1223110D01*
X975500Y1222110D02*
X982500Y1222110D01*
X2263500Y1222110D02*
X2270500Y1222110D01*
X975500Y1221110D02*
X982500Y1221110D01*
X2263500Y1221110D02*
X2270500Y1221110D01*
X975500Y1220110D02*
X982500Y1220110D01*
X2263500Y1220110D02*
X2270500Y1220110D01*
X975500Y1219110D02*
X982500Y1219110D01*
X2263500Y1219110D02*
X2270500Y1219110D01*
X975500Y1218110D02*
X982500Y1218110D01*
X2263500Y1218110D02*
X2270500Y1218110D01*
X975500Y1217110D02*
X982500Y1217110D01*
X2263500Y1217110D02*
X2270500Y1217110D01*
X975500Y1216110D02*
X982500Y1216110D01*
X2263500Y1216110D02*
X2270500Y1216110D01*
X975500Y1215110D02*
X982500Y1215110D01*
X2263500Y1215110D02*
X2270500Y1215110D01*
X975500Y1214110D02*
X982500Y1214110D01*
X2263500Y1214110D02*
X2270500Y1214110D01*
X975500Y1213110D02*
X982500Y1213110D01*
X2263500Y1213110D02*
X2270500Y1213110D01*
X975500Y1212110D02*
X982500Y1212110D01*
X2263500Y1212110D02*
X2270500Y1212110D01*
X975500Y1211110D02*
X982500Y1211110D01*
X2263500Y1211110D02*
X2270500Y1211110D01*
X975500Y1210110D02*
X982500Y1210110D01*
X2263500Y1210110D02*
X2270500Y1210110D01*
X975500Y1209110D02*
X982500Y1209110D01*
X2263500Y1209110D02*
X2270500Y1209110D01*
X975500Y1208110D02*
X982500Y1208110D01*
X2263500Y1208110D02*
X2270500Y1208110D01*
X975500Y1207110D02*
X982500Y1207110D01*
X2263500Y1207110D02*
X2270500Y1207110D01*
X975500Y1206110D02*
X982500Y1206110D01*
X2263500Y1206110D02*
X2270500Y1206110D01*
X975500Y1205110D02*
X982500Y1205110D01*
X2263500Y1205110D02*
X2270500Y1205110D01*
X975500Y1204110D02*
X982500Y1204110D01*
X2263500Y1204110D02*
X2270500Y1204110D01*
X975500Y1203110D02*
X982500Y1203110D01*
X2263500Y1203110D02*
X2270500Y1203110D01*
X975500Y1202110D02*
X982500Y1202110D01*
X2263500Y1202110D02*
X2270500Y1202110D01*
X975500Y1201110D02*
X982500Y1201110D01*
X2263500Y1201110D02*
X2270500Y1201110D01*
X975500Y1200110D02*
X982500Y1200110D01*
X2263500Y1200110D02*
X2270500Y1200110D01*
X975500Y1199110D02*
X982500Y1199110D01*
X2263500Y1199110D02*
X2270500Y1199110D01*
X975500Y1198110D02*
X982500Y1198110D01*
X2263500Y1198110D02*
X2270500Y1198110D01*
X975500Y1197110D02*
X982500Y1197110D01*
X2263500Y1197110D02*
X2270500Y1197110D01*
X975500Y1196110D02*
X982500Y1196110D01*
X2263500Y1196110D02*
X2270500Y1196110D01*
X975500Y1195110D02*
X982500Y1195110D01*
X2263500Y1195110D02*
X2270500Y1195110D01*
X975500Y1194110D02*
X982500Y1194110D01*
X2263500Y1194110D02*
X2270500Y1194110D01*
X975500Y1193110D02*
X982500Y1193110D01*
X2263500Y1193110D02*
X2270500Y1193110D01*
X975500Y1192110D02*
X982500Y1192110D01*
X2263500Y1192110D02*
X2270500Y1192110D01*
X975500Y1191110D02*
X982500Y1191110D01*
X2263500Y1191110D02*
X2270500Y1191110D01*
X975500Y1190110D02*
X982500Y1190110D01*
X2263500Y1190110D02*
X2270500Y1190110D01*
X975500Y1189110D02*
X982500Y1189110D01*
X2263500Y1189110D02*
X2270500Y1189110D01*
X975500Y1188110D02*
X982500Y1188110D01*
X2263500Y1188110D02*
X2270500Y1188110D01*
X975500Y1187110D02*
X982500Y1187110D01*
X2263500Y1187110D02*
X2270500Y1187110D01*
X975500Y1186110D02*
X982500Y1186110D01*
X2263500Y1186110D02*
X2270500Y1186110D01*
X975500Y1185110D02*
X982500Y1185110D01*
X2263500Y1185110D02*
X2270500Y1185110D01*
X975500Y1184110D02*
X982500Y1184110D01*
X2263500Y1184110D02*
X2270500Y1184110D01*
X975500Y1183110D02*
X982500Y1183110D01*
X2263500Y1183110D02*
X2270500Y1183110D01*
X975500Y1182110D02*
X982500Y1182110D01*
X2263500Y1182110D02*
X2270500Y1182110D01*
X975500Y1181110D02*
X982500Y1181110D01*
X2263500Y1181110D02*
X2270500Y1181110D01*
X975500Y1180110D02*
X982500Y1180110D01*
X2263500Y1180110D02*
X2270500Y1180110D01*
X975500Y1179110D02*
X982500Y1179110D01*
X2263500Y1179110D02*
X2270500Y1179110D01*
X975500Y1178110D02*
X982500Y1178110D01*
X2263500Y1178110D02*
X2270500Y1178110D01*
X975500Y1177110D02*
X982500Y1177110D01*
X2263500Y1177110D02*
X2270500Y1177110D01*
X975500Y1176110D02*
X982500Y1176110D01*
X2263500Y1176110D02*
X2270500Y1176110D01*
X975500Y1175110D02*
X982500Y1175110D01*
X2263500Y1175110D02*
X2270500Y1175110D01*
X975500Y1174110D02*
X982500Y1174110D01*
X2263500Y1174110D02*
X2270500Y1174110D01*
X975500Y1173110D02*
X982500Y1173110D01*
X2263500Y1173110D02*
X2270500Y1173110D01*
X975500Y1172110D02*
X982500Y1172110D01*
X2263500Y1172110D02*
X2270500Y1172110D01*
X975500Y1171110D02*
X982500Y1171110D01*
X2263500Y1171110D02*
X2270500Y1171110D01*
X975500Y1170110D02*
X982500Y1170110D01*
X2263500Y1170110D02*
X2270500Y1170110D01*
X975500Y1169110D02*
X982500Y1169110D01*
X2263500Y1169110D02*
X2270500Y1169110D01*
X975500Y1168110D02*
X982500Y1168110D01*
X2263500Y1168110D02*
X2270500Y1168110D01*
X975500Y1167110D02*
X982500Y1167110D01*
X2263500Y1167110D02*
X2270500Y1167110D01*
X975500Y1166110D02*
X982500Y1166110D01*
X2263500Y1166110D02*
X2270500Y1166110D01*
X975500Y1165110D02*
X982500Y1165110D01*
X2263500Y1165110D02*
X2270500Y1165110D01*
X975500Y1164110D02*
X982500Y1164110D01*
X2263500Y1164110D02*
X2270500Y1164110D01*
X975500Y1163110D02*
X982500Y1163110D01*
X2263500Y1163110D02*
X2270500Y1163110D01*
X975500Y1162110D02*
X982500Y1162110D01*
X2263500Y1162110D02*
X2270500Y1162110D01*
X975500Y1161110D02*
X982500Y1161110D01*
X2263500Y1161110D02*
X2270500Y1161110D01*
X975500Y1160110D02*
X982500Y1160110D01*
X2263500Y1160110D02*
X2270500Y1160110D01*
X975500Y1159110D02*
X982500Y1159110D01*
X2263500Y1159110D02*
X2270500Y1159110D01*
X975500Y1158110D02*
X982500Y1158110D01*
X2263500Y1158110D02*
X2270500Y1158110D01*
X975500Y1157110D02*
X982500Y1157110D01*
X2263500Y1157110D02*
X2270500Y1157110D01*
X975500Y1156110D02*
X982500Y1156110D01*
X2262500Y1156110D02*
X2270500Y1156110D01*
X975500Y1155110D02*
X982500Y1155110D01*
X2261500Y1155110D02*
X2270500Y1155110D01*
X975500Y1154110D02*
X982500Y1154110D01*
X2260500Y1154110D02*
X2270500Y1154110D01*
X975500Y1153110D02*
X982500Y1153110D01*
X2259500Y1153110D02*
X2269500Y1153110D01*
X975500Y1152110D02*
X982500Y1152110D01*
X2258500Y1152110D02*
X2268500Y1152110D01*
X975500Y1151110D02*
X982500Y1151110D01*
X2257500Y1151110D02*
X2267500Y1151110D01*
X975500Y1150110D02*
X982500Y1150110D01*
X2256500Y1150110D02*
X2266500Y1150110D01*
X975500Y1149110D02*
X982500Y1149110D01*
X2255500Y1149110D02*
X2265500Y1149110D01*
X975500Y1148110D02*
X982500Y1148110D01*
X2254500Y1148110D02*
X2264500Y1148110D01*
X975500Y1147110D02*
X982500Y1147110D01*
X2253500Y1147110D02*
X2263500Y1147110D01*
X975500Y1146110D02*
X982500Y1146110D01*
X2252500Y1146110D02*
X2262500Y1146110D01*
X975500Y1145110D02*
X982500Y1145110D01*
X2251500Y1145110D02*
X2261500Y1145110D01*
X975500Y1144110D02*
X982500Y1144110D01*
X2250500Y1144110D02*
X2260500Y1144110D01*
X975500Y1143110D02*
X982500Y1143110D01*
X2249500Y1143110D02*
X2259500Y1143110D01*
X975500Y1142110D02*
X982500Y1142110D01*
X2248500Y1142110D02*
X2258500Y1142110D01*
X975500Y1141110D02*
X982500Y1141110D01*
X2247500Y1141110D02*
X2257500Y1141110D01*
X975500Y1140110D02*
X982500Y1140110D01*
X2246500Y1140110D02*
X2256500Y1140110D01*
X975500Y1139110D02*
X982500Y1139110D01*
X2245500Y1139110D02*
X2255500Y1139110D01*
X975500Y1138110D02*
X982500Y1138110D01*
X2244500Y1138110D02*
X2254500Y1138110D01*
X975500Y1137110D02*
X982500Y1137110D01*
X2243500Y1137110D02*
X2253500Y1137110D01*
X975500Y1136110D02*
X982500Y1136110D01*
X2242500Y1136110D02*
X2252500Y1136110D01*
X975500Y1135110D02*
X982500Y1135110D01*
X2241500Y1135110D02*
X2251500Y1135110D01*
X975500Y1134110D02*
X982500Y1134110D01*
X2240500Y1134110D02*
X2250500Y1134110D01*
X975500Y1133110D02*
X982500Y1133110D01*
X2239500Y1133110D02*
X2249500Y1133110D01*
X975500Y1132110D02*
X982500Y1132110D01*
X2238500Y1132110D02*
X2248500Y1132110D01*
X975500Y1131110D02*
X982500Y1131110D01*
X2237500Y1131110D02*
X2247500Y1131110D01*
X975500Y1130110D02*
X982500Y1130110D01*
X2236500Y1130110D02*
X2246500Y1130110D01*
X975500Y1129110D02*
X982500Y1129110D01*
X2235500Y1129110D02*
X2245500Y1129110D01*
X975500Y1128110D02*
X982500Y1128110D01*
X2234500Y1128110D02*
X2244500Y1128110D01*
X975500Y1127110D02*
X982500Y1127110D01*
X2233500Y1127110D02*
X2243500Y1127110D01*
X975500Y1126110D02*
X982500Y1126110D01*
X2232500Y1126110D02*
X2242500Y1126110D01*
X975500Y1125110D02*
X982500Y1125110D01*
X2231500Y1125110D02*
X2241500Y1125110D01*
X975500Y1124110D02*
X982500Y1124110D01*
X2230500Y1124110D02*
X2240500Y1124110D01*
X975500Y1123110D02*
X982500Y1123110D01*
X2229500Y1123110D02*
X2239500Y1123110D01*
X975500Y1122110D02*
X982500Y1122110D01*
X2228500Y1122110D02*
X2238500Y1122110D01*
X975500Y1121110D02*
X982500Y1121110D01*
X2227500Y1121110D02*
X2237500Y1121110D01*
X975500Y1120110D02*
X982500Y1120110D01*
X2226500Y1120110D02*
X2236500Y1120110D01*
X975500Y1119110D02*
X982500Y1119110D01*
X2225500Y1119110D02*
X2235500Y1119110D01*
X975500Y1118110D02*
X982500Y1118110D01*
X2224500Y1118110D02*
X2234500Y1118110D01*
X975500Y1117110D02*
X982500Y1117110D01*
X2223500Y1117110D02*
X2233500Y1117110D01*
X975500Y1116110D02*
X982500Y1116110D01*
X2222500Y1116110D02*
X2232500Y1116110D01*
X975500Y1115110D02*
X982500Y1115110D01*
X2221500Y1115110D02*
X2231500Y1115110D01*
X975500Y1114110D02*
X982500Y1114110D01*
X2220500Y1114110D02*
X2230500Y1114110D01*
X975500Y1113110D02*
X982500Y1113110D01*
X2219500Y1113110D02*
X2229500Y1113110D01*
X975500Y1112110D02*
X982500Y1112110D01*
X2218500Y1112110D02*
X2228500Y1112110D01*
X975500Y1111110D02*
X982500Y1111110D01*
X2217500Y1111110D02*
X2227500Y1111110D01*
X975500Y1110110D02*
X982500Y1110110D01*
X2216500Y1110110D02*
X2226500Y1110110D01*
X975500Y1109110D02*
X982500Y1109110D01*
X2215500Y1109110D02*
X2225500Y1109110D01*
X975500Y1108110D02*
X982500Y1108110D01*
X2214500Y1108110D02*
X2224500Y1108110D01*
X975500Y1107110D02*
X982500Y1107110D01*
X2213500Y1107110D02*
X2223500Y1107110D01*
X975500Y1106110D02*
X982500Y1106110D01*
X2212500Y1106110D02*
X2222500Y1106110D01*
X975500Y1105110D02*
X982500Y1105110D01*
X2211500Y1105110D02*
X2221500Y1105110D01*
X975500Y1104110D02*
X982500Y1104110D01*
X2210500Y1104110D02*
X2220500Y1104110D01*
X975500Y1103110D02*
X982500Y1103110D01*
X2209500Y1103110D02*
X2219500Y1103110D01*
X975500Y1102110D02*
X982500Y1102110D01*
X2208500Y1102110D02*
X2218500Y1102110D01*
X975500Y1101110D02*
X982500Y1101110D01*
X2207500Y1101110D02*
X2217500Y1101110D01*
X975500Y1100110D02*
X982500Y1100110D01*
X2206500Y1100110D02*
X2216500Y1100110D01*
X975500Y1099110D02*
X982500Y1099110D01*
X2205500Y1099110D02*
X2215500Y1099110D01*
X975500Y1098110D02*
X982500Y1098110D01*
X2204500Y1098110D02*
X2214500Y1098110D01*
X975500Y1097110D02*
X982500Y1097110D01*
X2203500Y1097110D02*
X2213500Y1097110D01*
X975500Y1096110D02*
X982500Y1096110D01*
X2202500Y1096110D02*
X2212500Y1096110D01*
X975500Y1095110D02*
X982500Y1095110D01*
X2201500Y1095110D02*
X2211500Y1095110D01*
X975500Y1094110D02*
X982500Y1094110D01*
X2200500Y1094110D02*
X2210500Y1094110D01*
X975500Y1093110D02*
X982500Y1093110D01*
X2199500Y1093110D02*
X2209500Y1093110D01*
X975500Y1092110D02*
X982500Y1092110D01*
X2198500Y1092110D02*
X2208500Y1092110D01*
X975500Y1091110D02*
X982500Y1091110D01*
X2197500Y1091110D02*
X2207500Y1091110D01*
X975500Y1090110D02*
X982500Y1090110D01*
X2196500Y1090110D02*
X2206500Y1090110D01*
X975500Y1089110D02*
X982500Y1089110D01*
X2195500Y1089110D02*
X2205500Y1089110D01*
X975500Y1088110D02*
X982500Y1088110D01*
X2194500Y1088110D02*
X2204500Y1088110D01*
X975500Y1087110D02*
X982500Y1087110D01*
X2193500Y1087110D02*
X2203500Y1087110D01*
X975500Y1086110D02*
X982500Y1086110D01*
X2192500Y1086110D02*
X2202500Y1086110D01*
X975500Y1085110D02*
X982500Y1085110D01*
X2191500Y1085110D02*
X2201500Y1085110D01*
X975500Y1084110D02*
X982500Y1084110D01*
X2190500Y1084110D02*
X2200500Y1084110D01*
X975500Y1083110D02*
X982500Y1083110D01*
X2189500Y1083110D02*
X2199500Y1083110D01*
X975500Y1082110D02*
X982500Y1082110D01*
X2188500Y1082110D02*
X2198500Y1082110D01*
X975500Y1081110D02*
X982500Y1081110D01*
X2187500Y1081110D02*
X2197500Y1081110D01*
X975500Y1080110D02*
X982500Y1080110D01*
X2186500Y1080110D02*
X2196500Y1080110D01*
X975500Y1079110D02*
X982500Y1079110D01*
X2185500Y1079110D02*
X2195500Y1079110D01*
X975500Y1078110D02*
X982500Y1078110D01*
X2184500Y1078110D02*
X2194500Y1078110D01*
X975500Y1077110D02*
X982500Y1077110D01*
X2183500Y1077110D02*
X2193500Y1077110D01*
X975500Y1076110D02*
X982500Y1076110D01*
X2182500Y1076110D02*
X2192500Y1076110D01*
X975500Y1075110D02*
X982500Y1075110D01*
X2181500Y1075110D02*
X2191500Y1075110D01*
X975500Y1074110D02*
X982500Y1074110D01*
X2180500Y1074110D02*
X2190500Y1074110D01*
X975500Y1073110D02*
X982500Y1073110D01*
X2179500Y1073110D02*
X2189500Y1073110D01*
X975500Y1072110D02*
X982500Y1072110D01*
X2178500Y1072110D02*
X2188500Y1072110D01*
X975500Y1071110D02*
X982500Y1071110D01*
X2177500Y1071110D02*
X2187500Y1071110D01*
X975500Y1070110D02*
X982500Y1070110D01*
X2176500Y1070110D02*
X2186500Y1070110D01*
X975500Y1069110D02*
X982500Y1069110D01*
X2175500Y1069110D02*
X2185500Y1069110D01*
X975500Y1068110D02*
X982500Y1068110D01*
X2174500Y1068110D02*
X2184500Y1068110D01*
X975500Y1067110D02*
X982500Y1067110D01*
X2173500Y1067110D02*
X2183500Y1067110D01*
X975500Y1066110D02*
X982500Y1066110D01*
X2172500Y1066110D02*
X2182500Y1066110D01*
X975500Y1065110D02*
X982500Y1065110D01*
X2171500Y1065110D02*
X2181500Y1065110D01*
X975500Y1064110D02*
X982500Y1064110D01*
X2170500Y1064110D02*
X2180500Y1064110D01*
X975500Y1063110D02*
X982500Y1063110D01*
X2169500Y1063110D02*
X2179500Y1063110D01*
X975500Y1062110D02*
X982500Y1062110D01*
X2168500Y1062110D02*
X2178500Y1062110D01*
X975500Y1061110D02*
X982500Y1061110D01*
X2167500Y1061110D02*
X2177500Y1061110D01*
X975500Y1060110D02*
X982500Y1060110D01*
X2166500Y1060110D02*
X2176500Y1060110D01*
X975500Y1059110D02*
X982500Y1059110D01*
X2165500Y1059110D02*
X2175500Y1059110D01*
X975500Y1058110D02*
X982500Y1058110D01*
X2164500Y1058110D02*
X2174500Y1058110D01*
X975500Y1057110D02*
X982500Y1057110D01*
X2163500Y1057110D02*
X2173500Y1057110D01*
X975500Y1056110D02*
X982500Y1056110D01*
X2162500Y1056110D02*
X2172500Y1056110D01*
X975500Y1055110D02*
X982500Y1055110D01*
X2161500Y1055110D02*
X2171500Y1055110D01*
X975500Y1054110D02*
X982500Y1054110D01*
X2160500Y1054110D02*
X2170500Y1054110D01*
X975500Y1053110D02*
X982500Y1053110D01*
X2159500Y1053110D02*
X2169500Y1053110D01*
X975500Y1052110D02*
X982500Y1052110D01*
X2158500Y1052110D02*
X2168500Y1052110D01*
X975500Y1051110D02*
X982500Y1051110D01*
X2157500Y1051110D02*
X2167500Y1051110D01*
X975500Y1050110D02*
X982500Y1050110D01*
X2156500Y1050110D02*
X2166500Y1050110D01*
X975500Y1049110D02*
X982500Y1049110D01*
X2155500Y1049110D02*
X2165500Y1049110D01*
X975500Y1048110D02*
X982500Y1048110D01*
X2154500Y1048110D02*
X2164500Y1048110D01*
X975500Y1047110D02*
X982500Y1047110D01*
X2153500Y1047110D02*
X2163500Y1047110D01*
X975500Y1046110D02*
X982500Y1046110D01*
X2152500Y1046110D02*
X2162500Y1046110D01*
X975500Y1045110D02*
X982500Y1045110D01*
X2151500Y1045110D02*
X2161500Y1045110D01*
X975500Y1044110D02*
X982500Y1044110D01*
X2150500Y1044110D02*
X2160500Y1044110D01*
X975500Y1043110D02*
X982500Y1043110D01*
X2149500Y1043110D02*
X2159500Y1043110D01*
X975500Y1042110D02*
X982500Y1042110D01*
X2148500Y1042110D02*
X2158500Y1042110D01*
X975500Y1041110D02*
X982500Y1041110D01*
X2147500Y1041110D02*
X2157500Y1041110D01*
X975500Y1040110D02*
X982500Y1040110D01*
X2146500Y1040110D02*
X2156500Y1040110D01*
X975500Y1039110D02*
X982500Y1039110D01*
X2145500Y1039110D02*
X2155500Y1039110D01*
X975500Y1038110D02*
X982500Y1038110D01*
X2144500Y1038110D02*
X2154500Y1038110D01*
X975500Y1037110D02*
X982500Y1037110D01*
X2143500Y1037110D02*
X2153500Y1037110D01*
X975500Y1036110D02*
X982500Y1036110D01*
X2142500Y1036110D02*
X2152500Y1036110D01*
X975500Y1035110D02*
X982500Y1035110D01*
X2141500Y1035110D02*
X2151500Y1035110D01*
X975500Y1034110D02*
X982500Y1034110D01*
X2140500Y1034110D02*
X2150500Y1034110D01*
X975500Y1033110D02*
X982500Y1033110D01*
X2139500Y1033110D02*
X2149500Y1033110D01*
X975500Y1032110D02*
X982500Y1032110D01*
X2138500Y1032110D02*
X2148500Y1032110D01*
X975500Y1031110D02*
X982500Y1031110D01*
X2137500Y1031110D02*
X2147500Y1031110D01*
X975500Y1030110D02*
X982500Y1030110D01*
X2136500Y1030110D02*
X2146500Y1030110D01*
X975500Y1029110D02*
X982500Y1029110D01*
X2135500Y1029110D02*
X2145500Y1029110D01*
X975500Y1028110D02*
X982500Y1028110D01*
X2134500Y1028110D02*
X2144500Y1028110D01*
X975500Y1027110D02*
X982500Y1027110D01*
X2133500Y1027110D02*
X2143500Y1027110D01*
X975500Y1026110D02*
X982500Y1026110D01*
X2132500Y1026110D02*
X2142500Y1026110D01*
X975500Y1025110D02*
X982500Y1025110D01*
X2131500Y1025110D02*
X2141500Y1025110D01*
X975500Y1024110D02*
X982500Y1024110D01*
X2027500Y1024110D02*
X2031500Y1024110D01*
X2062500Y1024110D02*
X2062500Y1024110D01*
X2130500Y1024110D02*
X2140500Y1024110D01*
X975500Y1023110D02*
X982500Y1023110D01*
X2027500Y1023110D02*
X2032500Y1023110D01*
X2061500Y1023110D02*
X2063500Y1023110D01*
X2129500Y1023110D02*
X2139500Y1023110D01*
X975500Y1022110D02*
X982500Y1022110D01*
X2027500Y1022110D02*
X2033500Y1022110D01*
X2060500Y1022110D02*
X2064500Y1022110D01*
X2128500Y1022110D02*
X2138500Y1022110D01*
X975500Y1021110D02*
X982500Y1021110D01*
X2027500Y1021110D02*
X2035500Y1021110D01*
X2060500Y1021110D02*
X2064500Y1021110D01*
X2127500Y1021110D02*
X2137500Y1021110D01*
X975500Y1020110D02*
X982500Y1020110D01*
X2027500Y1020110D02*
X2036500Y1020110D01*
X2061500Y1020110D02*
X2065500Y1020110D01*
X2126500Y1020110D02*
X2136500Y1020110D01*
X975500Y1019110D02*
X982500Y1019110D01*
X2027500Y1019110D02*
X2037500Y1019110D01*
X2061500Y1019110D02*
X2065500Y1019110D01*
X2125500Y1019110D02*
X2135500Y1019110D01*
X975500Y1018110D02*
X982500Y1018110D01*
X2027500Y1018110D02*
X2031500Y1018110D01*
X2033500Y1018110D02*
X2038500Y1018110D01*
X2062500Y1018110D02*
X2066500Y1018110D01*
X2124500Y1018110D02*
X2134500Y1018110D01*
X975500Y1017110D02*
X982500Y1017110D01*
X2027500Y1017110D02*
X2031500Y1017110D01*
X2034500Y1017110D02*
X2039500Y1017110D01*
X2062500Y1017110D02*
X2066500Y1017110D01*
X2123500Y1017110D02*
X2133500Y1017110D01*
X975500Y1016110D02*
X982500Y1016110D01*
X2027500Y1016110D02*
X2031500Y1016110D01*
X2035500Y1016110D02*
X2040500Y1016110D01*
X2063500Y1016110D02*
X2066500Y1016110D01*
X2122500Y1016110D02*
X2132500Y1016110D01*
X975500Y1015110D02*
X982500Y1015110D01*
X2027500Y1015110D02*
X2031500Y1015110D01*
X2036500Y1015110D02*
X2041500Y1015110D01*
X2063500Y1015110D02*
X2066500Y1015110D01*
X2121500Y1015110D02*
X2131500Y1015110D01*
X975500Y1014110D02*
X982500Y1014110D01*
X2027500Y1014110D02*
X2031500Y1014110D01*
X2037500Y1014110D02*
X2042500Y1014110D01*
X2063500Y1014110D02*
X2066500Y1014110D01*
X2120500Y1014110D02*
X2130500Y1014110D01*
X975500Y1013110D02*
X982500Y1013110D01*
X2027500Y1013110D02*
X2031500Y1013110D01*
X2038500Y1013110D02*
X2043500Y1013110D01*
X2063500Y1013110D02*
X2066500Y1013110D01*
X2119500Y1013110D02*
X2129500Y1013110D01*
X975500Y1012110D02*
X982500Y1012110D01*
X2027500Y1012110D02*
X2031500Y1012110D01*
X2039500Y1012110D02*
X2044500Y1012110D01*
X2063500Y1012110D02*
X2066500Y1012110D01*
X2118500Y1012110D02*
X2128500Y1012110D01*
X975500Y1011110D02*
X982500Y1011110D01*
X2027500Y1011110D02*
X2031500Y1011110D01*
X2040500Y1011110D02*
X2046500Y1011110D01*
X2063500Y1011110D02*
X2066500Y1011110D01*
X2117500Y1011110D02*
X2127500Y1011110D01*
X975500Y1010110D02*
X982500Y1010110D01*
X2027500Y1010110D02*
X2031500Y1010110D01*
X2041500Y1010110D02*
X2047500Y1010110D01*
X2063500Y1010110D02*
X2066500Y1010110D01*
X2116500Y1010110D02*
X2126500Y1010110D01*
X975500Y1009110D02*
X982500Y1009110D01*
X2027500Y1009110D02*
X2031500Y1009110D01*
X2042500Y1009110D02*
X2048500Y1009110D01*
X2062500Y1009110D02*
X2066500Y1009110D01*
X2115500Y1009110D02*
X2125500Y1009110D01*
X975500Y1008110D02*
X982500Y1008110D01*
X2027500Y1008110D02*
X2031500Y1008110D01*
X2044500Y1008110D02*
X2050500Y1008110D01*
X2061500Y1008110D02*
X2066500Y1008110D01*
X2114500Y1008110D02*
X2124500Y1008110D01*
X975500Y1007110D02*
X982500Y1007110D01*
X2027500Y1007110D02*
X2031500Y1007110D01*
X2045500Y1007110D02*
X2053500Y1007110D01*
X2059500Y1007110D02*
X2065500Y1007110D01*
X2113500Y1007110D02*
X2123500Y1007110D01*
X975500Y1006110D02*
X982500Y1006110D01*
X2027500Y1006110D02*
X2031500Y1006110D01*
X2046500Y1006110D02*
X2065500Y1006110D01*
X2112500Y1006110D02*
X2122500Y1006110D01*
X975500Y1005110D02*
X982500Y1005110D01*
X2027500Y1005110D02*
X2031500Y1005110D01*
X2047500Y1005110D02*
X2064500Y1005110D01*
X2111500Y1005110D02*
X2121500Y1005110D01*
X975500Y1004110D02*
X982500Y1004110D01*
X2027500Y1004110D02*
X2031500Y1004110D01*
X2049500Y1004110D02*
X2063500Y1004110D01*
X2110500Y1004110D02*
X2120500Y1004110D01*
X975500Y1003110D02*
X982500Y1003110D01*
X2027500Y1003110D02*
X2031500Y1003110D01*
X2051500Y1003110D02*
X2061500Y1003110D01*
X2109500Y1003110D02*
X2119500Y1003110D01*
X975500Y1002110D02*
X982500Y1002110D01*
X2027500Y1002110D02*
X2031500Y1002110D01*
X2054500Y1002110D02*
X2059500Y1002110D01*
X2108500Y1002110D02*
X2118500Y1002110D01*
X975500Y1001110D02*
X982500Y1001110D01*
X2027500Y1001110D02*
X2031500Y1001110D01*
X2107500Y1001110D02*
X2117500Y1001110D01*
X975500Y1000110D02*
X982500Y1000110D01*
X2106500Y1000110D02*
X2116500Y1000110D01*
X975500Y999110D02*
X982500Y999110D01*
X2105500Y999110D02*
X2115500Y999110D01*
X975500Y998110D02*
X982500Y998110D01*
X2104500Y998110D02*
X2114500Y998110D01*
X975500Y997110D02*
X982500Y997110D01*
X2103500Y997110D02*
X2113500Y997110D01*
X975500Y996110D02*
X982500Y996110D01*
X2102500Y996110D02*
X2112500Y996110D01*
X975500Y995110D02*
X982500Y995110D01*
X2101500Y995110D02*
X2111500Y995110D01*
X975500Y994110D02*
X982500Y994110D01*
X2042500Y994110D02*
X2051500Y994110D01*
X2100500Y994110D02*
X2110500Y994110D01*
X975500Y993110D02*
X982500Y993110D01*
X2037500Y993110D02*
X2057500Y993110D01*
X2099500Y993110D02*
X2109500Y993110D01*
X975500Y992110D02*
X982500Y992110D01*
X2034500Y992110D02*
X2060500Y992110D01*
X2098500Y992110D02*
X2108500Y992110D01*
X975500Y991110D02*
X982500Y991110D01*
X2032500Y991110D02*
X2062500Y991110D01*
X2097500Y991110D02*
X2107500Y991110D01*
X975500Y990110D02*
X982500Y990110D01*
X2031500Y990110D02*
X2063500Y990110D01*
X2096500Y990110D02*
X2106500Y990110D01*
X975500Y989110D02*
X982500Y989110D01*
X2029500Y989110D02*
X2041500Y989110D01*
X2052500Y989110D02*
X2064500Y989110D01*
X2095500Y989110D02*
X2105500Y989110D01*
X975500Y988110D02*
X982500Y988110D01*
X2029500Y988110D02*
X2035500Y988110D01*
X2058500Y988110D02*
X2065500Y988110D01*
X2094500Y988110D02*
X2104500Y988110D01*
X975500Y987110D02*
X982500Y987110D01*
X2028500Y987110D02*
X2033500Y987110D01*
X2060500Y987110D02*
X2065500Y987110D01*
X2093500Y987110D02*
X2103500Y987110D01*
X975500Y986110D02*
X982500Y986110D01*
X2028500Y986110D02*
X2032500Y986110D01*
X2061500Y986110D02*
X2066500Y986110D01*
X2092500Y986110D02*
X2102500Y986110D01*
X975500Y985110D02*
X982500Y985110D01*
X2027500Y985110D02*
X2031500Y985110D01*
X2062500Y985110D02*
X2066500Y985110D01*
X2091500Y985110D02*
X2101500Y985110D01*
X975500Y984110D02*
X982500Y984110D01*
X2027500Y984110D02*
X2030500Y984110D01*
X2063500Y984110D02*
X2066500Y984110D01*
X2090500Y984110D02*
X2100500Y984110D01*
X975500Y983110D02*
X982500Y983110D01*
X2027500Y983110D02*
X2030500Y983110D01*
X2063500Y983110D02*
X2066500Y983110D01*
X2089500Y983110D02*
X2099500Y983110D01*
X975500Y982110D02*
X982500Y982110D01*
X2027500Y982110D02*
X2030500Y982110D01*
X2063500Y982110D02*
X2066500Y982110D01*
X2088500Y982110D02*
X2098500Y982110D01*
X975500Y981110D02*
X982500Y981110D01*
X2027500Y981110D02*
X2030500Y981110D01*
X2063500Y981110D02*
X2066500Y981110D01*
X2087500Y981110D02*
X2097500Y981110D01*
X975500Y980110D02*
X982500Y980110D01*
X2027500Y980110D02*
X2030500Y980110D01*
X2063500Y980110D02*
X2066500Y980110D01*
X2086500Y980110D02*
X2096500Y980110D01*
X975500Y979110D02*
X982500Y979110D01*
X2027500Y979110D02*
X2030500Y979110D01*
X2063500Y979110D02*
X2066500Y979110D01*
X2085500Y979110D02*
X2095500Y979110D01*
X975500Y978110D02*
X982500Y978110D01*
X2027500Y978110D02*
X2031500Y978110D01*
X2062500Y978110D02*
X2066500Y978110D01*
X2084500Y978110D02*
X2094500Y978110D01*
X975500Y977110D02*
X982500Y977110D01*
X2028500Y977110D02*
X2032500Y977110D01*
X2061500Y977110D02*
X2065500Y977110D01*
X2083500Y977110D02*
X2093500Y977110D01*
X975500Y976110D02*
X982500Y976110D01*
X2028500Y976110D02*
X2033500Y976110D01*
X2060500Y976110D02*
X2065500Y976110D01*
X2082500Y976110D02*
X2092500Y976110D01*
X975500Y975110D02*
X982500Y975110D01*
X1201500Y975110D02*
X1202500Y975110D01*
X2029500Y975110D02*
X2036500Y975110D01*
X2057500Y975110D02*
X2064500Y975110D01*
X2081500Y975110D02*
X2091500Y975110D01*
X975500Y974110D02*
X982500Y974110D01*
X1200500Y974110D02*
X1202500Y974110D01*
X2029500Y974110D02*
X2042500Y974110D01*
X2051500Y974110D02*
X2064500Y974110D01*
X2080500Y974110D02*
X2090500Y974110D01*
X975500Y973110D02*
X982500Y973110D01*
X1199500Y973110D02*
X1203500Y973110D01*
X2030500Y973110D02*
X2062500Y973110D01*
X2079500Y973110D02*
X2089500Y973110D01*
X975500Y972110D02*
X982500Y972110D01*
X1200500Y972110D02*
X1204500Y972110D01*
X2032500Y972110D02*
X2061500Y972110D01*
X2078500Y972110D02*
X2088500Y972110D01*
X975500Y971110D02*
X982500Y971110D01*
X1200500Y971110D02*
X1205500Y971110D01*
X2034500Y971110D02*
X2059500Y971110D01*
X2077500Y971110D02*
X2087500Y971110D01*
X975500Y970110D02*
X982500Y970110D01*
X1201500Y970110D02*
X1205500Y970110D01*
X2037500Y970110D02*
X2056500Y970110D01*
X2076500Y970110D02*
X2086500Y970110D01*
X975500Y969110D02*
X982500Y969110D01*
X1202500Y969110D02*
X1206500Y969110D01*
X2044500Y969110D02*
X2049500Y969110D01*
X2075500Y969110D02*
X2085500Y969110D01*
X975500Y968110D02*
X982500Y968110D01*
X1203500Y968110D02*
X1207500Y968110D01*
X2074500Y968110D02*
X2084500Y968110D01*
X975500Y967110D02*
X982500Y967110D01*
X1204500Y967110D02*
X1208500Y967110D01*
X2073500Y967110D02*
X2083500Y967110D01*
X975500Y966110D02*
X982500Y966110D01*
X1204500Y966110D02*
X1209500Y966110D01*
X2072500Y966110D02*
X2082500Y966110D01*
X975500Y965110D02*
X982500Y965110D01*
X1170500Y965110D02*
X1209500Y965110D01*
X2071500Y965110D02*
X2081500Y965110D01*
X975500Y964110D02*
X982500Y964110D01*
X1170500Y964110D02*
X1209500Y964110D01*
X2070500Y964110D02*
X2080500Y964110D01*
X975500Y963110D02*
X982500Y963110D01*
X1170500Y963110D02*
X1209500Y963110D01*
X2069500Y963110D02*
X2079500Y963110D01*
X975500Y962110D02*
X982500Y962110D01*
X1170500Y962110D02*
X1209500Y962110D01*
X2068500Y962110D02*
X2078500Y962110D01*
X975500Y961110D02*
X982500Y961110D01*
X2067500Y961110D02*
X2077500Y961110D01*
X975500Y960110D02*
X982500Y960110D01*
X2066500Y960110D02*
X2076500Y960110D01*
X975500Y959110D02*
X982500Y959110D01*
X2065500Y959110D02*
X2075500Y959110D01*
X975500Y958110D02*
X982500Y958110D01*
X2064500Y958110D02*
X2074500Y958110D01*
X975500Y957110D02*
X982500Y957110D01*
X2063500Y957110D02*
X2073500Y957110D01*
X975500Y956110D02*
X982500Y956110D01*
X2062500Y956110D02*
X2072500Y956110D01*
X975500Y955110D02*
X982500Y955110D01*
X2061500Y955110D02*
X2071500Y955110D01*
X975500Y954110D02*
X982500Y954110D01*
X2060500Y954110D02*
X2070500Y954110D01*
X975500Y953110D02*
X982500Y953110D01*
X2059500Y953110D02*
X2069500Y953110D01*
X975500Y952110D02*
X982500Y952110D01*
X2058500Y952110D02*
X2068500Y952110D01*
X975500Y951110D02*
X982500Y951110D01*
X2057500Y951110D02*
X2067500Y951110D01*
X975500Y950110D02*
X982500Y950110D01*
X2056500Y950110D02*
X2066500Y950110D01*
X975500Y949110D02*
X982500Y949110D01*
X2055500Y949110D02*
X2065500Y949110D01*
X975500Y948110D02*
X982500Y948110D01*
X2054500Y948110D02*
X2064500Y948110D01*
X975500Y947110D02*
X982500Y947110D01*
X2053500Y947110D02*
X2063500Y947110D01*
X975500Y946110D02*
X982500Y946110D01*
X2052500Y946110D02*
X2062500Y946110D01*
X975500Y945110D02*
X982500Y945110D01*
X2051500Y945110D02*
X2061500Y945110D01*
X975500Y944110D02*
X982500Y944110D01*
X1201500Y944110D02*
X1202500Y944110D01*
X2050500Y944110D02*
X2060500Y944110D01*
X975500Y943110D02*
X982500Y943110D01*
X1199500Y943110D02*
X1203500Y943110D01*
X2049500Y943110D02*
X2059500Y943110D01*
X975500Y942110D02*
X982500Y942110D01*
X1199500Y942110D02*
X1203500Y942110D01*
X2048500Y942110D02*
X2058500Y942110D01*
X975500Y941110D02*
X982500Y941110D01*
X1200500Y941110D02*
X1204500Y941110D01*
X2047500Y941110D02*
X2057500Y941110D01*
X975500Y940110D02*
X982500Y940110D01*
X1201500Y940110D02*
X1205500Y940110D01*
X2046500Y940110D02*
X2056500Y940110D01*
X975500Y939110D02*
X982500Y939110D01*
X1202500Y939110D02*
X1206500Y939110D01*
X2045500Y939110D02*
X2055500Y939110D01*
X975500Y938110D02*
X982500Y938110D01*
X1202500Y938110D02*
X1207500Y938110D01*
X2044500Y938110D02*
X2054500Y938110D01*
X975500Y937110D02*
X982500Y937110D01*
X1203500Y937110D02*
X1207500Y937110D01*
X2043500Y937110D02*
X2053500Y937110D01*
X975500Y936110D02*
X982500Y936110D01*
X1204500Y936110D02*
X1208500Y936110D01*
X2042500Y936110D02*
X2052500Y936110D01*
X975500Y935110D02*
X982500Y935110D01*
X1171500Y935110D02*
X1209500Y935110D01*
X2041500Y935110D02*
X2051500Y935110D01*
X975500Y934110D02*
X982500Y934110D01*
X1170500Y934110D02*
X1209500Y934110D01*
X2040500Y934110D02*
X2050500Y934110D01*
X975500Y933110D02*
X982500Y933110D01*
X1170500Y933110D02*
X1209500Y933110D01*
X2039500Y933110D02*
X2049500Y933110D01*
X975500Y932110D02*
X982500Y932110D01*
X1170500Y932110D02*
X1209500Y932110D01*
X2038500Y932110D02*
X2048500Y932110D01*
X975500Y931110D02*
X982500Y931110D01*
X1171500Y931110D02*
X1209500Y931110D01*
X2037500Y931110D02*
X2047500Y931110D01*
X975500Y930110D02*
X982500Y930110D01*
X2036500Y930110D02*
X2046500Y930110D01*
X975500Y929110D02*
X982500Y929110D01*
X2035500Y929110D02*
X2045500Y929110D01*
X975500Y928110D02*
X982500Y928110D01*
X2034500Y928110D02*
X2044500Y928110D01*
X975500Y927110D02*
X982500Y927110D01*
X2033500Y927110D02*
X2043500Y927110D01*
X975500Y926110D02*
X982500Y926110D01*
X2032500Y926110D02*
X2042500Y926110D01*
X975500Y925110D02*
X982500Y925110D01*
X2031500Y925110D02*
X2041500Y925110D01*
X975500Y924110D02*
X982500Y924110D01*
X2030500Y924110D02*
X2040500Y924110D01*
X975500Y923110D02*
X982500Y923110D01*
X2029500Y923110D02*
X2039500Y923110D01*
X975500Y922110D02*
X982500Y922110D01*
X2028500Y922110D02*
X2038500Y922110D01*
X975500Y921110D02*
X982500Y921110D01*
X2027500Y921110D02*
X2037500Y921110D01*
X975500Y920110D02*
X982500Y920110D01*
X2026500Y920110D02*
X2036500Y920110D01*
X975500Y919110D02*
X982500Y919110D01*
X2025500Y919110D02*
X2035500Y919110D01*
X975500Y918110D02*
X982500Y918110D01*
X2024500Y918110D02*
X2034500Y918110D01*
X975500Y917110D02*
X982500Y917110D01*
X2023500Y917110D02*
X2033500Y917110D01*
X975500Y916110D02*
X982500Y916110D01*
X2022500Y916110D02*
X2032500Y916110D01*
X975500Y915110D02*
X982500Y915110D01*
X2021500Y915110D02*
X2031500Y915110D01*
X975500Y914110D02*
X982500Y914110D01*
X2020500Y914110D02*
X2030500Y914110D01*
X975500Y913110D02*
X982500Y913110D01*
X2019500Y913110D02*
X2029500Y913110D01*
X975500Y912110D02*
X982500Y912110D01*
X2018500Y912110D02*
X2028500Y912110D01*
X975500Y911110D02*
X2027500Y911110D01*
X975500Y910110D02*
X2026500Y910110D01*
X975500Y909110D02*
X2025500Y909110D01*
X975500Y908110D02*
X2024500Y908110D01*
X975500Y907110D02*
X2023500Y907110D01*
X975500Y906110D02*
X2022500Y906110D01*
X975500Y905110D02*
X2021500Y905110D01*
X975500Y904110D02*
X2020500Y904110D01*
X2282500Y895110D02*
X2283500Y895110D01*
X2329500Y895110D02*
X2330500Y895110D01*
X2281500Y894110D02*
X2285500Y894110D01*
X2327500Y894110D02*
X2332500Y894110D01*
X2280500Y893110D02*
X2287500Y893110D01*
X2326500Y893110D02*
X2332500Y893110D01*
X2280500Y892110D02*
X2288500Y892110D01*
X2324500Y892110D02*
X2333500Y892110D01*
X2280500Y891110D02*
X2290500Y891110D01*
X2322500Y891110D02*
X2333500Y891110D01*
X2280500Y890110D02*
X2292500Y890110D01*
X2320500Y890110D02*
X2332500Y890110D01*
X2281500Y889110D02*
X2294500Y889110D01*
X2319500Y889110D02*
X2331500Y889110D01*
X2282500Y888110D02*
X2295500Y888110D01*
X2317500Y888110D02*
X2330500Y888110D01*
X2284500Y887110D02*
X2297500Y887110D01*
X2315500Y887110D02*
X2328500Y887110D01*
X2286500Y886110D02*
X2299500Y886110D01*
X2314500Y886110D02*
X2327500Y886110D01*
X2287500Y885110D02*
X2300500Y885110D01*
X2312500Y885110D02*
X2325500Y885110D01*
X2289500Y884110D02*
X2302500Y884110D01*
X2310500Y884110D02*
X2323500Y884110D01*
X2291500Y883110D02*
X2304500Y883110D01*
X2308500Y883110D02*
X2321500Y883110D01*
X2293500Y882110D02*
X2320500Y882110D01*
X2294500Y881110D02*
X2318500Y881110D01*
X2296500Y880110D02*
X2316500Y880110D01*
X2298500Y879110D02*
X2315500Y879110D01*
X2299500Y878110D02*
X2313500Y878110D01*
X2298500Y877110D02*
X2314500Y877110D01*
X2296500Y876110D02*
X2316500Y876110D01*
X2295500Y875110D02*
X2318500Y875110D01*
X2293500Y874110D02*
X2319500Y874110D01*
X2291500Y873110D02*
X2304500Y873110D01*
X2308500Y873110D02*
X2321500Y873110D01*
X2290500Y872110D02*
X2303500Y872110D01*
X2310500Y872110D02*
X2323500Y872110D01*
X2288500Y871110D02*
X2301500Y871110D01*
X2311500Y871110D02*
X2324500Y871110D01*
X2286500Y870110D02*
X2299500Y870110D01*
X2313500Y870110D02*
X2326500Y870110D01*
X2284500Y869110D02*
X2297500Y869110D01*
X2315500Y869110D02*
X2328500Y869110D01*
X2283500Y868110D02*
X2296500Y868110D01*
X2317500Y868110D02*
X2330500Y868110D01*
X2281500Y867110D02*
X2294500Y867110D01*
X2318500Y867110D02*
X2331500Y867110D01*
X2280500Y866110D02*
X2292500Y866110D01*
X2320500Y866110D02*
X2332500Y866110D01*
X2280500Y865110D02*
X2291500Y865110D01*
X2322500Y865110D02*
X2333500Y865110D01*
X2280500Y864110D02*
X2289500Y864110D01*
X2323500Y864110D02*
X2333500Y864110D01*
X2280500Y863110D02*
X2287500Y863110D01*
X2325500Y863110D02*
X2332500Y863110D01*
X2280500Y862110D02*
X2285500Y862110D01*
X2327500Y862110D02*
X2332500Y862110D01*
X2282500Y861110D02*
X2284500Y861110D01*
X2329500Y861110D02*
X2331500Y861110D01*
X2280500Y843110D02*
X2333500Y843110D01*
X2280500Y842110D02*
X2333500Y842110D01*
X2280500Y841110D02*
X2333500Y841110D01*
X2280500Y840110D02*
X2333500Y840110D01*
X2280500Y839110D02*
X2333500Y839110D01*
X2280500Y838110D02*
X2333500Y838110D01*
X2280500Y837110D02*
X2333500Y837110D01*
X2280500Y836110D02*
X2286500Y836110D01*
X2303500Y836110D02*
X2309500Y836110D01*
X2327500Y836110D02*
X2333500Y836110D01*
X2280500Y835110D02*
X2286500Y835110D01*
X2303500Y835110D02*
X2309500Y835110D01*
X2327500Y835110D02*
X2333500Y835110D01*
X2280500Y834110D02*
X2286500Y834110D01*
X2303500Y834110D02*
X2309500Y834110D01*
X2327500Y834110D02*
X2333500Y834110D01*
X2280500Y833110D02*
X2286500Y833110D01*
X2303500Y833110D02*
X2309500Y833110D01*
X2327500Y833110D02*
X2333500Y833110D01*
X2280500Y832110D02*
X2286500Y832110D01*
X2303500Y832110D02*
X2309500Y832110D01*
X2327500Y832110D02*
X2333500Y832110D01*
X2280500Y831110D02*
X2286500Y831110D01*
X2303500Y831110D02*
X2309500Y831110D01*
X2327500Y831110D02*
X2333500Y831110D01*
X2280500Y830110D02*
X2286500Y830110D01*
X2303500Y830110D02*
X2309500Y830110D01*
X2327500Y830110D02*
X2333500Y830110D01*
X2280500Y829110D02*
X2286500Y829110D01*
X2303500Y829110D02*
X2309500Y829110D01*
X2327500Y829110D02*
X2333500Y829110D01*
X2280500Y828110D02*
X2286500Y828110D01*
X2303500Y828110D02*
X2309500Y828110D01*
X2327500Y828110D02*
X2333500Y828110D01*
X2280500Y827110D02*
X2286500Y827110D01*
X2303500Y827110D02*
X2309500Y827110D01*
X2327500Y827110D02*
X2333500Y827110D01*
X2280500Y826110D02*
X2286500Y826110D01*
X2303500Y826110D02*
X2309500Y826110D01*
X2327500Y826110D02*
X2333500Y826110D01*
X2280500Y825110D02*
X2286500Y825110D01*
X2303500Y825110D02*
X2309500Y825110D01*
X2327500Y825110D02*
X2333500Y825110D01*
X2280500Y824110D02*
X2286500Y824110D01*
X2303500Y824110D02*
X2309500Y824110D01*
X2327500Y824110D02*
X2333500Y824110D01*
X2280500Y823110D02*
X2286500Y823110D01*
X2303500Y823110D02*
X2309500Y823110D01*
X2327500Y823110D02*
X2333500Y823110D01*
X2280500Y822110D02*
X2286500Y822110D01*
X2303500Y822110D02*
X2309500Y822110D01*
X2327500Y822110D02*
X2333500Y822110D01*
X2280500Y821110D02*
X2286500Y821110D01*
X2303500Y821110D02*
X2310500Y821110D01*
X2326500Y821110D02*
X2332500Y821110D01*
X2280500Y820110D02*
X2287500Y820110D01*
X2302500Y820110D02*
X2310500Y820110D01*
X2326500Y820110D02*
X2332500Y820110D01*
X2280500Y819110D02*
X2287500Y819110D01*
X2302500Y819110D02*
X2311500Y819110D01*
X2325500Y819110D02*
X2332500Y819110D01*
X2281500Y818110D02*
X2288500Y818110D01*
X2301500Y818110D02*
X2312500Y818110D01*
X2324500Y818110D02*
X2332500Y818110D01*
X2281500Y817110D02*
X2290500Y817110D01*
X2299500Y817110D02*
X2313500Y817110D01*
X2323500Y817110D02*
X2331500Y817110D01*
X2282500Y816110D02*
X2331500Y816110D01*
X2282500Y815110D02*
X2330500Y815110D01*
X2283500Y814110D02*
X2329500Y814110D01*
X2284500Y813110D02*
X2304500Y813110D01*
X2308500Y813110D02*
X2328500Y813110D01*
X2285500Y812110D02*
X2303500Y812110D01*
X2309500Y812110D02*
X2327500Y812110D01*
X2287500Y811110D02*
X2302500Y811110D01*
X2311500Y811110D02*
X2325500Y811110D01*
X2289500Y810110D02*
X2300500Y810110D01*
X2313500Y810110D02*
X2323500Y810110D01*
X2280500Y791110D02*
X2332500Y791110D01*
X2280500Y790110D02*
X2333500Y790110D01*
X2280500Y789110D02*
X2333500Y789110D01*
X2280500Y788110D02*
X2333500Y788110D01*
X2280500Y787110D02*
X2333500Y787110D01*
X2280500Y786110D02*
X2333500Y786110D01*
X2280500Y785110D02*
X2333500Y785110D01*
X2280500Y784110D02*
X2286500Y784110D01*
X2303500Y784110D02*
X2309500Y784110D01*
X2327500Y784110D02*
X2333500Y784110D01*
X2280500Y783110D02*
X2286500Y783110D01*
X2303500Y783110D02*
X2309500Y783110D01*
X2327500Y783110D02*
X2333500Y783110D01*
X2280500Y782110D02*
X2286500Y782110D01*
X2303500Y782110D02*
X2309500Y782110D01*
X2327500Y782110D02*
X2333500Y782110D01*
X2280500Y781110D02*
X2286500Y781110D01*
X2303500Y781110D02*
X2309500Y781110D01*
X2327500Y781110D02*
X2333500Y781110D01*
X2280500Y780110D02*
X2286500Y780110D01*
X2303500Y780110D02*
X2309500Y780110D01*
X2327500Y780110D02*
X2333500Y780110D01*
X2280500Y779110D02*
X2286500Y779110D01*
X2303500Y779110D02*
X2309500Y779110D01*
X2327500Y779110D02*
X2333500Y779110D01*
X2280500Y778110D02*
X2286500Y778110D01*
X2303500Y778110D02*
X2309500Y778110D01*
X2327500Y778110D02*
X2333500Y778110D01*
X2280500Y777110D02*
X2286500Y777110D01*
X2303500Y777110D02*
X2309500Y777110D01*
X2327500Y777110D02*
X2333500Y777110D01*
X2280500Y776110D02*
X2286500Y776110D01*
X2303500Y776110D02*
X2309500Y776110D01*
X2327500Y776110D02*
X2333500Y776110D01*
X2280500Y775110D02*
X2286500Y775110D01*
X2303500Y775110D02*
X2309500Y775110D01*
X2327500Y775110D02*
X2333500Y775110D01*
X2280500Y774110D02*
X2286500Y774110D01*
X2303500Y774110D02*
X2309500Y774110D01*
X2327500Y774110D02*
X2333500Y774110D01*
X2280500Y773110D02*
X2286500Y773110D01*
X2303500Y773110D02*
X2309500Y773110D01*
X2327500Y773110D02*
X2333500Y773110D01*
X2280500Y772110D02*
X2286500Y772110D01*
X2304500Y772110D02*
X2309500Y772110D01*
X2327500Y772110D02*
X2333500Y772110D01*
X2280500Y771110D02*
X2286500Y771110D01*
X2304500Y771110D02*
X2308500Y771110D01*
X2327500Y771110D02*
X2333500Y771110D01*
X2280500Y770110D02*
X2286500Y770110D01*
X2327500Y770110D02*
X2333500Y770110D01*
X2280500Y769110D02*
X2286500Y769110D01*
X2327500Y769110D02*
X2333500Y769110D01*
X2280500Y768110D02*
X2286500Y768110D01*
X2327500Y768110D02*
X2333500Y768110D01*
X2280500Y767110D02*
X2286500Y767110D01*
X2327500Y767110D02*
X2333500Y767110D01*
X2280500Y766110D02*
X2286500Y766110D01*
X2327500Y766110D02*
X2333500Y766110D01*
X2280500Y765110D02*
X2286500Y765110D01*
X2327500Y765110D02*
X2333500Y765110D01*
X2280500Y764110D02*
X2286500Y764110D01*
X2327500Y764110D02*
X2333500Y764110D01*
X2280500Y763110D02*
X2286500Y763110D01*
X2327500Y763110D02*
X2333500Y763110D01*
X2280500Y762110D02*
X2286500Y762110D01*
X2327500Y762110D02*
X2333500Y762110D01*
X2280500Y761110D02*
X2285500Y761110D01*
X2327500Y761110D02*
X2332500Y761110D01*
X2281500Y760110D02*
X2285500Y760110D01*
X2328500Y760110D02*
X2332500Y760110D01*
X2282500Y759110D02*
X2283500Y759110D01*
X2329500Y759110D02*
X2330500Y759110D01*
X2281500Y740110D02*
X2331500Y740110D01*
X2280500Y739110D02*
X2333500Y739110D01*
X2280500Y738110D02*
X2333500Y738110D01*
X2280500Y737110D02*
X2333500Y737110D01*
X2280500Y736110D02*
X2333500Y736110D01*
X2280500Y735110D02*
X2333500Y735110D01*
X2280500Y734110D02*
X2333500Y734110D01*
X2280500Y733110D02*
X2286500Y733110D01*
X2303500Y733110D02*
X2310500Y733110D01*
X2326500Y733110D02*
X2333500Y733110D01*
X2280500Y732110D02*
X2286500Y732110D01*
X2303500Y732110D02*
X2309500Y732110D01*
X2327500Y732110D02*
X2333500Y732110D01*
X2280500Y731110D02*
X2286500Y731110D01*
X2303500Y731110D02*
X2309500Y731110D01*
X2327500Y731110D02*
X2333500Y731110D01*
X2280500Y730110D02*
X2286500Y730110D01*
X2303500Y730110D02*
X2309500Y730110D01*
X2327500Y730110D02*
X2333500Y730110D01*
X2280500Y729110D02*
X2286500Y729110D01*
X2303500Y729110D02*
X2309500Y729110D01*
X2327500Y729110D02*
X2333500Y729110D01*
X2280500Y728110D02*
X2286500Y728110D01*
X2303500Y728110D02*
X2309500Y728110D01*
X2327500Y728110D02*
X2333500Y728110D01*
X2280500Y727110D02*
X2286500Y727110D01*
X2303500Y727110D02*
X2309500Y727110D01*
X2327500Y727110D02*
X2333500Y727110D01*
X2280500Y726110D02*
X2286500Y726110D01*
X2303500Y726110D02*
X2309500Y726110D01*
X2327500Y726110D02*
X2333500Y726110D01*
X2280500Y725110D02*
X2286500Y725110D01*
X2303500Y725110D02*
X2309500Y725110D01*
X2327500Y725110D02*
X2333500Y725110D01*
X2280500Y724110D02*
X2286500Y724110D01*
X2303500Y724110D02*
X2309500Y724110D01*
X2327500Y724110D02*
X2333500Y724110D01*
X2280500Y723110D02*
X2286500Y723110D01*
X2303500Y723110D02*
X2309500Y723110D01*
X2327500Y723110D02*
X2333500Y723110D01*
X2280500Y722110D02*
X2286500Y722110D01*
X2303500Y722110D02*
X2309500Y722110D01*
X2327500Y722110D02*
X2333500Y722110D01*
X2280500Y721110D02*
X2286500Y721110D01*
X2303500Y721110D02*
X2309500Y721110D01*
X2327500Y721110D02*
X2333500Y721110D01*
X2280500Y720110D02*
X2286500Y720110D01*
X2304500Y720110D02*
X2308500Y720110D01*
X2327500Y720110D02*
X2333500Y720110D01*
X2280500Y719110D02*
X2286500Y719110D01*
X2305500Y719110D02*
X2307500Y719110D01*
X2327500Y719110D02*
X2333500Y719110D01*
X2280500Y718110D02*
X2286500Y718110D01*
X2327500Y718110D02*
X2333500Y718110D01*
X2280500Y717110D02*
X2286500Y717110D01*
X2327500Y717110D02*
X2333500Y717110D01*
X2280500Y716110D02*
X2286500Y716110D01*
X2327500Y716110D02*
X2333500Y716110D01*
X2280500Y715110D02*
X2286500Y715110D01*
X2327500Y715110D02*
X2333500Y715110D01*
X2280500Y714110D02*
X2286500Y714110D01*
X2327500Y714110D02*
X2333500Y714110D01*
X2280500Y713110D02*
X2286500Y713110D01*
X2327500Y713110D02*
X2333500Y713110D01*
X2280500Y712110D02*
X2286500Y712110D01*
X2327500Y712110D02*
X2333500Y712110D01*
X2280500Y711110D02*
X2286500Y711110D01*
X2327500Y711110D02*
X2333500Y711110D01*
X2280500Y710110D02*
X2285500Y710110D01*
X2327500Y710110D02*
X2333500Y710110D01*
X2280500Y709110D02*
X2285500Y709110D01*
X2327500Y709110D02*
X2332500Y709110D01*
X2281500Y708110D02*
X2284500Y708110D01*
X2328500Y708110D02*
X2331500Y708110D01*
X2282500Y638110D02*
X2332500Y638110D01*
X2280500Y637110D02*
X2333500Y637110D01*
X2280500Y636110D02*
X2333500Y636110D01*
X2280500Y635110D02*
X2333500Y635110D01*
X2280500Y634110D02*
X2333500Y634110D01*
X2280500Y633110D02*
X2333500Y633110D01*
X2281500Y632110D02*
X2333500Y632110D01*
X2300500Y631110D02*
X2306500Y631110D01*
X2327500Y631110D02*
X2333500Y631110D01*
X2300500Y630110D02*
X2306500Y630110D01*
X2327500Y630110D02*
X2333500Y630110D01*
X2300500Y629110D02*
X2306500Y629110D01*
X2327500Y629110D02*
X2333500Y629110D01*
X2300500Y628110D02*
X2306500Y628110D01*
X2327500Y628110D02*
X2333500Y628110D01*
X2300500Y627110D02*
X2306500Y627110D01*
X2327500Y627110D02*
X2333500Y627110D01*
X2300500Y626110D02*
X2306500Y626110D01*
X2327500Y626110D02*
X2333500Y626110D01*
X2300500Y625110D02*
X2306500Y625110D01*
X2327500Y625110D02*
X2333500Y625110D01*
X2300500Y624110D02*
X2306500Y624110D01*
X2327500Y624110D02*
X2333500Y624110D01*
X2300500Y623110D02*
X2306500Y623110D01*
X2327500Y623110D02*
X2333500Y623110D01*
X2300500Y622110D02*
X2306500Y622110D01*
X2327500Y622110D02*
X2333500Y622110D01*
X2300500Y621110D02*
X2306500Y621110D01*
X2327500Y621110D02*
X2333500Y621110D01*
X2300500Y620110D02*
X2306500Y620110D01*
X2327500Y620110D02*
X2333500Y620110D01*
X2300500Y619110D02*
X2306500Y619110D01*
X2327500Y619110D02*
X2333500Y619110D01*
X2300500Y618110D02*
X2306500Y618110D01*
X2327500Y618110D02*
X2333500Y618110D01*
X2300500Y617110D02*
X2306500Y617110D01*
X2327500Y617110D02*
X2333500Y617110D01*
X2300500Y616110D02*
X2306500Y616110D01*
X2327500Y616110D02*
X2333500Y616110D01*
X2300500Y615110D02*
X2306500Y615110D01*
X2327500Y615110D02*
X2333500Y615110D01*
X2300500Y614110D02*
X2306500Y614110D01*
X2327500Y614110D02*
X2333500Y614110D01*
X2300500Y613110D02*
X2307500Y613110D01*
X2326500Y613110D02*
X2333500Y613110D01*
X2300500Y612110D02*
X2307500Y612110D01*
X2326500Y612110D02*
X2332500Y612110D01*
X2301500Y611110D02*
X2309500Y611110D01*
X2324500Y611110D02*
X2332500Y611110D01*
X2301500Y610110D02*
X2332500Y610110D01*
X2302500Y609110D02*
X2331500Y609110D01*
X2302500Y608110D02*
X2331500Y608110D01*
X2303500Y607110D02*
X2330500Y607110D01*
X2304500Y606110D02*
X2329500Y606110D01*
X2306500Y605110D02*
X2327500Y605110D01*
X2309500Y604110D02*
X2324500Y604110D01*
X2281500Y586110D02*
X2333500Y586110D01*
X2280500Y585110D02*
X2333500Y585110D01*
X2280500Y584110D02*
X2333500Y584110D01*
X2280500Y583110D02*
X2333500Y583110D01*
X2280500Y582110D02*
X2333500Y582110D01*
X2281500Y581110D02*
X2333500Y581110D01*
X2282500Y580110D02*
X2333500Y580110D01*
X2309500Y579110D02*
X2315500Y579110D01*
X2327500Y579110D02*
X2333500Y579110D01*
X2309500Y578110D02*
X2315500Y578110D01*
X2327500Y578110D02*
X2333500Y578110D01*
X2309500Y577110D02*
X2315500Y577110D01*
X2327500Y577110D02*
X2333500Y577110D01*
X2309500Y576110D02*
X2315500Y576110D01*
X2327500Y576110D02*
X2333500Y576110D01*
X2309500Y575110D02*
X2315500Y575110D01*
X2327500Y575110D02*
X2333500Y575110D01*
X2307500Y574110D02*
X2315500Y574110D01*
X2327500Y574110D02*
X2333500Y574110D01*
X2305500Y573110D02*
X2315500Y573110D01*
X2327500Y573110D02*
X2333500Y573110D01*
X2304500Y572110D02*
X2315500Y572110D01*
X2327500Y572110D02*
X2333500Y572110D01*
X2302500Y571110D02*
X2315500Y571110D01*
X2327500Y571110D02*
X2333500Y571110D01*
X2300500Y570110D02*
X2315500Y570110D01*
X2327500Y570110D02*
X2333500Y570110D01*
X2299500Y569110D02*
X2315500Y569110D01*
X2327500Y569110D02*
X2333500Y569110D01*
X2297500Y568110D02*
X2315500Y568110D01*
X2327500Y568110D02*
X2333500Y568110D01*
X2295500Y567110D02*
X2315500Y567110D01*
X2327500Y567110D02*
X2333500Y567110D01*
X2294500Y566110D02*
X2307500Y566110D01*
X2309500Y566110D02*
X2315500Y566110D01*
X2327500Y566110D02*
X2333500Y566110D01*
X2292500Y565110D02*
X2305500Y565110D01*
X2309500Y565110D02*
X2315500Y565110D01*
X2327500Y565110D02*
X2333500Y565110D01*
X2290500Y564110D02*
X2303500Y564110D01*
X2309500Y564110D02*
X2315500Y564110D01*
X2327500Y564110D02*
X2333500Y564110D01*
X2288500Y563110D02*
X2301500Y563110D01*
X2309500Y563110D02*
X2315500Y563110D01*
X2327500Y563110D02*
X2333500Y563110D01*
X2287500Y562110D02*
X2300500Y562110D01*
X2309500Y562110D02*
X2315500Y562110D01*
X2327500Y562110D02*
X2333500Y562110D01*
X2285500Y561110D02*
X2298500Y561110D01*
X2309500Y561110D02*
X2316500Y561110D01*
X2326500Y561110D02*
X2333500Y561110D01*
X2283500Y560110D02*
X2296500Y560110D01*
X2309500Y560110D02*
X2317500Y560110D01*
X2325500Y560110D02*
X2332500Y560110D01*
X2282500Y559110D02*
X2295500Y559110D01*
X2310500Y559110D02*
X2332500Y559110D01*
X2280500Y558110D02*
X2293500Y558110D01*
X2310500Y558110D02*
X2331500Y558110D01*
X2280500Y557110D02*
X2291500Y557110D01*
X2311500Y557110D02*
X2331500Y557110D01*
X2280500Y556110D02*
X2289500Y556110D01*
X2312500Y556110D02*
X2330500Y556110D01*
X2280500Y555110D02*
X2288500Y555110D01*
X2313500Y555110D02*
X2329500Y555110D01*
X2280500Y554110D02*
X2286500Y554110D01*
X2314500Y554110D02*
X2328500Y554110D01*
X2281500Y553110D02*
X2284500Y553110D01*
X2316500Y553110D02*
X2326500Y553110D01*
X2303500Y535110D02*
X2310500Y535110D01*
X2300500Y534110D02*
X2312500Y534110D01*
X2298500Y533110D02*
X2315500Y533110D01*
X2296500Y532110D02*
X2317500Y532110D01*
X2294500Y531110D02*
X2319500Y531110D01*
X2292500Y530110D02*
X2321500Y530110D01*
X2290500Y529110D02*
X2323500Y529110D01*
X2288500Y528110D02*
X2303500Y528110D01*
X2310500Y528110D02*
X2325500Y528110D01*
X2286500Y527110D02*
X2300500Y527110D01*
X2312500Y527110D02*
X2327500Y527110D01*
X2284500Y526110D02*
X2298500Y526110D01*
X2314500Y526110D02*
X2328500Y526110D01*
X2283500Y525110D02*
X2296500Y525110D01*
X2316500Y525110D02*
X2330500Y525110D01*
X2282500Y524110D02*
X2294500Y524110D01*
X2318500Y524110D02*
X2331500Y524110D01*
X2281500Y523110D02*
X2292500Y523110D01*
X2320500Y523110D02*
X2331500Y523110D01*
X2280500Y522110D02*
X2290500Y522110D01*
X2322500Y522110D02*
X2332500Y522110D01*
X2280500Y521110D02*
X2288500Y521110D01*
X2324500Y521110D02*
X2332500Y521110D01*
X2280500Y520110D02*
X2287500Y520110D01*
X2326500Y520110D02*
X2332500Y520110D01*
X2280500Y519110D02*
X2286500Y519110D01*
X2326500Y519110D02*
X2333500Y519110D01*
X2280500Y518110D02*
X2286500Y518110D01*
X2327500Y518110D02*
X2333500Y518110D01*
X2280500Y517110D02*
X2286500Y517110D01*
X2326500Y517110D02*
X2333500Y517110D01*
X2280500Y516110D02*
X2287500Y516110D01*
X2325500Y516110D02*
X2332500Y516110D01*
X2280500Y515110D02*
X2289500Y515110D01*
X2323500Y515110D02*
X2332500Y515110D01*
X2281500Y514110D02*
X2291500Y514110D01*
X2321500Y514110D02*
X2332500Y514110D01*
X2281500Y513110D02*
X2293500Y513110D01*
X2319500Y513110D02*
X2331500Y513110D01*
X2282500Y512110D02*
X2295500Y512110D01*
X2317500Y512110D02*
X2330500Y512110D01*
X2283500Y511110D02*
X2298500Y511110D01*
X2315500Y511110D02*
X2329500Y511110D01*
X2285500Y510110D02*
X2300500Y510110D01*
X2313500Y510110D02*
X2327500Y510110D01*
X2287500Y509110D02*
X2302500Y509110D01*
X2311500Y509110D02*
X2325500Y509110D01*
X2289500Y508110D02*
X2323500Y508110D01*
X2291500Y507110D02*
X2321500Y507110D01*
X2293500Y506110D02*
X2319500Y506110D01*
X2295500Y505110D02*
X2317500Y505110D01*
X2297500Y504110D02*
X2315500Y504110D01*
X2299500Y503110D02*
X2313500Y503110D01*
X2301500Y502110D02*
X2311500Y502110D01*
X2306500Y501110D02*
X2306500Y501110D01*
X226500Y373110D02*
X227500Y373110D01*
X216500Y372110D02*
X237500Y372110D01*
X212500Y371110D02*
X241500Y371110D01*
X208500Y370110D02*
X245500Y370110D01*
X206500Y369110D02*
X247500Y369110D01*
X203500Y368110D02*
X250500Y368110D01*
X201500Y367110D02*
X252500Y367110D01*
X199500Y366110D02*
X254500Y366110D01*
X197500Y365110D02*
X256500Y365110D01*
X196500Y364110D02*
X257500Y364110D01*
X194500Y363110D02*
X259500Y363110D01*
X193500Y362110D02*
X260500Y362110D01*
X191500Y361110D02*
X262500Y361110D01*
X190500Y360110D02*
X263500Y360110D01*
X189500Y359110D02*
X264500Y359110D01*
X188500Y358110D02*
X265500Y358110D01*
X187500Y357110D02*
X266500Y357110D01*
X186500Y356110D02*
X268500Y356110D01*
X185500Y355110D02*
X268500Y355110D01*
X184500Y354110D02*
X269500Y354110D01*
X183500Y353110D02*
X270500Y353110D01*
X182500Y352110D02*
X271500Y352110D01*
X181500Y351110D02*
X272500Y351110D01*
X180500Y350110D02*
X273500Y350110D01*
X180500Y349110D02*
X274500Y349110D01*
X179500Y348110D02*
X274500Y348110D01*
X178500Y347110D02*
X275500Y347110D01*
X178500Y346110D02*
X276500Y346110D01*
X177500Y345110D02*
X276500Y345110D01*
X176500Y344110D02*
X277500Y344110D01*
X176500Y343110D02*
X277500Y343110D01*
X175500Y342110D02*
X278500Y342110D01*
X175500Y341110D02*
X279500Y341110D01*
X174500Y340110D02*
X279500Y340110D01*
X174500Y339110D02*
X280500Y339110D01*
X173500Y338110D02*
X280500Y338110D01*
X173500Y337110D02*
X280500Y337110D01*
X172500Y336110D02*
X281500Y336110D01*
X172500Y335110D02*
X281500Y335110D01*
X562500Y335110D02*
X574500Y335110D01*
X172500Y334110D02*
X282500Y334110D01*
X559500Y334110D02*
X578500Y334110D01*
X171500Y333110D02*
X282500Y333110D01*
X556500Y333110D02*
X580500Y333110D01*
X171500Y332110D02*
X282500Y332110D01*
X554500Y332110D02*
X582500Y332110D01*
X171500Y331110D02*
X283500Y331110D01*
X553500Y331110D02*
X561500Y331110D01*
X575500Y331110D02*
X584500Y331110D01*
X170500Y330110D02*
X283500Y330110D01*
X551500Y330110D02*
X558500Y330110D01*
X578500Y330110D02*
X585500Y330110D01*
X170500Y329110D02*
X283500Y329110D01*
X550500Y329110D02*
X556500Y329110D01*
X580500Y329110D02*
X587500Y329110D01*
X170500Y328110D02*
X283500Y328110D01*
X549500Y328110D02*
X554500Y328110D01*
X582500Y328110D02*
X588500Y328110D01*
X170500Y327110D02*
X284500Y327110D01*
X548500Y327110D02*
X553500Y327110D01*
X584500Y327110D02*
X589500Y327110D01*
X169500Y326110D02*
X284500Y326110D01*
X547500Y326110D02*
X551500Y326110D01*
X585500Y326110D02*
X590500Y326110D01*
X169500Y325110D02*
X284500Y325110D01*
X546500Y325110D02*
X550500Y325110D01*
X586500Y325110D02*
X591500Y325110D01*
X169500Y324110D02*
X284500Y324110D01*
X545500Y324110D02*
X549500Y324110D01*
X588500Y324110D02*
X592500Y324110D01*
X169500Y323110D02*
X284500Y323110D01*
X544500Y323110D02*
X548500Y323110D01*
X588500Y323110D02*
X592500Y323110D01*
X169500Y322110D02*
X285500Y322110D01*
X544500Y322110D02*
X547500Y322110D01*
X589500Y322110D02*
X593500Y322110D01*
X169500Y321110D02*
X285500Y321110D01*
X543500Y321110D02*
X546500Y321110D01*
X590500Y321110D02*
X594500Y321110D01*
X168500Y320110D02*
X285500Y320110D01*
X542500Y320110D02*
X546500Y320110D01*
X565500Y320110D02*
X571500Y320110D01*
X591500Y320110D02*
X594500Y320110D01*
X168500Y319110D02*
X285500Y319110D01*
X542500Y319110D02*
X545500Y319110D01*
X563500Y319110D02*
X574500Y319110D01*
X591500Y319110D02*
X595500Y319110D01*
X168500Y318110D02*
X285500Y318110D01*
X541500Y318110D02*
X545500Y318110D01*
X561500Y318110D02*
X576500Y318110D01*
X592500Y318110D02*
X595500Y318110D01*
X168500Y317110D02*
X285500Y317110D01*
X541500Y317110D02*
X544500Y317110D01*
X559500Y317110D02*
X577500Y317110D01*
X592500Y317110D02*
X596500Y317110D01*
X168500Y316110D02*
X285500Y316110D01*
X540500Y316110D02*
X544500Y316110D01*
X558500Y316110D02*
X578500Y316110D01*
X593500Y316110D02*
X596500Y316110D01*
X168500Y315110D02*
X285500Y315110D01*
X540500Y315110D02*
X543500Y315110D01*
X557500Y315110D02*
X579500Y315110D01*
X593500Y315110D02*
X596500Y315110D01*
X168500Y314110D02*
X285500Y314110D01*
X540500Y314110D02*
X543500Y314110D01*
X557500Y314110D02*
X580500Y314110D01*
X594500Y314110D02*
X597500Y314110D01*
X168500Y313110D02*
X285500Y313110D01*
X540500Y313110D02*
X543500Y313110D01*
X556500Y313110D02*
X581500Y313110D01*
X594500Y313110D02*
X597500Y313110D01*
X168500Y312110D02*
X285500Y312110D01*
X539500Y312110D02*
X542500Y312110D01*
X555500Y312110D02*
X581500Y312110D01*
X594500Y312110D02*
X597500Y312110D01*
X168500Y311110D02*
X285500Y311110D01*
X539500Y311110D02*
X542500Y311110D01*
X555500Y311110D02*
X582500Y311110D01*
X594500Y311110D02*
X597500Y311110D01*
X168500Y310110D02*
X285500Y310110D01*
X539500Y310110D02*
X542500Y310110D01*
X555500Y310110D02*
X582500Y310110D01*
X595500Y310110D02*
X598500Y310110D01*
X168500Y309110D02*
X285500Y309110D01*
X539500Y309110D02*
X542500Y309110D01*
X554500Y309110D02*
X582500Y309110D01*
X595500Y309110D02*
X598500Y309110D01*
X168500Y308110D02*
X285500Y308110D01*
X539500Y308110D02*
X542500Y308110D01*
X554500Y308110D02*
X582500Y308110D01*
X595500Y308110D02*
X598500Y308110D01*
X168500Y307110D02*
X285500Y307110D01*
X539500Y307110D02*
X542500Y307110D01*
X554500Y307110D02*
X583500Y307110D01*
X595500Y307110D02*
X598500Y307110D01*
X169500Y306110D02*
X285500Y306110D01*
X539500Y306110D02*
X542500Y306110D01*
X554500Y306110D02*
X583500Y306110D01*
X595500Y306110D02*
X598500Y306110D01*
X169500Y305110D02*
X284500Y305110D01*
X539500Y305110D02*
X542500Y305110D01*
X554500Y305110D02*
X583500Y305110D01*
X595500Y305110D02*
X598500Y305110D01*
X169500Y304110D02*
X284500Y304110D01*
X539500Y304110D02*
X542500Y304110D01*
X554500Y304110D02*
X583500Y304110D01*
X595500Y304110D02*
X598500Y304110D01*
X169500Y303110D02*
X284500Y303110D01*
X539500Y303110D02*
X542500Y303110D01*
X554500Y303110D02*
X582500Y303110D01*
X595500Y303110D02*
X598500Y303110D01*
X169500Y302110D02*
X284500Y302110D01*
X539500Y302110D02*
X542500Y302110D01*
X554500Y302110D02*
X582500Y302110D01*
X595500Y302110D02*
X598500Y302110D01*
X170500Y301110D02*
X284500Y301110D01*
X539500Y301110D02*
X542500Y301110D01*
X555500Y301110D02*
X582500Y301110D01*
X595500Y301110D02*
X598500Y301110D01*
X170500Y300110D02*
X283500Y300110D01*
X539500Y300110D02*
X542500Y300110D01*
X555500Y300110D02*
X582500Y300110D01*
X594500Y300110D02*
X597500Y300110D01*
X170500Y299110D02*
X283500Y299110D01*
X539500Y299110D02*
X542500Y299110D01*
X555500Y299110D02*
X581500Y299110D01*
X594500Y299110D02*
X597500Y299110D01*
X170500Y298110D02*
X283500Y298110D01*
X539500Y298110D02*
X543500Y298110D01*
X556500Y298110D02*
X581500Y298110D01*
X594500Y298110D02*
X597500Y298110D01*
X171500Y297110D02*
X283500Y297110D01*
X540500Y297110D02*
X543500Y297110D01*
X556500Y297110D02*
X580500Y297110D01*
X594500Y297110D02*
X597500Y297110D01*
X171500Y296110D02*
X282500Y296110D01*
X540500Y296110D02*
X543500Y296110D01*
X557500Y296110D02*
X579500Y296110D01*
X593500Y296110D02*
X596500Y296110D01*
X171500Y295110D02*
X282500Y295110D01*
X540500Y295110D02*
X544500Y295110D01*
X558500Y295110D02*
X578500Y295110D01*
X593500Y295110D02*
X596500Y295110D01*
X172500Y294110D02*
X282500Y294110D01*
X541500Y294110D02*
X544500Y294110D01*
X559500Y294110D02*
X577500Y294110D01*
X592500Y294110D02*
X596500Y294110D01*
X172500Y293110D02*
X281500Y293110D01*
X541500Y293110D02*
X545500Y293110D01*
X561500Y293110D02*
X576500Y293110D01*
X592500Y293110D02*
X595500Y293110D01*
X172500Y292110D02*
X281500Y292110D01*
X542500Y292110D02*
X545500Y292110D01*
X562500Y292110D02*
X574500Y292110D01*
X591500Y292110D02*
X595500Y292110D01*
X173500Y291110D02*
X280500Y291110D01*
X542500Y291110D02*
X546500Y291110D01*
X565500Y291110D02*
X571500Y291110D01*
X591500Y291110D02*
X594500Y291110D01*
X173500Y290110D02*
X280500Y290110D01*
X543500Y290110D02*
X546500Y290110D01*
X590500Y290110D02*
X594500Y290110D01*
X174500Y289110D02*
X280500Y289110D01*
X544500Y289110D02*
X547500Y289110D01*
X589500Y289110D02*
X593500Y289110D01*
X174500Y288110D02*
X279500Y288110D01*
X544500Y288110D02*
X548500Y288110D01*
X588500Y288110D02*
X592500Y288110D01*
X175500Y287110D02*
X279500Y287110D01*
X545500Y287110D02*
X549500Y287110D01*
X588500Y287110D02*
X592500Y287110D01*
X175500Y286110D02*
X278500Y286110D01*
X546500Y286110D02*
X550500Y286110D01*
X586500Y286110D02*
X591500Y286110D01*
X176500Y285110D02*
X277500Y285110D01*
X547500Y285110D02*
X551500Y285110D01*
X585500Y285110D02*
X590500Y285110D01*
X176500Y284110D02*
X277500Y284110D01*
X548500Y284110D02*
X553500Y284110D01*
X584500Y284110D02*
X589500Y284110D01*
X177500Y283110D02*
X276500Y283110D01*
X549500Y283110D02*
X554500Y283110D01*
X582500Y283110D02*
X588500Y283110D01*
X177500Y282110D02*
X276500Y282110D01*
X550500Y282110D02*
X556500Y282110D01*
X581500Y282110D02*
X587500Y282110D01*
X178500Y281110D02*
X275500Y281110D01*
X551500Y281110D02*
X558500Y281110D01*
X578500Y281110D02*
X585500Y281110D01*
X179500Y280110D02*
X274500Y280110D01*
X553500Y280110D02*
X561500Y280110D01*
X575500Y280110D02*
X584500Y280110D01*
X180500Y279110D02*
X274500Y279110D01*
X554500Y279110D02*
X582500Y279110D01*
X180500Y278110D02*
X273500Y278110D01*
X556500Y278110D02*
X580500Y278110D01*
X181500Y277110D02*
X272500Y277110D01*
X559500Y277110D02*
X578500Y277110D01*
X182500Y276110D02*
X271500Y276110D01*
X562500Y276110D02*
X574500Y276110D01*
X183500Y275110D02*
X270500Y275110D01*
X184500Y274110D02*
X269500Y274110D01*
X185500Y273110D02*
X269500Y273110D01*
X186500Y272110D02*
X268500Y272110D01*
X187500Y271110D02*
X266500Y271110D01*
X188500Y270110D02*
X265500Y270110D01*
X189500Y269110D02*
X264500Y269110D01*
X190500Y268110D02*
X263500Y268110D01*
X191500Y267110D02*
X262500Y267110D01*
X193500Y266110D02*
X260500Y266110D01*
X194500Y265110D02*
X259500Y265110D01*
X196500Y264110D02*
X257500Y264110D01*
X197500Y263110D02*
X256500Y263110D01*
X199500Y262110D02*
X254500Y262110D01*
X201500Y261110D02*
X252500Y261110D01*
X203500Y260110D02*
X250500Y260110D01*
X206500Y259110D02*
X247500Y259110D01*
X208500Y258110D02*
X245500Y258110D01*
X212500Y257110D02*
X241500Y257110D01*
X216500Y256110D02*
X237500Y256110D01*
X226500Y255110D02*
X227500Y255110D01*
D02*
G04 End of Silk1*
M02*