; NON-PLATED HOLES START AT T1
; THROUGH (PLATED) HOLES START AT T100
M48
INCH
T1C0.070000
T2C0.058000
T100C0.032778
T101C0.038000
T102C0.032000
%
T1
X003804Y023925
X003804Y026071
T2
X005002Y025946
X005002Y024040
T100
X004741Y013500
X005741Y013500
X006741Y013500
X003741Y013500
T101
X019741Y028495
X021741Y021500
X017741Y028495
X012741Y021500
X022741Y025995
X010741Y028495
X014741Y021500
X009741Y007500
X008741Y021500
X001741Y015500
X007741Y007500
X003741Y015500
X003741Y028495
X005741Y021500
X016741Y021500
X017741Y021500
X012741Y028495
X014741Y028495
X010741Y021500
X019741Y021500
X021741Y028495
X004741Y007500
X005741Y015500
X005741Y028495
X016741Y028495
X003741Y021500
X008741Y028495
X022741Y023995
X015741Y021500
X006741Y021500
X022741Y028495
X013741Y028495
X020741Y021500
X022741Y024995
X010741Y007500
X011741Y028495
X018741Y021500
X004741Y021500
X003741Y007500
X007741Y028495
X001741Y007500
X009741Y028495
X006742Y007500
X018741Y028495
X011741Y021500
X013741Y021500
X006741Y028495
X006741Y015500
X015741Y028495
X022741Y021500
X020741Y028495
X009741Y021500
X008741Y007500
X002742Y007500
X004741Y028495
X004741Y015500
X002741Y015500
X007741Y021500
X005741Y007500
T102
X018341Y009500
X014341Y009500
X014341Y018161
X018341Y018161
X015941Y009500
X015941Y018161
X019141Y018161
X019141Y009500
X013541Y009500
X013541Y018161
X012741Y018161
X017541Y009500
X012741Y009500
X017541Y018161
X015141Y009500
X015141Y018161
X016741Y009500
X019941Y018161
X016741Y018161
X019941Y009500
T00
M30
