<?xml version='1.0' encoding='UTF-8' standalone='no'?>
<!-- Created with Fritzing (https://fritzing.org/) -->
<svg xmlns="http://www.w3.org/2000/svg" baseProfile="tiny" height="3.14961in" version="1.2" viewBox="0 0 198.425 226.772" width="2.75591in" x="0in"  xmlns:svg="http://www.w3.org/2000/svg" y="0in">
 <g transform="matrix(-1, 0, 0, 1, 198.425, 0)">
  <g partID="855134270">
   <g id="board" >
    <rect fill="none" fill-opacity="0.5" height="226.196" id="boardoutline" stroke="black" stroke-width="0.5" width="197.849" x="0.288"  y="0.288"/>
   </g>
  </g>
  <g partID="855195500">
   <g transform="translate(2.16,2.16)">
    <g id="groundplane" >
     <path d="M193.982,0.0096L194.035,0.036L194.074,0.0792L194.098,0.132L194.105,0.1608L194.102,222.3L194.069,222.382L194.026,222.42L193.973,222.444L193.944,222.451L0.1512,222.449L0.0696,222.415L0.0312,222.372L0.0072,222.319L0,222.29L0.0024,0.1512L0.036,0.0696L0.0792,0.0312L0.132,0.0072L0.1608,0L193.925,0ZM60.6456,3.5088L60.432,3.5424L60.228,3.6048L59.9544,3.7416L59.7984,3.852L59.7192,3.9216L52.4928,11.1408L52.44,11.1672L52.3896,11.1744L50.7384,11.1768L50.6208,11.196L50.5104,11.2344L50.4072,11.2896L50.304,11.3688L50.232,11.448L50.1504,11.5728L50.1072,11.6136L50.0544,11.64L49.9968,11.6472L49.968,11.6448L49.9128,11.6232L49.8408,11.544L49.7376,11.4024L49.6584,11.3304L49.5624,11.2656L49.4424,11.2128L49.3344,11.1864L49.212,11.1744L43.5384,11.1768L43.4208,11.196L43.3104,11.2344L43.2072,11.2896L43.104,11.3688L43.032,11.448L42.9504,11.5728L42.9072,11.6136L42.8544,11.64L42.7968,11.6472L42.768,11.6448L42.7128,11.6232L42.6408,11.544L42.5376,11.4024L42.4584,11.3304L42.3624,11.2656L42.2424,11.2128L42.1344,11.1864L42.012,11.1744L36.3384,11.1768L36.2208,11.196L36.1104,11.2344L36.0072,11.2896L35.904,11.3688L35.832,11.448L35.7504,11.5728L35.7072,11.6136L35.6544,11.64L35.5968,11.6472L35.568,11.6448L35.5128,11.6232L35.4408,11.544L35.3376,11.4024L35.2584,11.3304L35.1624,11.2656L35.0424,11.2128L34.9344,11.1864L34.812,11.1744L29.1384,11.1768L29.0208,11.196L28.9104,11.2344L28.8072,11.2896L28.704,11.3688L28.632,11.448L28.5504,11.5728L28.5072,11.6136L28.4544,11.64L28.3968,11.6472L28.368,11.6448L28.3128,11.6232L28.2408,11.544L28.1376,11.4024L28.0584,11.3304L27.9624,11.2656L27.8424,11.2128L27.7344,11.1864L27.612,11.1744L21.9384,11.1768L21.8208,11.196L21.7104,11.2344L21.6072,11.2896L21.504,11.3688L21.432,11.448L21.3672,11.544L21.3192,11.6496L21.288,11.772L21.276,11.8944L21.276,19.0488L21.252,19.3992L21.252,19.4976L21.276,19.836L21.2784,22.32L21.2976,22.4376L21.336,22.548L21.36,22.6008L21.4248,22.6992L21.5328,22.8144L21.6456,22.8912L21.7512,22.9392L21.8736,22.9704L21.996,22.9824L27.6696,22.98L27.7872,22.9608L27.8976,22.9224L28.0008,22.8672L28.104,22.788L28.176,22.7088L28.2576,22.584L28.3008,22.5432L28.3536,22.5168L28.4112,22.5096L28.44,22.512L28.4952,22.5336L28.56,22.6008L28.6248,22.6992L28.7328,22.8144L28.8456,22.8912L28.9512,22.9392L29.0736,22.9704L29.196,22.9824L34.8696,22.98L34.9872,22.9608L35.0976,22.9224L35.2008,22.8672L35.304,22.788L35.376,22.7088L35.4576,22.584L35.5008,22.5432L35.5536,22.5168L35.6112,22.5096L35.64,22.512L35.6952,22.5336L35.76,22.6008L35.8248,22.6992L35.9328,22.8144L36.0456,22.8912L36.1512,22.9392L36.2736,22.9704L36.396,22.9824L42.0696,22.98L42.1872,22.9608L42.2976,22.9224L42.4008,22.8672L42.504,22.788L42.576,22.7088L42.6576,22.584L42.7008,22.5432L42.7536,22.5168L42.8112,22.5096L42.84,22.512L42.8952,22.5336L42.96,22.6008L43.0248,22.6992L43.1328,22.8144L43.2456,22.8912L43.3512,22.9392L43.4736,22.9704L43.596,22.9824L49.2696,22.98L49.3872,22.9608L49.4976,22.9224L49.6008,22.8672L49.704,22.788L49.776,22.7088L49.8576,22.584L49.9008,22.5432L49.9536,22.5168L50.0112,22.5096L50.04,22.512L50.0952,22.5336L50.16,22.6008L50.2248,22.6992L50.3328,22.8144L50.4456,22.8912L50.5512,22.9392L50.6736,22.9704L50.796,22.9824L56.4696,22.98L56.5872,22.9608L56.6976,22.9224L56.8008,22.8672L56.904,22.788L56.976,22.7088L57.0576,22.584L57.1008,22.5432L57.1536,22.5168L57.2112,22.5096L57.24,22.512L57.2952,22.5336L57.36,22.6008L57.4248,22.6992L57.5328,22.8144L57.6456,22.8912L57.7512,22.9392L57.8736,22.9704L57.996,22.9824L63.6696,22.98L63.7872,22.9608L63.8976,22.9224L64.0008,22.8672L64.104,22.788L64.176,22.7088L64.2576,22.584L64.3008,22.5432L64.3536,22.5168L64.4112,22.5096L64.44,22.512L64.4952,22.5336L64.56,22.6008L64.6248,22.6992L64.7328,22.8144L64.8456,22.8912L64.9512,22.9392L65.0736,22.9704L65.196,22.9824L70.8696,22.98L70.9872,22.9608L71.0976,22.9224L71.2008,22.8672L71.304,22.788L71.376,22.7088L71.4576,22.584L71.5008,22.5432L71.5536,22.5168L71.6112,22.5096L71.64,22.512L71.6952,22.5336L71.76,22.6008L71.8248,22.6992L71.9328,22.8144L72.0456,22.8912L72.1512,22.9392L72.2736,22.9704L72.396,22.9824L78.0696,22.98L78.1872,22.9608L78.2976,22.9224L78.4008,22.8672L78.504,22.788L78.576,22.7088L78.6576,22.584L78.7008,22.5432L78.7536,22.5168L78.8112,22.5096L78.84,22.512L78.8952,22.5336L78.96,22.6008L79.0248,22.6992L79.1328,22.8144L79.2456,22.8912L79.3512,22.9392L79.4736,22.9704L79.596,22.9824L85.2696,22.98L85.3872,22.9608L85.4976,22.9224L85.6008,22.8672L85.704,22.788L85.776,22.7088L85.8576,22.584L85.9008,22.5432L85.9536,22.5168L86.0112,22.5096L86.04,22.512L86.0952,22.5336L86.16,22.6008L86.2248,22.6992L86.3328,22.8144L86.4456,22.8912L86.5512,22.9392L86.6736,22.9704L86.796,22.9824L92.4696,22.98L92.5872,22.9608L92.6976,22.9224L92.8008,22.8672L92.904,22.788L92.976,22.7088L93.0576,22.584L93.1008,22.5432L93.1536,22.5168L93.2112,22.5096L93.24,22.512L93.2952,22.5336L93.36,22.6008L93.4248,22.6992L93.5328,22.8144L93.6456,22.8912L93.7512,22.9392L93.8736,22.9704L93.996,22.9824L99.6696,22.98L99.7872,22.9608L99.8976,22.9224L100.001,22.8672L100.104,22.788L100.176,22.7088L100.258,22.584L100.301,22.5432L100.354,22.5168L100.411,22.5096L100.44,22.512L100.495,22.5336L100.56,22.6008L100.625,22.6992L100.733,22.8144L100.846,22.8912L100.951,22.9392L101.074,22.9704L101.196,22.9824L106.87,22.98L106.987,22.9608L107.098,22.9224L107.201,22.8672L107.304,22.788L107.376,22.7088L107.458,22.584L107.501,22.5432L107.554,22.5168L107.611,22.5096L107.64,22.512L107.695,22.5336L107.76,22.6008L107.825,22.6992L107.933,22.8144L108.046,22.8912L108.151,22.9392L108.274,22.9704L108.396,22.9824L114.07,22.98L114.187,22.9608L114.298,22.9224L114.401,22.8672L114.504,22.788L114.576,22.7088L114.658,22.584L114.701,22.5432L114.754,22.5168L114.811,22.5096L114.84,22.512L114.895,22.5336L114.96,22.6008L115.025,22.6992L115.133,22.8144L115.246,22.8912L115.351,22.9392L115.474,22.9704L115.596,22.9824L121.27,22.98L121.387,22.9608L121.498,22.9224L121.601,22.8672L121.704,22.788L121.776,22.7088L121.858,22.584L121.901,22.5432L121.954,22.5168L122.011,22.5096L122.04,22.512L122.095,22.5336L122.16,22.6008L122.225,22.6992L122.333,22.8144L122.446,22.8912L122.551,22.9392L122.674,22.9704L122.796,22.9824L128.47,22.98L128.587,22.9608L128.698,22.9224L128.801,22.8672L128.904,22.788L128.976,22.7088L129.058,22.584L129.101,22.5432L129.154,22.5168L129.211,22.5096L129.24,22.512L129.295,22.5336L129.36,22.6008L129.425,22.6992L129.533,22.8144L129.646,22.8912L129.751,22.9392L129.874,22.9704L129.996,22.9824L135.67,22.98L135.787,22.9608L135.898,22.9224L136.001,22.8672L136.104,22.788L136.176,22.7088L136.258,22.584L136.301,22.5432L136.354,22.5168L136.411,22.5096L136.44,22.512L136.495,22.5336L136.56,22.6008L136.625,22.6992L136.733,22.8144L136.846,22.8912L136.951,22.9392L137.074,22.9704L137.196,22.9824L142.87,22.98L142.987,22.9608L143.098,22.9224L143.201,22.8672L143.304,22.788L143.376,22.7088L143.458,22.584L143.501,22.5432L143.554,22.5168L143.611,22.5096L143.64,22.512L143.695,22.5336L143.76,22.6008L143.825,22.6992L143.933,22.8144L144.046,22.8912L144.151,22.9392L144.274,22.9704L144.396,22.9824L150.07,22.98L150.187,22.9608L150.298,22.9224L150.401,22.8672L150.504,22.788L150.576,22.7088L150.658,22.584L150.701,22.5432L150.754,22.5168L150.811,22.5096L150.84,22.512L150.895,22.5336L150.96,22.6008L151.025,22.6992L151.133,22.8144L151.246,22.8912L151.351,22.9392L151.474,22.9704L151.596,22.9824L157.27,22.98L157.387,22.9608L157.498,22.9224L157.601,22.8672L157.704,22.788L157.776,22.7088L157.858,22.584L157.901,22.5432L157.954,22.5168L158.011,22.5096L158.04,22.512L158.095,22.5336L158.16,22.6008L158.225,22.6992L158.333,22.8144L158.446,22.8912L158.551,22.9392L158.674,22.9704L158.796,22.9824L164.47,22.98L164.587,22.9608L164.698,22.9224L164.801,22.8672L164.904,22.788L164.976,22.7088L165.048,22.6008L165.089,22.5072L165.12,22.3848L165.132,22.2624L165.13,11.8368L165.108,11.7096L165.072,11.6088L165.017,11.5056L164.938,11.4024L164.858,11.3304L164.762,11.2656L164.642,11.2128L164.534,11.1864L164.412,11.1744L158.738,11.1768L158.621,11.196L158.51,11.2344L158.407,11.2896L158.304,11.3688L158.232,11.448L158.15,11.5728L158.107,11.6136L158.054,11.64L157.997,11.6472L157.968,11.6448L157.913,11.6232L157.841,11.544L157.738,11.4024L157.658,11.3304L157.562,11.2656L157.442,11.2128L157.334,11.1864L157.212,11.1744L151.538,11.1768L151.421,11.196L151.31,11.2344L151.207,11.2896L151.104,11.3688L151.032,11.448L150.95,11.5728L150.907,11.6136L150.854,11.64L150.797,11.6472L150.768,11.6448L150.713,11.6232L150.641,11.544L150.538,11.4024L150.458,11.3304L150.362,11.2656L150.242,11.2128L150.134,11.1864L150.012,11.1744L144.338,11.1768L144.221,11.196L144.11,11.2344L144.007,11.2896L143.904,11.3688L143.832,11.448L143.75,11.5728L143.707,11.6136L143.654,11.64L143.597,11.6472L143.568,11.6448L143.513,11.6232L143.441,11.544L143.338,11.4024L143.258,11.3304L143.162,11.2656L143.042,11.2128L142.934,11.1864L142.812,11.1744L137.138,11.1768L137.021,11.196L136.91,11.2344L136.807,11.2896L136.704,11.3688L136.632,11.448L136.55,11.5728L136.507,11.6136L136.454,11.64L136.397,11.6472L136.368,11.6448L136.313,11.6232L136.241,11.544L136.138,11.4024L136.058,11.3304L135.962,11.2656L135.842,11.2128L135.734,11.1864L135.612,11.1744L129.938,11.1768L129.821,11.196L129.71,11.2344L129.607,11.2896L129.504,11.3688L129.432,11.448L129.35,11.5728L129.307,11.6136L129.254,11.64L129.197,11.6472L129.168,11.6448L129.113,11.6232L129.041,11.544L128.938,11.4024L128.858,11.3304L128.762,11.2656L128.642,11.2128L128.534,11.1864L128.412,11.1744L122.738,11.1768L122.621,11.196L122.51,11.2344L122.407,11.2896L122.304,11.3688L122.232,11.448L122.15,11.5728L122.107,11.6136L122.054,11.64L121.997,11.6472L121.968,11.6448L121.913,11.6232L121.841,11.544L121.738,11.4024L121.658,11.3304L121.562,11.2656L121.442,11.2128L121.334,11.1864L121.212,11.1744L115.538,11.1768L115.421,11.196L115.31,11.2344L115.207,11.2896L115.104,11.3688L115.032,11.448L114.95,11.5728L114.907,11.6136L114.854,11.64L114.797,11.6472L114.768,11.6448L114.713,11.6232L114.641,11.544L114.538,11.4024L114.458,11.3304L114.362,11.2656L114.242,11.2128L114.134,11.1864L114.012,11.1744L108.338,11.1768L108.221,11.196L108.11,11.2344L108.007,11.2896L107.904,11.3688L107.832,11.448L107.75,11.5728L107.707,11.6136L107.654,11.64L107.597,11.6472L107.568,11.6448L107.513,11.6232L107.441,11.544L107.338,11.4024L107.258,11.3304L107.162,11.2656L107.042,11.2128L106.934,11.1864L106.812,11.1744L101.138,11.1768L101.021,11.196L100.91,11.2344L100.807,11.2896L100.704,11.3688L100.632,11.448L100.55,11.5728L100.507,11.6136L100.454,11.64L100.397,11.6472L100.368,11.6448L100.313,11.6232L100.241,11.544L100.138,11.4024L100.058,11.3304L99.9624,11.2656L99.8424,11.2128L99.7344,11.1864L99.612,11.1744L93.9384,11.1768L93.8208,11.196L93.7104,11.2344L93.6072,11.2896L93.504,11.3688L93.432,11.448L93.3504,11.5728L93.3072,11.6136L93.2544,11.64L93.1968,11.6472L93.168,11.6448L93.1128,11.6232L93.0408,11.544L92.9376,11.4024L92.8584,11.3304L92.7624,11.2656L92.6424,11.2128L92.5344,11.1864L92.412,11.1744L86.7384,11.1768L86.6208,11.196L86.5104,11.2344L86.4072,11.2896L86.304,11.3688L86.232,11.448L86.1504,11.5728L86.1072,11.6136L86.0544,11.64L85.9968,11.6472L85.968,11.6448L85.9128,11.6232L85.8408,11.544L85.7376,11.4024L85.6584,11.3304L85.5624,11.2656L85.4424,11.2128L85.3344,11.1864L85.212,11.1744L79.5384,11.1768L79.4208,11.196L79.3104,11.2344L79.2072,11.2896L79.104,11.3688L79.032,11.448L78.9504,11.5728L78.9072,11.6136L78.8544,11.64L78.7968,11.6472L78.768,11.6448L78.7128,11.6232L78.6408,11.544L78.5376,11.4024L78.4584,11.3304L78.3624,11.2656L78.2424,11.2128L78.1344,11.1864L78.012,11.1744L72.3384,11.1768L72.2208,11.196L72.1104,11.2344L72.0072,11.2896L71.904,11.3688L71.832,11.448L71.7504,11.5728L71.7072,11.6136L71.6544,11.64L71.5968,11.6472L71.568,11.6448L71.5128,11.6232L71.4408,11.544L71.3376,11.4024L71.2584,11.3304L71.1624,11.2656L71.0424,11.2128L70.9344,11.1864L70.812,11.1744L65.1384,11.1768L65.0208,11.196L64.9104,11.2344L64.8072,11.2896L64.704,11.3688L64.632,11.448L64.5504,11.5728L64.5072,11.6136L64.4544,11.64L64.3968,11.6472L64.368,11.6448L64.3128,11.6232L64.2408,11.544L64.1376,11.4024L64.0584,11.3304L63.9624,11.2656L63.8424,11.2128L63.7344,11.1864L63.612,11.1744L57.9384,11.1768L57.8208,11.196L57.7104,11.2344L57.6072,11.2896L57.504,11.3688L57.432,11.448L57.3504,11.5728L57.3072,11.6136L57.2544,11.64L57.1968,11.6472L57.168,11.6448L57.1128,11.6232L57.0408,11.544L56.9208,11.376L56.904,11.3184L56.904,11.2608L56.9232,11.2056L56.9544,11.1648L61.4184,6.7032L61.4712,6.6768L61.524,6.6696L175.243,6.672L175.325,6.7056L181.622,12.8544L181.658,12.9024L181.675,12.9576L181.589,155.441L181.555,155.522L175.286,161.789L175.234,161.815L175.181,161.822L83.1648,161.974L83.1096,161.954L83.0664,161.923L76.2528,155.105L49.5024,114.842L49.4856,114.785L49.4904,114.727L49.512,114.672L49.5504,114.629L49.6296,114.59L111.257,114.48L111.444,114.451L111.617,114.406L133.351,107.249L133.538,107.167L133.74,107.04L133.92,106.889L134.078,106.706L141.475,96.48L141.523,96.4464L141.583,96.4272L141.924,96.3888L142.008,96.3672L142.421,96.2304L142.858,95.9976L143.268,95.664L143.568,95.2896L143.798,94.8576L143.95,94.3752L143.966,94.2816L144.01,93.8688L143.952,93.3216L143.803,92.8488L143.568,92.4096L143.249,92.0136L142.865,91.704L142.807,91.668L142.43,91.4712L142.366,91.4448L141.95,91.3152L141.864,91.3008L141.434,91.2576L141.343,91.2624L140.902,91.3128L140.83,91.3296L140.414,91.4664L139.978,91.6992L139.582,92.0184L139.267,92.4072L139.032,92.8536L138.9,93.2592L138.869,93.4152L138.826,93.8304L138.878,94.356L138.922,94.512L138.922,94.572L138.914,94.6008L138.89,94.644L131.834,104.393L131.786,104.426L110.866,111.314L49.5792,111.418L49.524,111.398L49.476,111.362L49.4496,111.324L49.2984,111.041L48.8832,110.527L48.7992,110.45L48.3552,110.1L48.2856,110.057L47.7528,109.776L47.688,109.75L47.0928,109.562L46.7568,109.505L46.4208,109.483L46.3344,109.483L45.984,109.507L45.6504,109.565L45.0672,109.75L44.9472,109.802L44.4096,110.093L44.3472,110.136L43.896,110.501L43.8336,110.57L43.4592,111.038L43.14,111.643L42.9384,112.255L42.9024,112.303L42.8544,112.337L42.7992,112.351L42.768,112.354L42.7128,112.342L42.6408,112.291L42.624,112.267L42.6072,112.229L42.4104,111.631L42.0984,111.041L41.6832,110.527L41.5992,110.45L41.1552,110.1L41.0856,110.057L40.8312,109.918L40.7928,109.877L40.7616,109.793L40.764,78.1872L40.7976,78.1056L40.8408,78.0672L40.8936,78.0432L40.9224,78.036L42.0696,78.0336L42.1872,78.0144L42.2976,77.976L42.4008,77.9208L42.504,77.8416L42.576,77.7624L42.6504,77.6496L42.6936,77.6088L42.7464,77.5824L42.804,77.5752L42.8328,77.5776L42.888,77.5992L42.96,77.6808L43.0248,77.7792L43.1328,77.8944L43.2456,77.9712L43.3512,78.0192L43.4736,78.0504L43.596,78.0624L49.2696,78.06L49.3872,78.0408L49.4976,78.0024L49.6008,77.9472L49.704,77.868L49.776,77.7888L49.8648,77.6496L49.908,77.6088L49.9608,77.5824L50.0184,77.5752L50.0472,77.5776L50.1024,77.5992L50.1648,77.6616L50.2248,77.7528L50.3328,77.868L50.4456,77.9448L50.5512,77.9928L50.6736,78.024L50.796,78.036L56.4696,78.0336L56.5872,78.0144L56.6976,77.976L56.8008,77.9208L56.904,77.8416L56.976,77.7624L57.0576,77.6376L57.1008,77.5968L57.1536,77.5704L57.2112,77.5632L57.24,77.5656L57.2952,77.5872L57.36,77.6544L57.4248,77.7528L57.5328,77.868L57.6456,77.9448L57.7512,77.9928L57.8736,78.024L57.996,78.036L63.6696,78.0336L63.7872,78.0144L63.8976,77.976L64.0008,77.9208L64.104,77.8416L64.176,77.7624L64.2576,77.6376L64.3008,77.5968L64.3536,77.5704L64.4112,77.5632L64.44,77.5656L64.4952,77.5872L64.56,77.6544L64.6248,77.7528L64.7328,77.868L64.8456,77.9448L64.9512,77.9928L65.0736,78.024L65.196,78.036L70.8696,78.0336L70.9872,78.0144L71.0976,77.976L71.2008,77.9208L71.304,77.8416L71.376,77.7624L71.4576,77.6376L71.5008,77.5968L71.5536,77.5704L71.6112,77.5632L71.64,77.5656L71.6952,77.5872L71.76,77.6544L71.8248,77.7528L71.9328,77.868L72.0456,77.9448L72.1512,77.9928L72.2736,78.024L72.396,78.036L78.0696,78.0336L78.1872,78.0144L78.2976,77.976L78.4008,77.9208L78.504,77.8416L78.576,77.7624L78.6576,77.6376L78.7008,77.5968L78.7536,77.5704L78.8112,77.5632L78.84,77.5656L78.8952,77.5872L78.96,77.6544L79.0248,77.7528L79.1328,77.868L79.2456,77.9448L79.3512,77.9928L79.4736,78.024L79.596,78.036L85.2696,78.0336L85.3872,78.0144L85.4976,77.976L85.6008,77.9208L85.704,77.8416L85.776,77.7624L85.8576,77.6376L85.9008,77.5968L85.9536,77.5704L86.0112,77.5632L86.04,77.5656L86.0952,77.5872L86.16,77.6544L86.2248,77.7528L86.3328,77.868L86.4456,77.9448L86.5512,77.9928L86.6736,78.024L86.796,78.036L92.4696,78.0336L92.5872,78.0144L92.6976,77.976L92.8008,77.9208L92.904,77.8416L92.976,77.7624L93.0576,77.6376L93.1008,77.5968L93.1536,77.5704L93.2112,77.5632L93.24,77.5656L93.2952,77.5872L93.36,77.6544L93.4248,77.7528L93.5328,77.868L93.6456,77.9448L93.7512,77.9928L93.8736,78.024L93.996,78.036L99.6696,78.0336L99.7872,78.0144L99.8976,77.976L100.001,77.9208L100.104,77.8416L100.176,77.7624L100.258,77.6376L100.301,77.5968L100.354,77.5704L100.411,77.5632L100.44,77.5656L100.495,77.5872L100.56,77.6544L100.625,77.7528L100.733,77.868L100.846,77.9448L100.951,77.9928L101.074,78.024L101.196,78.036L106.87,78.0336L106.987,78.0144L107.098,77.976L107.201,77.9208L107.304,77.8416L107.376,77.7624L107.458,77.6376L107.501,77.5968L107.554,77.5704L107.611,77.5632L107.64,77.5656L107.695,77.5872L107.76,77.6544L107.825,77.7528L107.89,77.8296L107.916,77.8824L107.923,77.94L107.921,77.9712L107.899,78.024L107.87,78.0624L103.344,82.584L103.291,82.6104L103.238,82.6176L96.6144,82.6248L96.4128,82.6584L96.3024,82.6896L96.0936,82.7712L95.9208,82.8648L95.7336,83.0064L88.4256,90.312L88.296,90.4704L88.2408,90.5496L88.1496,90.7128L88.0368,91.0296L87.9984,91.2864L87.9912,91.7496L87.9576,91.8312L87.7512,92.0112L87.6984,92.0688L87.4392,92.3928L87.396,92.46L87.192,92.8536L87.06,93.2592L87.0288,93.4152L86.9856,93.8304L87.0384,94.356L87.1968,94.8576L87.4296,95.2968L87.4752,95.3592L87.7392,95.6736L87.8016,95.7312L88.1184,95.9856L88.188,96.0288L88.5648,96.2256L88.6296,96.252L89.0496,96.3816L89.1384,96.396L89.5584,96.4416L90.096,96.3864L90.5808,96.2304L91.0176,95.9976L91.428,95.664L91.728,95.2896L91.9584,94.8576L92.1096,94.3752L92.1264,94.2816L92.1696,93.8688L92.112,93.3216L91.9632,92.8488L91.728,92.4096L91.4064,92.004L91.3848,91.9512L91.38,91.92L91.3872,91.8624L91.4112,91.8096L97.3992,85.8192L97.452,85.7928L97.5048,85.7856L104.129,85.7784L104.33,85.7448L104.534,85.6824L104.815,85.5408L104.995,85.4112L105.062,85.3512L112.339,78.0744L112.39,78.0456L112.45,78.036L114.07,78.0336L114.187,78.0144L114.298,77.976L114.401,77.9208L114.504,77.8416L114.576,77.7624L114.658,77.6376L114.701,77.5968L114.754,77.5704L114.811,77.5632L114.84,77.5656L114.895,77.5872L114.96,77.6544L115.025,77.7528L115.133,77.868L115.246,77.9448L115.351,77.9928L115.474,78.024L115.596,78.036L121.27,78.0336L121.387,78.0144L121.498,77.976L121.601,77.9208L121.704,77.8416L121.776,77.7624L121.858,77.6376L121.901,77.5968L121.954,77.5704L122.011,77.5632L122.04,77.5656L122.095,77.5872L122.16,77.6544L122.225,77.7528L122.333,77.868L122.446,77.9448L122.551,77.9928L122.674,78.024L122.796,78.036L128.47,78.0336L128.587,78.0144L128.698,77.976L128.801,77.9208L128.904,77.8416L128.976,77.7624L129.058,77.6376L129.101,77.5968L129.154,77.5704L129.211,77.5632L129.24,77.5656L129.295,77.5872L129.36,77.6544L129.425,77.7528L129.533,77.868L129.646,77.9448L129.751,77.9928L129.874,78.024L130.025,78.0384L130.106,78.072L130.145,78.1152L130.169,78.168L130.176,78.1968L128.575,91.572L128.551,91.6248L128.498,91.6752L128.395,91.7448L128.035,92.0448L127.747,92.4072L127.512,92.8536L127.38,93.2592L127.349,93.4152L127.306,93.8304L127.358,94.356L127.517,94.8576L127.745,95.2896L128.047,95.664L128.095,95.712L128.446,95.9904L128.508,96.0288L128.885,96.2256L128.95,96.252L129.37,96.3816L129.458,96.396L129.878,96.4416L130.416,96.3864L130.901,96.2304L131.338,95.9976L131.748,95.664L132.048,95.2896L132.278,94.8576L132.43,94.3752L132.446,94.2816L132.49,93.8688L132.432,93.3216L132.283,92.8488L132.048,92.4096L131.748,92.0352L131.726,91.98L131.722,91.9512L133.37,78.1656L133.394,78.1128L133.462,78.0552L133.517,78.0384L135.67,78.0336L135.787,78.0144L135.898,77.976L136.001,77.9208L136.104,77.8416L136.176,77.7624L136.258,77.6376L136.301,77.5968L136.354,77.5704L136.411,77.5632L136.44,77.5656L136.495,77.5872L136.56,77.6544L136.625,77.7528L136.733,77.868L136.831,77.9424L136.865,77.9904L136.882,78.048L136.879,78.0984L134.467,91.5096L134.438,91.56L134.395,91.6008L134.218,91.6992L133.822,92.0184L133.507,92.4072L133.272,92.8536L133.14,93.2592L133.109,93.4152L133.066,93.8304L133.118,94.356L133.277,94.8576L133.505,95.2896L133.807,95.664L133.855,95.712L134.206,95.9904L134.268,96.0288L134.645,96.2256L134.71,96.252L135.13,96.3816L135.218,96.396L135.638,96.4416L136.176,96.3864L136.661,96.2304L137.098,95.9976L137.508,95.664L137.808,95.2896L138.038,94.8576L138.19,94.3752L138.206,94.2816L138.25,93.8688L138.192,93.3216L138.043,92.8488L137.808,92.4096L137.614,92.1552L137.599,92.1288L137.59,92.0712L137.592,92.0352L140.088,78.156L140.117,78.1056L140.16,78.0648L140.213,78.0408L140.244,78.036L142.87,78.0336L142.987,78.0144L143.098,77.976L143.201,77.9208L143.304,77.8416L143.376,77.7624L143.458,77.6376L143.501,77.5968L143.554,77.5704L143.611,77.5632L143.64,77.5656L143.695,77.5872L143.76,77.6544L143.825,77.7528L143.933,77.868L144.046,77.9448L144.151,77.9928L144.274,78.024L144.396,78.036L150.07,78.0336L150.187,78.0144L150.298,77.976L150.401,77.9208L150.504,77.8416L150.576,77.7624L150.658,77.6376L150.701,77.5968L150.754,77.5704L150.811,77.5632L150.84,77.5656L150.895,77.5872L150.96,77.6544L151.025,77.7528L151.133,77.868L151.246,77.9448L151.351,77.9928L151.474,78.024L151.596,78.036L157.27,78.0336L157.387,78.0144L157.498,77.976L157.601,77.9208L157.704,77.8416L157.776,77.7624L157.858,77.6376L157.901,77.5968L157.954,77.5704L158.011,77.5632L158.04,77.5656L158.095,77.5872L158.16,77.6544L158.225,77.7528L158.333,77.868L158.446,77.9448L158.551,77.9928L158.674,78.024L158.796,78.036L164.47,78.0336L164.587,78.0144L164.698,77.976L164.801,77.9208L164.904,77.8416L164.976,77.7624L165.048,77.6544L165.089,77.5608L165.12,77.4384L165.132,77.316L165.13,66.8904L165.106,66.7536L165.041,66.5976L164.938,66.456L164.858,66.384L164.762,66.3192L164.642,66.2664L164.534,66.24L164.412,66.228L158.738,66.2304L158.621,66.2496L158.51,66.288L158.407,66.3432L158.304,66.4224L158.232,66.5016L158.15,66.6264L158.107,66.6672L158.054,66.6936L157.997,66.7008L157.968,66.6984L157.913,66.6768L157.841,66.5976L157.738,66.456L157.658,66.384L157.562,66.3192L157.442,66.2664L157.334,66.24L157.212,66.228L151.538,66.2304L151.421,66.2496L151.31,66.288L151.207,66.3432L151.104,66.4224L151.032,66.5016L150.95,66.6264L150.907,66.6672L150.854,66.6936L150.797,66.7008L150.768,66.6984L150.713,66.6768L150.641,66.5976L150.538,66.456L150.458,66.384L150.362,66.3192L150.242,66.2664L150.134,66.24L150.012,66.228L144.338,66.2304L144.221,66.2496L144.11,66.288L144.007,66.3432L143.904,66.4224L143.832,66.5016L143.75,66.6264L143.707,66.6672L143.654,66.6936L143.597,66.7008L143.568,66.6984L143.513,66.6768L143.441,66.5976L143.338,66.456L143.258,66.384L143.162,66.3192L143.042,66.2664L142.934,66.24L142.812,66.228L137.138,66.2304L137.021,66.2496L136.91,66.288L136.807,66.3432L136.704,66.4224L136.632,66.5016L136.55,66.6264L136.507,66.6672L136.454,66.6936L136.397,66.7008L136.368,66.6984L136.313,66.6768L136.241,66.5976L136.138,66.456L136.058,66.384L135.962,66.3192L135.842,66.2664L135.734,66.24L135.612,66.228L129.938,66.2304L129.821,66.2496L129.71,66.288L129.607,66.3432L129.504,66.4224L129.432,66.5016L129.35,66.6264L129.307,66.6672L129.254,66.6936L129.197,66.7008L129.168,66.6984L129.113,66.6768L129.041,66.5976L128.938,66.456L128.858,66.384L128.762,66.3192L128.642,66.2664L128.534,66.24L128.412,66.228L122.738,66.2304L122.621,66.2496L122.51,66.288L122.407,66.3432L122.304,66.4224L122.232,66.5016L122.15,66.6264L122.107,66.6672L122.054,66.6936L121.997,66.7008L121.968,66.6984L121.913,66.6768L121.841,66.5976L121.738,66.456L121.658,66.384L121.562,66.3192L121.442,66.2664L121.334,66.24L121.212,66.228L115.538,66.2304L115.421,66.2496L115.31,66.288L115.207,66.3432L115.104,66.4224L115.032,66.5016L114.95,66.6264L114.907,66.6672L114.854,66.6936L114.797,66.7008L114.768,66.6984L114.713,66.6768L114.641,66.5976L114.538,66.456L114.458,66.384L114.362,66.3192L114.242,66.2664L114.134,66.24L114.012,66.228L108.338,66.2304L108.221,66.2496L108.11,66.288L108.007,66.3432L107.904,66.4224L107.832,66.5016L107.75,66.6264L107.707,66.6672L107.654,66.6936L107.597,66.7008L107.568,66.6984L107.513,66.6768L107.441,66.5976L107.338,66.456L107.258,66.384L107.162,66.3192L107.042,66.2664L106.934,66.24L106.812,66.228L101.138,66.2304L101.021,66.2496L100.91,66.288L100.807,66.3432L100.704,66.4224L100.632,66.5016L100.55,66.6264L100.507,66.6672L100.454,66.6936L100.397,66.7008L100.368,66.6984L100.313,66.6768L100.241,66.5976L100.138,66.456L100.058,66.384L99.9624,66.3192L99.8424,66.2664L99.7344,66.24L99.612,66.228L93.9384,66.2304L93.8208,66.2496L93.7104,66.288L93.6072,66.3432L93.504,66.4224L93.432,66.5016L93.3504,66.6264L93.3072,66.6672L93.2544,66.6936L93.1968,66.7008L93.168,66.6984L93.1128,66.6768L93.0408,66.5976L92.9376,66.456L92.8584,66.384L92.7624,66.3192L92.6424,66.2664L92.5344,66.24L92.412,66.228L86.7384,66.2304L86.6208,66.2496L86.5104,66.288L86.4072,66.3432L86.304,66.4224L86.232,66.5016L86.1504,66.6264L86.1072,66.6672L86.0544,66.6936L85.9968,66.7008L85.968,66.6984L85.9128,66.6768L85.8408,66.5976L85.7376,66.456L85.6584,66.384L85.5624,66.3192L85.4424,66.2664L85.3344,66.24L85.212,66.228L79.5384,66.2304L79.4208,66.2496L79.3104,66.288L79.2072,66.3432L79.104,66.4224L79.032,66.5016L78.9504,66.6264L78.9072,66.6672L78.8544,66.6936L78.7968,66.7008L78.768,66.6984L78.7128,66.6768L78.6408,66.5976L78.5376,66.456L78.4584,66.384L78.3624,66.3192L78.2424,66.2664L78.1344,66.24L78.012,66.228L72.3384,66.2304L72.2208,66.2496L72.1104,66.288L72.0072,66.3432L71.904,66.4224L71.832,66.5016L71.7504,66.6264L71.7072,66.6672L71.6544,66.6936L71.5968,66.7008L71.568,66.6984L71.5128,66.6768L71.4408,66.5976L71.3376,66.456L71.2584,66.384L71.1624,66.3192L71.0424,66.2664L70.9344,66.24L70.812,66.228L65.1384,66.2304L65.0208,66.2496L64.9104,66.288L64.8072,66.3432L64.704,66.4224L64.632,66.5016L64.5504,66.6264L64.5072,66.6672L64.4544,66.6936L64.3968,66.7008L64.368,66.6984L64.3128,66.6768L64.2408,66.5976L64.1376,66.456L64.0584,66.384L63.9624,66.3192L63.8424,66.2664L63.7344,66.24L63.612,66.228L57.9384,66.2304L57.8208,66.2496L57.7104,66.288L57.6072,66.3432L57.504,66.4224L57.432,66.5016L57.3504,66.6264L57.3072,66.6672L57.2544,66.6936L57.1968,66.7008L57.168,66.6984L57.1128,66.6768L57.0408,66.5976L56.9376,66.456L56.8584,66.384L56.7624,66.3192L56.6424,66.2664L56.5344,66.24L56.412,66.228L50.7384,66.2304L50.6208,66.2496L50.5104,66.288L50.4072,66.3432L50.304,66.4224L50.232,66.5016L50.1432,66.6408L50.1,66.6816L50.0472,66.708L49.9896,66.7152L49.9608,66.7128L49.9056,66.6912L49.8432,66.6288L49.7376,66.4824L49.6584,66.4104L49.5624,66.3456L49.4424,66.2928L49.3344,66.2664L49.212,66.2544L43.5384,66.2568L43.4208,66.276L43.3104,66.3144L43.2072,66.3696L43.104,66.4488L43.032,66.528L42.9576,66.6408L42.9144,66.6816L42.8616,66.708L42.804,66.7152L42.7752,66.7128L42.72,66.6912L42.6504,66.6168L42.576,66.5016L42.4584,66.384L42.3624,66.3192L42.2424,66.2664L42.1344,66.24L42.012,66.228L36.3384,66.2304L36.2208,66.2496L36.1104,66.288L36.0072,66.3432L35.904,66.4224L35.832,66.5016L35.7504,66.6264L35.7072,66.6672L35.6544,66.6936L35.5968,66.7008L35.568,66.6984L35.5128,66.6768L35.4408,66.5976L35.3376,66.456L35.2584,66.384L35.1624,66.3192L35.0424,66.2664L34.9344,66.24L34.812,66.228L29.1384,66.2304L29.0208,66.2496L28.9104,66.288L28.8072,66.3432L28.704,66.4224L28.632,66.5016L28.5312,66.6576L28.4904,66.696L28.4064,66.7272L28.3488,66.7224L28.2936,66.7008L28.2504,66.6624L28.1376,66.5064L28.0584,66.4344L27.9624,66.3696L27.8424,66.3168L27.7344,66.2904L27.612,66.2784L21.9384,66.2808L21.8208,66.3L21.7104,66.3384L21.6072,66.3936L21.504,66.4728L21.432,66.552L21.3672,66.648L21.3192,66.7536L21.288,66.876L21.276,66.9984L21.2736,69.4104L21.2616,69.4968L21.2472,69.7728L21.2472,69.8592L21.2616,70.1232L21.276,70.2504L21.2784,77.4L21.2976,77.5176L21.336,77.628L21.3912,77.7312L21.4632,77.8272L21.5496,77.9064L21.6456,77.9712L21.7512,78.0192L21.8736,78.0504L21.996,78.0624L23.04,78.0648L23.1216,78.0984L23.16,78.1416L23.184,78.1944L23.1912,78.2424L23.1912,109.805L23.1576,109.886L23.0976,109.934L22.8096,110.093L22.2552,110.542L21.8664,111.031L21.8232,111.101L21.5352,111.65L21.3384,112.255L21.3024,112.303L21.2544,112.337L21.1704,112.354L21.1128,112.342L21.0864,112.33L21.0408,112.291L21.024,112.267L21.0072,112.229L20.8152,111.643L20.4912,111.038L20.4504,110.978L20.0856,110.527L20.0136,110.462L19.5552,110.1L19.4856,110.057L18.9528,109.776L18.888,109.75L18.2928,109.562L17.952,109.505L17.6208,109.483L17.5344,109.483L17.184,109.507L16.8504,109.565L16.2672,109.75L16.1472,109.802L15.6096,110.093L15.0552,110.542L14.6664,111.031L14.6232,111.101L14.3352,111.65L14.1384,112.255L14.1024,112.303L14.0544,112.337L13.9704,112.354L13.9128,112.342L13.8864,112.33L13.8408,112.291L13.824,112.267L13.8072,112.229L13.6152,111.643L13.2912,111.038L13.2504,110.978L12.8856,110.527L12.8088,110.46L12.3576,110.1L11.748,109.774L11.688,109.75L11.0928,109.562L10.752,109.505L10.4208,109.483L10.3344,109.483L9.9864,109.507L9.6024,109.577L9.0096,109.771L8.3952,110.102L7.8552,110.542L7.4664,111.031L7.4232,111.101L7.1424,111.634L7.1112,111.71L6.9432,112.236L6.9192,112.339L6.8616,112.721L6.8496,113.057L6.864,113.323L6.9432,113.782L7.1376,114.374L7.1664,114.437L7.428,114.926L7.5024,115.037L7.8984,115.522L8.3952,115.92L9.0048,116.246L9.0672,116.27L9.6216,116.446L9.9792,116.513L10.0632,116.522L10.416,116.537L10.6896,116.522L10.7736,116.513L11.148,116.441L11.7408,116.251L12.3576,115.918L12.8904,115.486L13.2912,114.984L13.6104,114.384L13.6416,114.307L13.8168,113.762L13.8528,113.714L13.9008,113.681L13.956,113.666L13.9872,113.664L14.0424,113.676L14.1144,113.726L14.1312,113.75L14.148,113.789L14.3352,114.372L14.628,114.926L14.7024,115.037L15.0984,115.522L15.5952,115.92L16.2024,116.244L16.2696,116.27L16.824,116.446L17.1792,116.513L17.2632,116.522L17.616,116.537L17.8896,116.522L17.9736,116.513L18.348,116.441L18.9408,116.251L19.5456,115.927L19.608,115.884L20.064,115.514L20.4912,114.984L20.8104,114.384L20.8416,114.307L21.0168,113.762L21.0528,113.714L21.1008,113.681L21.156,113.666L21.1872,113.664L21.2424,113.676L21.3144,113.726L21.3312,113.75L21.348,113.789L21.5352,114.372L21.828,114.926L21.9024,115.037L22.2984,115.522L22.7952,115.92L23.124,116.102L23.1624,116.143L23.1936,116.227L23.1912,124.685L23.1576,124.766L23.1024,124.812L22.9896,124.886L22.5984,125.206L22.5336,125.275L22.2096,125.686L21.9336,126.206L21.7464,126.782L21.6768,127.387L21.6816,127.49L21.744,128.021L21.7632,128.095L21.9312,128.609L22.2096,129.137L22.5672,129.583L22.6464,129.655L23.04,129.967L23.1024,130.006L23.568,130.25L23.6328,130.277L24.1512,130.438L24.24,130.454L24.756,130.51L24.8712,130.512L24.9528,130.546L24.9912,130.589L50.4456,168.77L50.4624,168.828L50.4576,168.886L50.436,168.941L50.3976,168.984L50.3472,169.013L50.3184,169.022L49.5864,169.02L49.5288,169.001L49.4832,168.965L49.4568,168.926L49.2984,168.638L48.8592,168.094L48.3504,167.688L47.7528,167.369L47.6904,167.345L47.136,167.17L46.7784,167.102L46.6944,167.093L46.344,167.078L46.068,167.093L45.984,167.102L45.6096,167.174L45.0216,167.362L44.4,167.698L43.8696,168.127L43.4688,168.629L43.1472,169.231L43.116,169.308L42.9384,169.858L42.9024,169.906L42.8544,169.939L42.7992,169.956L42.7392,169.951L42.6864,169.93L42.6408,169.894L42.624,169.87L42.6072,169.831L42.4152,169.243L42.0912,168.638L42.0504,168.578L41.6856,168.127L41.6136,168.062L41.1408,167.688L40.5408,167.371L39.8904,167.162L39.5544,167.105L39.2184,167.083L39.132,167.083L38.7864,167.107L38.4024,167.177L37.8096,167.371L37.2096,167.69L37.1472,167.734L36.6936,168.103L36.6288,168.173L36.2664,168.631L36.2232,168.701L35.9424,169.234L35.9112,169.31L35.736,169.855L35.7,169.903L35.652,169.937L35.5968,169.951L35.5656,169.954L35.5104,169.942L35.4384,169.891L35.4216,169.867L35.4048,169.829L35.2176,169.246L34.8912,168.638L34.8504,168.578L34.4856,168.127L34.4136,168.062L33.948,167.693L33.3408,167.371L32.6904,167.162L32.3544,167.105L32.0184,167.083L31.932,167.083L31.5816,167.107L31.248,167.165L30.6096,167.371L30.0048,167.69L29.4888,168.108L29.4168,168.187L29.0664,168.631L29.0232,168.701L28.7424,169.234L28.7112,169.31L28.536,169.855L28.5,169.903L28.452,169.937L28.3968,169.951L28.3656,169.954L28.3104,169.942L28.2384,169.891L28.2216,169.867L28.2048,169.829L28.0176,169.246L27.6912,168.638L27.6504,168.578L27.2856,168.127L27.2136,168.062L26.748,167.693L26.1408,167.371L25.4904,167.162L25.1544,167.105L24.8184,167.083L24.732,167.083L24.3816,167.107L24.048,167.165L23.4096,167.371L22.8048,167.69L22.2888,168.108L22.2312,168.17L21.8568,168.638L21.5376,169.243L21.3408,169.843L21.3048,169.891L21.2568,169.925L21.1728,169.942L21.1152,169.93L21.0888,169.918L21.0432,169.879L21.0264,169.855L21.0096,169.817L20.82,169.243L20.496,168.638L20.4552,168.578L20.0904,168.127L20.0184,168.062L19.5456,167.688L18.9576,167.376L18.8928,167.35L18.2976,167.162L17.9568,167.105L17.6256,167.083L17.5392,167.083L17.1888,167.107L16.8144,167.177L16.2168,167.371L16.152,167.4L15.6144,167.69L15.552,167.734L15.0984,168.103L15.0336,168.173L14.6712,168.631L14.628,168.701L14.3472,169.234L14.316,169.31L14.1432,169.85L14.1072,169.898L14.0592,169.932L13.9752,169.949L13.9176,169.937L13.8912,169.925L13.8456,169.886L13.8288,169.862L13.812,169.824L13.62,169.243L13.296,168.638L13.2552,168.578L12.8904,168.127L12.8184,168.062L12.3456,167.688L11.7456,167.371L11.0952,167.162L10.7592,167.105L10.4232,167.083L10.3368,167.083L9.9912,167.107L9.6072,167.177L9.0144,167.371L8.4096,167.69L7.8936,168.108L7.8216,168.187L7.4712,168.631L7.428,168.701L7.1472,169.234L7.116,169.31L6.948,169.836L6.924,169.939L6.876,170.234L6.8544,170.566L6.8544,170.664L6.8784,171.002L6.948,171.382L7.1424,171.974L7.1712,172.037L7.4328,172.526L7.5072,172.639L7.872,173.09L7.9416,173.153L8.3952,173.518L9.0144,173.846L9.6648,174.055L10.0056,174.113L10.3368,174.134L10.4232,174.134L10.7736,174.11L11.148,174.041L11.7456,173.846L11.8104,173.818L12.348,173.527L12.4104,173.484L12.864,173.114L12.9288,173.045L13.2912,172.586L13.3344,172.517L13.6152,171.984L13.6464,171.907L13.8216,171.367L13.8576,171.319L13.9056,171.286L13.9608,171.269L14.0496,171.281L14.1192,171.331L14.136,171.355L14.1528,171.394L14.3424,171.974L14.3712,172.037L14.6328,172.526L14.7072,172.639L15.072,173.09L15.144,173.155L15.6096,173.525L15.6648,173.558L16.2048,173.842L16.272,173.868L16.8672,174.055L17.2032,174.113L17.5392,174.134L17.6256,174.134L17.9712,174.11L18.3552,174.041L18.948,173.846L19.548,173.527L19.6104,173.484L20.064,173.114L20.1288,173.045L20.4912,172.586L20.5344,172.517L20.8152,171.984L20.8464,171.907L21.0192,171.374L21.0552,171.326L21.1032,171.293L21.1584,171.276L21.2472,171.288L21.3168,171.338L21.3336,171.362L21.3504,171.401L21.516,171.919L21.5664,172.034L21.8544,172.577L22.2696,173.09L22.3368,173.153L22.7904,173.518L23.4096,173.846L24.06,174.055L24.396,174.113L24.732,174.134L24.8184,174.134L25.1688,174.11L25.5024,174.053L26.1408,173.846L26.7528,173.522L27.2592,173.114L27.324,173.045L27.6864,172.586L27.7296,172.517L28.0176,171.967L28.2144,171.362L28.2504,171.314L28.2984,171.281L28.3824,171.264L28.44,171.276L28.4664,171.288L28.512,171.326L28.5288,171.35L28.5456,171.389L28.7376,171.974L28.7664,172.037L29.028,172.526L29.1024,172.639L29.4672,173.09L29.5368,173.153L29.9904,173.518L30.6096,173.846L31.26,174.055L31.596,174.113L31.932,174.134L32.0184,174.134L32.3688,174.11L32.7024,174.053L33.3408,173.846L33.9528,173.522L34.4592,173.114L34.524,173.045L34.8864,172.586L34.9296,172.517L35.2176,171.967L35.4144,171.362L35.4504,171.314L35.4984,171.281L35.5824,171.264L35.64,171.276L35.6664,171.288L35.712,171.326L35.7288,171.35L35.7456,171.389L35.9376,171.974L35.9664,172.037L36.228,172.526L36.3024,172.639L36.6672,173.09L36.7392,173.155L37.2048,173.525L37.26,173.558L37.8,173.842L37.8648,173.868L38.46,174.055L38.8008,174.113L39.132,174.134L39.2184,174.134L39.5688,174.11L39.9432,174.041L40.1808,173.966L40.2408,173.966L40.296,173.986L40.3368,174.017L45.3168,179.016L45.5568,179.191L45.6888,179.263L45.9168,179.35L45.996,179.369L46.2912,179.414L53.748,179.41L53.844,179.395L54.0648,179.345L54.3744,179.206L54.5448,179.095L54.6288,179.026L54.7368,178.925L59.6424,174L59.6952,173.974L59.7528,173.966L59.784,173.969L60.0624,174.055L60.3984,174.113L60.7344,174.134L60.8208,174.134L61.1712,174.11L61.5048,174.053L62.1432,173.846L62.7552,173.522L63.264,173.11L63.3216,173.047L63.6912,172.586L64.0152,171.974L64.2168,171.362L64.2528,171.314L64.3008,171.281L64.356,171.266L64.3872,171.264L64.4424,171.276L64.5144,171.326L64.5312,171.35L64.548,171.389L64.74,171.974L65.0568,172.577L65.472,173.09L65.5392,173.153L65.9928,173.518L66.612,173.846L67.2624,174.055L67.5984,174.113L67.9344,174.134L68.0208,174.134L68.3712,174.11L68.7048,174.053L69.3432,173.846L69.9552,173.522L70.464,173.11L70.5216,173.047L70.8912,172.586L71.2152,171.974L71.4168,171.362L71.4528,171.314L71.5008,171.281L71.556,171.266L71.5872,171.264L71.6424,171.276L71.7144,171.326L71.7312,171.35L71.748,171.389L71.94,171.974L72.2568,172.577L72.672,173.09L72.7392,173.153L73.1928,173.518L73.812,173.846L74.4624,174.055L74.7984,174.113L75.1344,174.134L75.2208,174.134L75.5712,174.11L75.9048,174.053L76.5432,173.846L77.1552,173.522L77.664,173.11L77.7216,173.047L78.0912,172.586L78.4152,171.974L78.624,171.324L78.6816,170.983L78.7032,170.652L78.7032,170.554L78.6792,170.215L78.6216,169.882L78.4296,169.279L78.3864,169.183L78.0984,168.641L77.6832,168.127L77.616,168.065L77.1624,167.7L76.5432,167.371L75.8928,167.162L75.5568,167.105L75.2208,167.083L75.1344,167.083L74.8416,167.1L74.784,167.09L74.7312,167.064L74.6928,167.021L49.2096,128.791L49.1928,128.734L49.1976,128.676L49.2528,128.542L49.4088,128.035L49.4256,127.942L49.4808,127.43L49.476,127.327L49.4136,126.799L49.2264,126.211L48.948,125.683L48.5832,125.23L48.5136,125.167L48.1248,124.853L48.0216,124.786L47.9856,124.738L47.9664,124.682L47.964,118.822L47.9976,118.74L48.0408,118.702L48.0936,118.678L48.1224,118.67L48.1824,118.675L48.2352,118.697L48.2808,118.735L73.74,157.046L73.9104,157.25L81.3864,164.724L81.5376,164.849L81.7752,164.988L81.972,165.067L82.0896,165.101L82.3992,165.144L176.071,164.983L176.141,164.974L176.388,164.918L176.621,164.827L176.808,164.714L176.894,164.65L177.034,164.527L184.406,157.142L184.55,156.934L184.654,156.713L184.721,156.497L184.754,156.259L184.843,12.1344L184.812,11.9136L184.733,11.6496L184.601,11.3928L184.486,11.232L184.33,11.064L177.024,3.9336L176.748,3.7272L176.491,3.6024L176.311,3.5472L176.09,3.5088L175.999,3.504ZM106.339,153.672L105.91,153.806L105.854,153.828L105.418,154.061L105.007,154.394L104.707,154.769L104.477,155.201L104.34,155.621L104.309,155.777L104.266,156.19L104.318,156.718L104.472,157.21L104.676,157.598L104.753,157.711L105.022,158.04L105.086,158.098L105.406,158.352L105.468,158.39L105.845,158.587L105.91,158.614L106.325,158.743L106.411,158.758L106.841,158.801L106.932,158.796L107.374,158.746L107.446,158.729L107.861,158.592L108.298,158.359L108.694,158.04L109.008,157.651L109.241,157.21L109.382,156.775L109.406,156.643L109.45,156.228L109.392,155.683L109.243,155.21L109.01,154.769L108.701,154.387L108.307,154.066L107.87,153.833L107.806,153.806L107.386,153.677L107.297,153.662L106.877,153.617ZM112.099,153.672L111.67,153.806L111.614,153.828L111.178,154.061L110.767,154.394L110.467,154.769L110.237,155.201L110.1,155.621L110.069,155.777L110.026,156.19L110.078,156.718L110.232,157.21L110.436,157.598L110.513,157.711L110.782,158.04L110.846,158.098L111.166,158.352L111.228,158.39L111.605,158.587L111.67,158.614L112.085,158.743L112.171,158.758L112.601,158.801L112.692,158.796L113.134,158.746L113.206,158.729L113.621,158.592L114.058,158.359L114.454,158.04L114.768,157.651L115.001,157.21L115.142,156.775L115.166,156.643L115.21,156.228L115.152,155.683L115.003,155.21L114.77,154.769L114.461,154.387L114.067,154.066L113.63,153.833L113.566,153.806L113.146,153.677L113.057,153.662L112.637,153.617ZM117.859,153.672L117.43,153.806L117.374,153.828L116.938,154.061L116.527,154.394L116.227,154.769L115.997,155.201L115.86,155.621L115.829,155.777L115.786,156.19L115.838,156.718L115.992,157.21L116.196,157.598L116.273,157.711L116.542,158.04L116.606,158.098L116.926,158.352L116.988,158.39L117.365,158.587L117.43,158.614L117.845,158.743L117.931,158.758L118.361,158.801L118.452,158.796L118.894,158.746L118.966,158.729L119.381,158.592L119.818,158.359L120.214,158.04L120.528,157.651L120.761,157.21L120.902,156.775L120.926,156.643L120.97,156.228L120.912,155.683L120.763,155.21L120.53,154.769L120.221,154.387L119.827,154.066L119.39,153.833L119.326,153.806L118.906,153.677L118.817,153.662L118.397,153.617ZM123.619,153.672L123.19,153.806L123.134,153.828L122.698,154.061L122.287,154.394L121.987,154.769L121.757,155.201L121.62,155.621L121.589,155.777L121.546,156.19L121.598,156.718L121.752,157.21L121.956,157.598L122.033,157.711L122.302,158.04L122.366,158.098L122.686,158.352L122.748,158.39L123.125,158.587L123.19,158.614L123.605,158.743L123.691,158.758L124.121,158.801L124.212,158.796L124.654,158.746L124.726,158.729L125.141,158.592L125.578,158.359L125.974,158.04L126.288,157.651L126.521,157.21L126.662,156.775L126.686,156.643L126.73,156.228L126.672,155.683L126.523,155.21L126.29,154.769L125.981,154.387L125.587,154.066L125.15,153.833L125.086,153.806L124.666,153.677L124.577,153.662L124.157,153.617ZM129.379,153.672L128.95,153.806L128.894,153.828L128.458,154.061L128.047,154.394L127.747,154.769L127.517,155.201L127.38,155.621L127.349,155.777L127.306,156.19L127.358,156.718L127.512,157.21L127.716,157.598L127.793,157.711L128.062,158.04L128.126,158.098L128.446,158.352L128.508,158.39L128.885,158.587L128.95,158.614L129.365,158.743L129.451,158.758L129.881,158.801L129.972,158.796L130.414,158.746L130.486,158.729L130.901,158.592L131.338,158.359L131.734,158.04L132.048,157.651L132.281,157.21L132.422,156.775L132.446,156.643L132.49,156.228L132.432,155.683L132.283,155.21L132.05,154.769L131.741,154.387L131.347,154.066L130.91,153.833L130.846,153.806L130.426,153.677L130.337,153.662L129.917,153.617ZM135.139,153.672L134.71,153.806L134.654,153.828L134.218,154.061L133.807,154.394L133.507,154.769L133.277,155.201L133.14,155.621L133.109,155.777L133.066,156.19L133.118,156.718L133.272,157.21L133.476,157.598L133.553,157.711L133.822,158.04L133.886,158.098L134.206,158.352L134.268,158.39L134.645,158.587L134.71,158.614L135.125,158.743L135.211,158.758L135.641,158.801L135.732,158.796L136.174,158.746L136.246,158.729L136.661,158.592L137.098,158.359L137.494,158.04L137.808,157.651L138.041,157.21L138.182,156.775L138.206,156.643L138.25,156.228L138.192,155.683L138.043,155.21L137.81,154.769L137.501,154.387L137.107,154.066L136.67,153.833L136.606,153.806L136.186,153.677L136.097,153.662L135.677,153.617ZM94.8192,153.672L94.3896,153.806L94.3344,153.828L93.8976,154.061L93.4872,154.394L93.1872,154.769L92.9568,155.201L92.82,155.621L92.7888,155.777L92.7456,156.19L92.7984,156.718L92.952,157.21L93.156,157.598L93.2328,157.711L93.5016,158.04L93.5664,158.098L93.8856,158.352L93.948,158.39L94.3248,158.587L94.3896,158.614L94.8048,158.743L94.8912,158.758L95.3208,158.801L95.412,158.796L95.8536,158.746L95.9256,158.729L96.3408,158.592L96.7776,158.359L97.1736,158.04L97.488,157.651L97.7208,157.21L97.8624,156.775L97.8864,156.643L97.9296,156.228L97.872,155.683L97.7232,155.21L97.4904,154.769L97.1808,154.387L96.7872,154.066L96.3504,153.833L96.2856,153.806L95.8656,153.677L95.7768,153.662L95.3568,153.617ZM89.0592,153.672L88.6296,153.806L88.5744,153.828L88.1376,154.061L88.068,154.111L87.7536,154.37L87.6984,154.428L87.4752,154.699L87.396,154.822L87.1968,155.201L87.06,155.621L87.0288,155.777L86.9856,156.19L87.0384,156.718L87.192,157.21L87.396,157.598L87.4752,157.716L87.7368,158.033L87.8016,158.093L88.1184,158.347L88.188,158.39L88.5648,158.587L88.6296,158.614L89.0448,158.743L89.1312,158.758L89.5608,158.801L89.652,158.796L90.0936,158.746L90.1656,158.729L90.5808,158.592L91.0176,158.359L91.4136,158.04L91.728,157.651L91.9608,157.21L92.1024,156.775L92.1264,156.643L92.1696,156.228L92.112,155.683L91.9632,155.21L91.7304,154.769L91.4208,154.387L91.0272,154.066L90.5904,153.833L90.5256,153.806L90.1056,153.677L90.0168,153.662L89.5968,153.617ZM100.579,153.672L100.15,153.806L100.094,153.828L99.6576,154.061L99.2472,154.394L98.9472,154.769L98.7168,155.201L98.58,155.621L98.5488,155.777L98.5056,156.19L98.5584,156.718L98.712,157.21L98.916,157.598L98.9928,157.711L99.2616,158.04L99.3264,158.098L99.6456,158.352L99.708,158.39L100.085,158.587L100.15,158.614L100.565,158.743L100.651,158.758L101.081,158.801L101.172,158.796L101.614,158.746L101.686,158.729L102.101,158.592L102.538,158.359L102.934,158.04L103.248,157.651L103.481,157.21L103.622,156.775L103.646,156.643L103.69,156.228L103.632,155.683L103.483,155.21L103.25,154.769L102.941,154.387L102.547,154.066L102.11,153.833L102.046,153.806L101.626,153.677L101.537,153.662L101.117,153.617ZM140.899,153.672L140.47,153.806L140.414,153.828L139.978,154.061L139.567,154.394L139.267,154.769L139.037,155.201L138.9,155.621L138.869,155.777L138.826,156.19L138.878,156.718L139.032,157.21L139.236,157.598L139.313,157.711L139.582,158.04L139.646,158.098L139.966,158.352L140.028,158.39L140.405,158.587L140.47,158.614L140.885,158.743L140.971,158.758L141.401,158.801L141.492,158.796L141.934,158.746L142.006,158.729L142.421,158.592L142.858,158.359L143.254,158.04L143.568,157.651L143.801,157.21L143.942,156.775L143.966,156.643L144.01,156.228L143.952,155.683L143.803,155.21L143.57,154.769L143.261,154.387L142.867,154.066L142.43,153.833L142.366,153.806L141.946,153.677L141.857,153.662L141.437,153.617ZM112.543,91.2624L112.102,91.3128L112.03,91.3296L111.614,91.4664L111.178,91.6992L110.782,92.0184L110.467,92.4072L110.232,92.8536L110.1,93.2592L110.069,93.4152L110.026,93.8304L110.078,94.356L110.237,94.8576L110.465,95.2896L110.767,95.664L110.815,95.712L111.166,95.9904L111.228,96.0288L111.605,96.2256L111.67,96.252L112.09,96.3816L112.178,96.396L112.598,96.4416L113.136,96.3864L113.621,96.2304L114.058,95.9976L114.468,95.664L114.768,95.2896L114.998,94.8576L115.15,94.3752L115.166,94.2816L115.21,93.8688L115.152,93.3216L115.003,92.8488L114.768,92.4096L114.449,92.0136L114.065,91.704L114.007,91.668L113.63,91.4712L113.566,91.4448L113.15,91.3152L113.064,91.3008L112.634,91.2576ZM101.023,91.2624L100.582,91.3128L100.51,91.3296L100.094,91.4664L99.6576,91.6992L99.2616,92.0184L98.9472,92.4072L98.712,92.8536L98.58,93.2592L98.5488,93.4152L98.5056,93.8304L98.5584,94.356L98.7168,94.8576L98.9448,95.2896L99.2472,95.664L99.2952,95.712L99.6456,95.9904L99.708,96.0288L100.085,96.2256L100.15,96.252L100.57,96.3816L100.658,96.396L101.078,96.4416L101.616,96.3864L102.101,96.2304L102.538,95.9976L102.948,95.664L103.248,95.2896L103.478,94.8576L103.63,94.3752L103.646,94.2816L103.69,93.8688L103.632,93.3216L103.483,92.8488L103.248,92.4096L102.929,92.0136L102.545,91.704L102.487,91.668L102.11,91.4712L102.046,91.4448L101.63,91.3152L101.544,91.3008L101.114,91.2576ZM106.783,91.2624L106.342,91.3128L106.27,91.3296L105.854,91.4664L105.418,91.6992L105.022,92.0184L104.707,92.4072L104.472,92.8536L104.34,93.2592L104.309,93.4152L104.266,93.8304L104.318,94.356L104.477,94.8576L104.705,95.2896L105.007,95.664L105.055,95.712L105.406,95.9904L105.468,96.0288L105.845,96.2256L105.91,96.252L106.33,96.3816L106.418,96.396L106.838,96.4416L107.376,96.3864L107.861,96.2304L108.298,95.9976L108.708,95.664L109.008,95.2896L109.238,94.8576L109.39,94.3752L109.406,94.2816L109.45,93.8688L109.392,93.3216L109.243,92.8488L109.008,92.4096L108.689,92.0136L108.305,91.704L108.247,91.668L107.87,91.4712L107.806,91.4448L107.39,91.3152L107.304,91.3008L106.874,91.2576ZM95.2632,91.2624L94.8216,91.3128L94.7496,91.3296L94.3344,91.4664L93.8976,91.6992L93.5016,92.0184L93.1872,92.4072L92.952,92.8536L92.82,93.2592L92.7888,93.4152L92.7456,93.8304L92.7984,94.356L92.9568,94.8576L93.1848,95.2896L93.4872,95.664L93.5352,95.712L93.8856,95.9904L93.948,96.0288L94.3248,96.2256L94.3896,96.252L94.8096,96.3816L94.8984,96.396L95.3184,96.4416L95.856,96.3864L96.3408,96.2304L96.7776,95.9976L97.188,95.664L97.488,95.2896L97.7184,94.8576L97.8696,94.3752L97.8864,94.2816L97.9296,93.8688L97.872,93.3216L97.7232,92.8488L97.488,92.4096L97.1688,92.0136L96.7848,91.704L96.7272,91.668L96.3504,91.4712L96.2856,91.4448L95.8704,91.3152L95.784,91.3008L95.3544,91.2576ZM118.303,91.2624L117.862,91.3128L117.79,91.3296L117.374,91.4664L116.938,91.6992L116.542,92.0184L116.227,92.4072L115.992,92.8536L115.86,93.2592L115.829,93.4152L115.786,93.8304L115.838,94.356L115.997,94.8576L116.225,95.2896L116.527,95.664L116.575,95.712L116.926,95.9904L116.988,96.0288L117.365,96.2256L117.43,96.252L117.85,96.3816L117.938,96.396L118.358,96.4416L118.896,96.3864L119.381,96.2304L119.818,95.9976L120.228,95.664L120.528,95.2896L120.758,94.8576L120.91,94.3752L120.926,94.2816L120.97,93.8688L120.912,93.3216L120.763,92.8488L120.528,92.4096L120.209,92.0136L119.825,91.704L119.767,91.668L119.39,91.4712L119.326,91.4448L118.91,91.3152L118.824,91.3008L118.394,91.2576ZM124.063,91.2624L123.622,91.3128L123.55,91.3296L123.134,91.4664L122.698,91.6992L122.302,92.0184L121.987,92.4072L121.752,92.8536L121.62,93.2592L121.589,93.4152L121.546,93.8304L121.598,94.356L121.757,94.8576L121.985,95.2896L122.287,95.664L122.335,95.712L122.686,95.9904L122.748,96.0288L123.125,96.2256L123.19,96.252L123.61,96.3816L123.698,96.396L124.118,96.4416L124.656,96.3864L125.141,96.2304L125.578,95.9976L125.988,95.664L126.288,95.2896L126.518,94.8576L126.67,94.3752L126.686,94.2816L126.73,93.8688L126.672,93.3216L126.523,92.8488L126.288,92.4096L125.969,92.0136L125.585,91.704L125.527,91.668L125.15,91.4712L125.086,91.4448L124.67,91.3152L124.584,91.3008L124.154,91.2576ZM25.1592,49.1064L24.588,49.1664L24.0384,49.332L23.8992,49.392L23.4144,49.6608L22.9392,50.0496L22.5456,50.5296L22.248,51.0768L22.2144,51.1608L22.0584,51.684L22.0416,51.7776L21.9912,52.3368L21.9936,52.416L22.0536,52.9848L22.0728,53.064L22.2408,53.592L22.2744,53.6664L22.5384,54.1464L22.5864,54.2112L22.932,54.6264L22.992,54.6816L23.412,55.0248L23.964,55.3248L24.036,55.3536L24.5664,55.5144L25.2144,55.584L25.3056,55.5792L25.8696,55.5192L25.9632,55.4952L26.4792,55.332L26.568,55.2912L27.0408,55.0296L27.5184,54.636L27.9144,54.1584L27.9528,54.096L28.212,53.6136L28.2456,53.5224L28.4016,53.0064L28.4712,52.3536L28.4064,51.7032L28.3824,51.6048L28.2408,51.1488L28.1832,51.0168L27.912,50.5272L27.5304,50.0592L27.0456,49.6584L26.9832,49.62L26.5008,49.3608L26.424,49.332L25.8888,49.1712L25.8096,49.1568L25.2432,49.104ZM161.309,33.9264L158.148,33.9264L157.973,33.948L157.862,33.9864L157.759,34.0416L157.656,34.1208L157.584,34.2L157.519,34.296L157.471,34.4016L157.44,34.524L157.428,34.6464L157.43,40.32L157.45,40.4376L157.488,40.548L157.512,40.6008L157.577,40.6992L157.685,40.8144L157.826,40.908L157.867,40.9512L157.894,41.004L157.901,41.0616L157.898,41.0904L157.877,41.1456L157.798,41.2176L157.656,41.3208L157.584,41.4L157.519,41.496L157.471,41.6016L157.44,41.724L157.428,41.8464L157.43,47.52L157.45,47.6376L157.488,47.748L157.512,47.8008L157.577,47.8992L157.685,48.0144L157.826,48.108L157.867,48.1512L157.894,48.204L157.901,48.2616L157.898,48.2904L157.877,48.3456L157.798,48.4176L157.656,48.5208L157.584,48.6L157.519,48.696L157.471,48.8016L157.44,48.924L157.428,49.0464L157.43,54.72L157.45,54.8376L157.488,54.948L157.512,55.0008L157.577,55.0992L157.685,55.2144L157.798,55.2912L157.903,55.3392L158.026,55.3704L158.148,55.3824L168.574,55.38L168.691,55.3608L168.802,55.3224L168.905,55.2672L169.008,55.188L169.08,55.1088L169.152,55.0008L169.193,54.9072L169.224,54.7848L169.236,54.6624L169.234,48.9888L169.212,48.8616L169.176,48.7608L169.121,48.6576L169.042,48.5544L168.962,48.4824L168.838,48.4008L168.797,48.3576L168.77,48.3048L168.763,48.2472L168.766,48.2184L168.787,48.1632L168.866,48.0912L169.008,47.988L169.08,47.9088L169.152,47.8008L169.193,47.7072L169.224,47.5848L169.236,47.4624L169.234,41.7888L169.212,41.6616L169.176,41.5608L169.121,41.4576L169.042,41.3544L168.962,41.2824L168.838,41.2008L168.797,41.1576L168.77,41.1048L168.763,41.0472L168.766,41.0184L168.787,40.9632L168.866,40.8912L169.008,40.788L169.08,40.7088L169.152,40.6008L169.193,40.5072L169.224,40.3848L169.236,40.2624L169.234,34.5888L169.212,34.4616L169.176,34.3608L169.121,34.2576L169.042,34.1544L168.962,34.0824L168.866,34.0176L168.746,33.9648L168.638,33.9384L168.516,33.9264L161.846,33.9264L161.539,33.9144ZM33.78,48.7152L33.2856,48.7704L33.2232,48.7848L32.7792,48.924L32.6904,48.9648L32.28,49.1952L31.872,49.5312L31.524,49.9536L31.272,50.4192L31.104,50.952L31.0464,51.5112L31.1016,52.0704L31.2648,52.6008L31.2984,52.6752L31.5216,53.0784L31.5672,53.1408L31.8624,53.496L31.9224,53.5512L32.2776,53.8416L32.7576,54.1032L32.8416,54.1344L33.2808,54.2664L33.84,54.3264L33.9288,54.3216L34.4256,54.2664L34.488,54.252L34.932,54.1128L35.0208,54.072L35.4288,53.844L35.8392,53.5056L36.1824,53.0904L36.4392,52.6176L36.468,52.5408L36.6072,52.0848L36.6216,51.9888L36.6624,51.5256L36.66,51.4488L36.6192,51.0288L36.5856,50.88L36.4464,50.436L36.4032,50.3424L36.1896,49.9584L36.1416,49.8912L35.8464,49.5408L35.7816,49.4808L35.424,49.1904L34.9536,48.9336L34.8696,48.9024L34.4304,48.7704L33.8688,48.7104ZM33.78,34.9896L33.3024,35.04L32.7672,35.2056L32.6952,35.2392L32.2944,35.46L32.2224,35.5128L31.872,35.8056L31.524,36.228L31.2672,36.7032L31.104,37.224L31.0464,37.7856L31.1016,38.3472L31.1232,38.4312L31.2672,38.8824L31.2984,38.9496L31.5216,39.3552L31.5696,39.42L31.8624,39.7728L32.2752,40.116L32.3448,40.1592L32.7528,40.3776L33.276,40.5432L33.3792,40.56L33.8424,40.6008L33.924,40.5984L34.3464,40.5576L34.4928,40.5264L34.944,40.3824L35.016,40.3488L35.424,40.1232L35.844,39.7752L36.1776,39.372L36.228,39.2928L36.444,38.8848L36.6072,38.364L36.6216,38.2656L36.6624,37.7976L36.66,37.7232L36.6192,37.3032L36.588,37.1568L36.444,36.7056L36.4128,36.6384L36.1896,36.2328L36.1416,36.1656L35.8464,35.8152L35.7816,35.7552L35.4288,35.4672L35.3664,35.4288L34.9536,35.208L34.4256,35.0424L33.8688,34.9848ZM25.1568,33.6576L24.5904,33.7176L24.4968,33.7416L24.0384,33.8832L23.8992,33.9432L23.4144,34.212L22.9392,34.6008L22.5504,35.0736L22.5072,35.1408L22.248,35.6232L22.2192,35.7L22.0584,36.2352L22.0416,36.3288L21.9912,36.8856L21.9936,36.9648L22.0536,37.536L22.0728,37.6152L22.2408,38.1432L22.2768,38.22L22.548,38.7096L22.9296,39.1776L23.412,39.576L23.964,39.876L24.036,39.9048L24.5712,40.0656L24.6504,40.08L25.2192,40.1328L25.3032,40.1304L25.872,40.0704L26.4144,39.9072L26.568,39.8424L27.0408,39.5808L27.5184,39.1872L27.5688,39.132L27.9216,38.6976L28.212,38.16L28.2456,38.076L28.4016,37.5576L28.4712,36.9024L28.4064,36.2544L28.3824,36.156L28.2192,35.6448L28.176,35.5512L27.9216,35.0904L27.8736,35.0256L27.528,34.6104L27.4704,34.5576L27.0456,34.2096L26.9832,34.1712L26.5008,33.912L26.424,33.8832L25.8936,33.7224L25.248,33.6528Z" fill="black" stroke="none" stroke-width="0" />
     <g id="connector0pad" >
      <circle cx="3.3768" cy="3.3744" fill="black" r="2.7" stroke="none" />
     </g>
    </g>
   </g>
  </g>
  <g partID="855195510">
   <g transform="translate(47.0904,174.35)">
    <g id="groundplane" >
     <path d="M5.44081,0.0048L5.49841,0.024L5.54401,0.06L5.57041,0.0984001L5.72881,0.3864L5.77201,0.4488L6.13681,0.900001L6.20881,0.964801L6.67442,1.3344L7.28162,1.656L7.93202,1.8648L8.26802,1.9224L8.60402,1.944L8.69042,1.944L9.04082,1.92L9.37442,1.8624L9.88562,1.704L9.94562,1.704L9.99842,1.7232L10.0464,1.7616L10.0776,1.8096L10.092,1.8672L10.0872,1.9248L10.0632,1.98L8.03042,4.0248L7.97762,4.0512L7.92482,4.0584L2.14321,4.056L2.0616,4.0224L0.0336001,1.9824L0.00720002,1.9296L0,1.8696L0.00240001,1.8408L0.0240001,1.7856L0.0408001,1.7616L0.0840002,1.7232L0.1392,1.7016L0.1968,1.6968L0.734402,1.8624L1.0752,1.92L1.4088,1.9416L1.4952,1.9416L1.8408,1.9176L2.22481,1.848L2.81761,1.6536L3.36961,1.3608L3.48481,1.284L3.97201,0.883201L4.36081,0.3936L4.40401,0.324L4.54321,0.0696L4.58401,0.0312L4.66801,0Z" fill="black" stroke="none" stroke-width="0" />
     <g id="connector0pad" >
      <path d="M5.44081,0.0048L5.49841,0.024L5.54401,0.06L5.57041,0.0984001L5.72881,0.3864L5.77201,0.4488L6.13681,0.900001L6.20881,0.964801L6.67442,1.3344L7.28162,1.656L7.93202,1.8648L8.26802,1.9224L8.60402,1.944L8.69042,1.944L9.04082,1.92L9.37442,1.8624L9.88562,1.704L9.94562,1.704L9.99842,1.7232L10.0464,1.7616L10.0776,1.8096L10.092,1.8672L10.0872,1.9248L10.0632,1.98L8.03042,4.0248L7.97762,4.0512L7.92482,4.0584L2.14321,4.056L2.0616,4.0224L0.0336001,1.9824L0.00720002,1.9296L0,1.8696L0.00240001,1.8408L0.0240001,1.7856L0.0408001,1.7616L0.0840002,1.7232L0.1392,1.7016L0.1968,1.6968L0.734402,1.8624L1.0752,1.92L1.4088,1.9416L1.4952,1.9416L1.8408,1.9176L2.22481,1.848L2.81761,1.6536L3.36961,1.3608L3.48481,1.284L3.97201,0.883201L4.36081,0.3936L4.40401,0.324L4.54321,0.0696L4.58401,0.0312L4.66801,0Z" fill="black" stroke="none" stroke-width="0" />
     </g>
    </g>
   </g>
  </g>
  <g partID="855195520">
   <g transform="translate(35.7216,115.824)">
    <g id="groundplane" >
     <path d="M2.0808,0.012L2.1528,0.0624L2.1696,0.0864L2.1864,0.1248L2.3784,0.7104L2.7,1.32L3.1032,1.8216L3.18,1.8936L3.6336,2.2536L3.9624,2.4384L4.0008,2.4792L4.032,2.5632L4.0296,11.0208L3.996,11.1024L3.9408,11.148L3.828,11.2224L3.4368,11.5416L3.372,11.6112L3.06,12.0024L2.772,12.5424L2.5848,13.1184L2.5152,13.7232L2.52,13.8264L2.5824,14.3568L2.6016,14.4312L2.7696,14.9448L3.048,15.4728L3.4056,15.9192L3.4848,15.9912L3.8784,16.3032L3.9408,16.3416L4.4064,16.5864L4.4712,16.6128L4.9896,16.7736L5.0784,16.7904L5.5944,16.8456L5.7096,16.848L5.7912,16.8816L5.8296,16.9248L31.3176,55.1616L31.3344,55.2192L31.3296,55.2768L31.3128,55.32L31.1784,55.5792L30.9768,56.1912L30.9408,56.2392L30.8928,56.2728L30.8376,56.2872L30.8064,56.2896L30.7512,56.2776L30.6792,56.2272L30.6624,56.2032L30.6456,56.1648L30.4488,55.5672L30.1368,54.9768L29.7216,54.4632L29.6544,54.4008L29.2008,54.036L28.5816,53.7072L27.9312,53.4984L27.5952,53.4408L27.2592,53.4192L27.1728,53.4192L26.88,53.436L26.8224,53.4264L26.7696,53.4L26.7312,53.3568L1.2456,15.132L1.2288,15.0744L1.2336,15.0168L1.2864,14.8776L1.4424,14.3736L1.4592,14.2776L1.5144,13.7664L1.5096,13.6632L1.4448,13.1232L1.2648,12.5496L0.984,12.0192L0.6192,11.5656L0.5496,11.5008L0.1392,11.1768L0.0744,11.1384L0.0336,11.0952L0.0072,11.0424L0,10.992L0.0024,2.5512L0.036,2.4696L0.096,2.4216L0.384,2.2632L0.4464,2.22L0.9024,1.8504L0.9624,1.7832L1.332,1.3176L1.6536,0.7104L1.8552,0.0984L1.8912,0.0504L1.9392,0.0168L1.9944,0.0024L2.0256,0Z" fill="black" stroke="none" stroke-width="0" />
     <g id="connector0pad" >
      <path d="M2.0808,0.012L2.1528,0.0624L2.1696,0.0864L2.1864,0.1248L2.3784,0.7104L2.7,1.32L3.1032,1.8216L3.18,1.8936L3.6336,2.2536L3.9624,2.4384L4.0008,2.4792L4.032,2.5632L4.0296,11.0208L3.996,11.1024L3.9408,11.148L3.828,11.2224L3.4368,11.5416L3.372,11.6112L3.06,12.0024L2.772,12.5424L2.5848,13.1184L2.5152,13.7232L2.52,13.8264L2.5824,14.3568L2.6016,14.4312L2.7696,14.9448L3.048,15.4728L3.4056,15.9192L3.4848,15.9912L3.8784,16.3032L3.9408,16.3416L4.4064,16.5864L4.4712,16.6128L4.9896,16.7736L5.0784,16.7904L5.5944,16.8456L5.7096,16.848L5.7912,16.8816L5.8296,16.9248L31.3176,55.1616L31.3344,55.2192L31.3296,55.2768L31.3128,55.32L31.1784,55.5792L30.9768,56.1912L30.9408,56.2392L30.8928,56.2728L30.8376,56.2872L30.8064,56.2896L30.7512,56.2776L30.6792,56.2272L30.6624,56.2032L30.6456,56.1648L30.4488,55.5672L30.1368,54.9768L29.7216,54.4632L29.6544,54.4008L29.2008,54.036L28.5816,53.7072L27.9312,53.4984L27.5952,53.4408L27.2592,53.4192L27.1728,53.4192L26.88,53.436L26.8224,53.4264L26.7696,53.4L26.7312,53.3568L1.2456,15.132L1.2288,15.0744L1.2336,15.0168L1.2864,14.8776L1.4424,14.3736L1.4592,14.2776L1.5144,13.7664L1.5096,13.6632L1.4448,13.1232L1.2648,12.5496L0.984,12.0192L0.6192,11.5656L0.5496,11.5008L0.1392,11.1768L0.0744,11.1384L0.0336,11.0952L0.0072,11.0424L0,10.992L0.0024,2.5512L0.036,2.4696L0.096,2.4216L0.384,2.2632L0.4464,2.22L0.9024,1.8504L0.9624,1.7832L1.332,1.3176L1.6536,0.7104L1.8552,0.0984L1.8912,0.0504L1.9392,0.0168L1.9944,0.0024L2.0256,0Z" fill="black" stroke="none" stroke-width="0" />
     </g>
    </g>
   </g>
  </g>
  <g partID="855195530">
   <g transform="translate(42.924,115.824)">
    <g id="groundplane" >
     <path d="M2.0784,0.012L2.1504,0.0624L2.1672,0.0864L2.184,0.1248L2.376,0.7104L2.6976,1.32L3.1008,1.8216L3.1776,1.8936L3.6312,2.2536L3.96,2.4384L3.9984,2.4792L4.0296,2.5632L4.0296,11.0184L3.996,11.1L3.9552,11.1384L3.8232,11.2248L3.432,11.5464L3.36,11.6256L3.06,12.0024L2.772,12.5424L2.5848,13.1184L2.5152,13.7232L2.52,13.8264L2.5824,14.3568L2.6016,14.4312L2.7696,14.9448L3.048,15.4728L3.4056,15.9192L3.4824,15.9912L3.8736,16.3008L3.948,16.3464L4.4064,16.5864L4.4712,16.6128L4.9896,16.7736L5.0784,16.7904L5.5944,16.8456L5.7096,16.848L5.7912,16.8816L5.8296,16.9248L31.3152,55.1616L31.332,55.2192L31.3272,55.2768L31.3104,55.32L31.176,55.5792L30.9744,56.1912L30.9384,56.2392L30.8904,56.2728L30.8352,56.2872L30.804,56.2896L30.7488,56.2776L30.6768,56.2272L30.66,56.2032L30.6432,56.1648L30.4464,55.5672L30.1344,54.9768L29.7192,54.4632L29.652,54.4008L29.1984,54.036L28.5792,53.7072L27.9288,53.4984L27.5928,53.4408L27.2568,53.4192L27.1704,53.4192L26.8776,53.436L26.82,53.4264L26.7672,53.4L26.7288,53.3568L1.2432,15.1272L1.2264,15.0696L1.2312,15.012L1.2864,14.8776L1.4424,14.3712L1.4592,14.2776L1.5144,13.7664L1.5096,13.6632L1.4472,13.1352L1.26,12.5472L0.981601,12.0192L0.6168,11.5656L0.5472,11.5032L0.1584,11.1888L0.0552,11.1216L0.0192,11.0736L0,11.0184L0,2.5512L0.0336,2.4696L0.0936001,2.4216L0.3816,2.2632L0.444,2.22L0.900001,1.8504L0.960001,1.7832L1.3296,1.3176L1.6512,0.7104L1.8528,0.0984L1.8888,0.0504L1.9368,0.0168L1.992,0.0024L2.0232,0Z" fill="black" stroke="none" stroke-width="0" />
     <g id="connector0pad" >
      <path d="M2.0784,0.012L2.1504,0.0624L2.1672,0.0864L2.184,0.1248L2.376,0.7104L2.6976,1.32L3.1008,1.8216L3.1776,1.8936L3.6312,2.2536L3.96,2.4384L3.9984,2.4792L4.0296,2.5632L4.0296,11.0184L3.996,11.1L3.9552,11.1384L3.8232,11.2248L3.432,11.5464L3.36,11.6256L3.06,12.0024L2.772,12.5424L2.5848,13.1184L2.5152,13.7232L2.52,13.8264L2.5824,14.3568L2.6016,14.4312L2.7696,14.9448L3.048,15.4728L3.4056,15.9192L3.4824,15.9912L3.8736,16.3008L3.948,16.3464L4.4064,16.5864L4.4712,16.6128L4.9896,16.7736L5.0784,16.7904L5.5944,16.8456L5.7096,16.848L5.7912,16.8816L5.8296,16.9248L31.3152,55.1616L31.332,55.2192L31.3272,55.2768L31.3104,55.32L31.176,55.5792L30.9744,56.1912L30.9384,56.2392L30.8904,56.2728L30.8352,56.2872L30.804,56.2896L30.7488,56.2776L30.6768,56.2272L30.66,56.2032L30.6432,56.1648L30.4464,55.5672L30.1344,54.9768L29.7192,54.4632L29.652,54.4008L29.1984,54.036L28.5792,53.7072L27.9288,53.4984L27.5928,53.4408L27.2568,53.4192L27.1704,53.4192L26.8776,53.436L26.82,53.4264L26.7672,53.4L26.7288,53.3568L1.2432,15.1272L1.2264,15.0696L1.2312,15.012L1.2864,14.8776L1.4424,14.3712L1.4592,14.2776L1.5144,13.7664L1.5096,13.6632L1.4472,13.1352L1.26,12.5472L0.981601,12.0192L0.6168,11.5656L0.5472,11.5032L0.1584,11.1888L0.0552,11.1216L0.0192,11.0736L0,11.0184L0,2.5512L0.0336,2.4696L0.0936001,2.4216L0.3816,2.2632L0.444,2.22L0.900001,1.8504L0.960001,1.7832L1.3296,1.3176L1.6512,0.7104L1.8528,0.0984L1.8888,0.0504L1.9368,0.0168L1.992,0.0024L2.0232,0Z" fill="black" stroke="none" stroke-width="0" />
     </g>
    </g>
   </g>
  </g>
  <g partID="855195540">
   <g transform="translate(28.524,115.824)">
    <g id="groundplane" >
     <path d="M2.0784,0.012L2.1504,0.0624L2.1672,0.0864L2.184,0.1248L2.3712,0.708L2.664,1.2624L2.7384,1.3752L3.1008,1.8216L3.1776,1.8936L3.6312,2.2536L3.96,2.4384L3.9984,2.4792L4.0296,2.5632L4.0272,11.0184L3.9936,11.1L3.9528,11.1384L3.8856,11.1768L3.432,11.5416L3.3648,11.616L3.0504,12.0144L3.0168,12.0696L2.7696,12.5424L2.5824,13.1184L2.5128,13.7232L2.5176,13.8264L2.58,14.3568L2.5992,14.4312L2.7672,14.9448L3.0552,15.4848L3.4368,15.9552L3.8736,16.3032L3.936,16.3416L4.404,16.5864L4.4688,16.6128L4.9872,16.7736L5.076,16.7904L5.592,16.8456L5.7048,16.848L5.7864,16.8816L5.8248,16.9248L31.3128,55.1592L31.3296,55.2168L31.3248,55.2744L31.308,55.3176L31.1712,55.5864L30.9744,56.1912L30.9384,56.2392L30.8904,56.2728L30.8064,56.2896L30.7488,56.2776L30.7224,56.2656L30.6768,56.2272L30.66,56.2032L30.6432,56.1648L30.4512,55.5792L30.1272,54.9744L30.0864,54.9144L29.7216,54.4632L29.652,54.4008L29.1984,54.036L28.5792,53.7072L27.9288,53.4984L27.5928,53.4408L27.2568,53.4192L27.1704,53.4192L26.8776,53.436L26.82,53.4264L26.7672,53.4L26.7288,53.3568L1.2432,15.1272L1.2264,15.0696L1.2312,15.012L1.2864,14.8776L1.4424,14.3712L1.4592,14.2776L1.5144,13.7664L1.5096,13.6632L1.4472,13.1352L1.26,12.5472L0.981599,12.0192L0.6168,11.5656L0.5472,11.5032L0.1584,11.1888L0.0552,11.1216L0.0192,11.0736L0,11.0184L0,2.5512L0.0336,2.4696L0.0935999,2.4216L0.3816,2.2632L0.444,2.22L0.899999,1.8504L1.3272,1.32L1.6464,0.72L1.6776,0.6432L1.8528,0.0984L1.8888,0.0504L1.9368,0.0168L1.992,0.0024L2.0232,0Z" fill="black" stroke="none" stroke-width="0" />
     <g id="connector0pad" >
      <path d="M2.0784,0.012L2.1504,0.0624L2.1672,0.0864L2.184,0.1248L2.3712,0.708L2.664,1.2624L2.7384,1.3752L3.1008,1.8216L3.1776,1.8936L3.6312,2.2536L3.96,2.4384L3.9984,2.4792L4.0296,2.5632L4.0272,11.0184L3.9936,11.1L3.9528,11.1384L3.8856,11.1768L3.432,11.5416L3.3648,11.616L3.0504,12.0144L3.0168,12.0696L2.7696,12.5424L2.5824,13.1184L2.5128,13.7232L2.5176,13.8264L2.58,14.3568L2.5992,14.4312L2.7672,14.9448L3.0552,15.4848L3.4368,15.9552L3.8736,16.3032L3.936,16.3416L4.404,16.5864L4.4688,16.6128L4.9872,16.7736L5.076,16.7904L5.592,16.8456L5.7048,16.848L5.7864,16.8816L5.8248,16.9248L31.3128,55.1592L31.3296,55.2168L31.3248,55.2744L31.308,55.3176L31.1712,55.5864L30.9744,56.1912L30.9384,56.2392L30.8904,56.2728L30.8064,56.2896L30.7488,56.2776L30.7224,56.2656L30.6768,56.2272L30.66,56.2032L30.6432,56.1648L30.4512,55.5792L30.1272,54.9744L30.0864,54.9144L29.7216,54.4632L29.652,54.4008L29.1984,54.036L28.5792,53.7072L27.9288,53.4984L27.5928,53.4408L27.2568,53.4192L27.1704,53.4192L26.8776,53.436L26.82,53.4264L26.7672,53.4L26.7288,53.3568L1.2432,15.1272L1.2264,15.0696L1.2312,15.012L1.2864,14.8776L1.4424,14.3712L1.4592,14.2776L1.5144,13.7664L1.5096,13.6632L1.4472,13.1352L1.26,12.5472L0.981599,12.0192L0.6168,11.5656L0.5472,11.5032L0.1584,11.1888L0.0552,11.1216L0.0192,11.0736L0,11.0184L0,2.5512L0.0336,2.4696L0.0935999,2.4216L0.3816,2.2632L0.444,2.22L0.899999,1.8504L1.3272,1.32L1.6464,0.72L1.6776,0.6432L1.8528,0.0984L1.8888,0.0504L1.9368,0.0168L1.992,0.0024L2.0232,0Z" fill="black" stroke="none" stroke-width="0" />
     </g>
    </g>
   </g>
  </g>
  <g partID="855195550">
   <g transform="translate(35.6928,79.7232)">
    <g id="groundplane" >
     <path d="M2.1072,0.0024L2.1624,0.024L2.1864,0.0408L2.3304,0.2376L2.4168,0.3168L2.5128,0.3816L2.6184,0.4296L2.7408,0.4608L2.8632,0.4728L3.9096,0.4752L3.9912,0.5088L4.0296,0.552L4.0536,0.6048L4.0608,0.6336L4.0584,32.2416L4.0248,32.3232L3.9648,32.3712L3.6768,32.5296L3.6144,32.5728L3.1632,32.9376L3.1008,33.0072L2.7264,33.4752L2.4072,34.08L2.2056,34.692L2.1696,34.74L2.1216,34.7736L2.0664,34.788L2.0352,34.7904L1.98,34.7784L1.908,34.728L1.8912,34.704L1.8744,34.6656L1.6776,34.068L1.3656,33.4776L0.9504,32.964L0.8664,32.8872L0.4224,32.5368L0.3528,32.4936L0.0936,32.3544L0.0552,32.3112L0.0312,32.2584L0.024,32.2104L0,6.5664L0.0144,0.624L0.048,0.5424L0.0912,0.504L0.144,0.48L0.1728,0.4728L1.3368,0.4704L1.4544,0.4512L1.5648,0.4128L1.668,0.3576L1.7712,0.2784L1.8432,0.1992L1.9248,0.0744L1.968,0.0336L2.0208,0.0072L2.0784,0Z" fill="black" stroke="none" stroke-width="0" />
     <g id="connector0pad" >
      <path d="M2.1072,0.0024L2.1624,0.024L2.1864,0.0408L2.3304,0.2376L2.4168,0.3168L2.5128,0.3816L2.6184,0.4296L2.7408,0.4608L2.8632,0.4728L3.9096,0.4752L3.9912,0.5088L4.0296,0.552L4.0536,0.6048L4.0608,0.6336L4.0584,32.2416L4.0248,32.3232L3.9648,32.3712L3.6768,32.5296L3.6144,32.5728L3.1632,32.9376L3.1008,33.0072L2.7264,33.4752L2.4072,34.08L2.2056,34.692L2.1696,34.74L2.1216,34.7736L2.0664,34.788L2.0352,34.7904L1.98,34.7784L1.908,34.728L1.8912,34.704L1.8744,34.6656L1.6776,34.068L1.3656,33.4776L0.9504,32.964L0.8664,32.8872L0.4224,32.5368L0.3528,32.4936L0.0936,32.3544L0.0552,32.3112L0.0312,32.2584L0.024,32.2104L0,6.5664L0.0144,0.624L0.048,0.5424L0.0912,0.504L0.144,0.48L0.1728,0.4728L1.3368,0.4704L1.4544,0.4512L1.5648,0.4128L1.668,0.3576L1.7712,0.2784L1.8432,0.1992L1.9248,0.0744L1.968,0.0336L2.0208,0.0072L2.0784,0Z" fill="black" stroke="none" stroke-width="0" />
     </g>
    </g>
   </g>
  </g>
  <g partID="855195560">
   <g transform="translate(28.5216,79.7352)">
    <g id="groundplane" >
     <path d="M2.0856,0.0024L2.1408,0.024L2.1648,0.0408L2.3016,0.2256L2.388,0.3048L2.484,0.3696L2.5896,0.4176L2.712,0.4488L2.8344,0.4608L3.864,0.4632L3.9456,0.4968L3.984,0.54L4.008,0.5928L4.0152,0.6408L4.0032,6.5544L4.0248,32.232L4.0056,32.2872L3.9696,32.3352L3.9312,32.3616L3.648,32.5176L3.5856,32.5608L3.1344,32.9256L3.072,32.9952L2.7024,33.456L2.3736,34.0752L2.1768,34.68L2.1408,34.728L2.0928,34.7616L2.0088,34.7784L1.9512,34.7664L1.9248,34.7544L1.8792,34.716L1.8624,34.692L1.8456,34.6536L1.6536,34.068L1.3296,33.4632L1.2888,33.4032L0.924,32.952L0.852,32.8872L0.3936,32.5248L0.324,32.4816L0.0696,32.3424L0.0312,32.3016L0,32.2176L0,0.6384L0.0336,0.5568L0.0768,0.5184L0.1296,0.4944L0.1584,0.4872L1.308,0.4848L1.4256,0.4656L1.536,0.4272L1.6392,0.372L1.7424,0.2928L1.8144,0.2136L1.9032,0.0743999L1.9464,0.0336L1.9992,0.0072L2.0568,0Z" fill="black" stroke="none" stroke-width="0" />
     <g id="connector0pad" >
      <path d="M2.0856,0.0024L2.1408,0.024L2.1648,0.0408L2.3016,0.2256L2.388,0.3048L2.484,0.3696L2.5896,0.4176L2.712,0.4488L2.8344,0.4608L3.864,0.4632L3.9456,0.4968L3.984,0.54L4.008,0.5928L4.0152,0.6408L4.0032,6.5544L4.0248,32.232L4.0056,32.2872L3.9696,32.3352L3.9312,32.3616L3.648,32.5176L3.5856,32.5608L3.1344,32.9256L3.072,32.9952L2.7024,33.456L2.3736,34.0752L2.1768,34.68L2.1408,34.728L2.0928,34.7616L2.0088,34.7784L1.9512,34.7664L1.9248,34.7544L1.8792,34.716L1.8624,34.692L1.8456,34.6536L1.6536,34.068L1.3296,33.4632L1.2888,33.4032L0.924,32.952L0.852,32.8872L0.3936,32.5248L0.324,32.4816L0.0696,32.3424L0.0312,32.3016L0,32.2176L0,0.6384L0.0336,0.5568L0.0768,0.5184L0.1296,0.4944L0.1584,0.4872L1.308,0.4848L1.4256,0.4656L1.536,0.4272L1.6392,0.372L1.7424,0.2928L1.8144,0.2136L1.9032,0.0743999L1.9464,0.0336L1.9992,0.0072L2.0568,0Z" fill="black" stroke="none" stroke-width="0" />
     </g>
    </g>
   </g>
  </g>
  <g partID="855191560">
   <g transform="translate(16.849,79.5042)">
    <g transform="matrix(0,-1,1,0,0,0)">
     <g gorn="0.4.0" id="copper0" >
      <circle cx="39.5497" cy="19.1675" fill="black" gorn="0.4.0.0" id="nonconn1" r="2.088" stroke="none" stroke-width="0" />
      <circle cx="25.8247" cy="19.1675" fill="black" gorn="0.4.0.1" id="nonconn2" r="2.088" stroke="none" stroke-width="0" />
      <circle cx="24.9997" cy="10.5425" fill="black" gorn="0.4.0.2" id="nonconn3" r="2.52" stroke="none" stroke-width="0" />
      <circle cx="40.4497" cy="10.5425" fill="black" gorn="0.4.0.3" id="nonconn4" r="2.52" stroke="none" stroke-width="0" />
      <rect fill="black" gorn="0.4.0.4" height="5.616" id="rect0" stroke-width="0" width="10.344" x="0"  y="7.30777"/>
      <rect fill="black" gorn="0.4.0.5" height="5.616" id="rect1" stroke-width="0" width="10.368" x="0.027"  y="14.5078"/>
      <rect fill="black" gorn="0.4.0.6" height="5.616" id="rect2" stroke-width="0" width="10.368" x="0.027"  y="21.7078"/>
      <rect fill="black" gorn="0.4.0.7" height="5.616" id="rect3" stroke-width="0" width="10.368" x="0"  y="28.9078"/>
      <rect fill="black" gorn="0.4.0.8" height="5.616" id="rect4" stroke-width="0" width="10.368" x="0.027"  y="36.1078"/>
      <rect fill="black" gorn="0.4.0.9" height="5.616" id="rect5" stroke-width="0" width="10.368" x="0.027"  y="43.3078"/>
      <rect fill="black" gorn="0.4.0.10" height="5.616" id="rect6" stroke-width="0" width="10.368" x="0.027"  y="50.5078"/>
      <rect fill="black" gorn="0.4.0.11" height="5.616" id="rect7" stroke-width="0" width="10.368" x="0.027"  y="57.7078"/>
      <rect fill="black" gorn="0.4.0.12" height="5.616" id="rect8" stroke-width="0" width="10.368" x="0.027"  y="64.9078"/>
      <rect fill="black" gorn="0.4.0.13" height="5.616" id="rect9" stroke-width="0" width="10.368" x="0.027"  y="72.1078"/>
      <rect fill="black" gorn="0.4.0.14" height="5.616" id="rect10" stroke-width="0" width="10.368" x="0.027"  y="79.3078"/>
      <rect fill="black" gorn="0.4.0.15" height="5.616" id="rect11" stroke-width="0" width="10.368" x="0.027"  y="86.5078"/>
      <rect fill="black" gorn="0.4.0.16" height="5.616" id="rect12" stroke-width="0" width="10.368" x="0.027"  y="93.7078"/>
      <rect fill="black" gorn="0.4.0.17" height="5.616" id="rect13" stroke-width="0" width="10.368" x="0.027"  y="100.908"/>
      <rect fill="black" gorn="0.4.0.18" height="5.616" id="rect14" stroke-width="0" width="10.368" x="0.027"  y="108.108"/>
      <rect fill="black" gorn="0.4.0.19" height="5.616" id="rect15" stroke-width="0" width="10.368" x="0.027"  y="115.308"/>
      <rect fill="black" gorn="0.4.0.20" height="5.616" id="rect16" stroke-width="0" width="10.368" x="0.027"  y="122.508"/>
      <rect fill="black" gorn="0.4.0.21" height="5.616" id="rect17" stroke-width="0" width="10.368" x="0.027"  y="129.708"/>
      <rect fill="black" gorn="0.4.0.22" height="5.616" id="rect18" stroke-width="0" width="10.368" x="0.027"  y="136.908"/>
      <rect fill="black" gorn="0.4.0.23" height="5.616" id="rect19" stroke-width="0" width="10.368" x="0.027"  y="144.108"/>
      <rect fill="black" gorn="0.4.0.24" height="5.616" id="rect20" stroke-width="0" width="10.368" x="55.08"  y="144.108"/>
      <rect fill="black" gorn="0.4.0.25" height="5.616" id="rect21" stroke-width="0" width="10.368" x="55.08"  y="136.908"/>
      <rect fill="black" gorn="0.4.0.26" height="5.616" id="rect22" stroke-width="0" width="10.368" x="55.08"  y="129.708"/>
      <rect fill="black" gorn="0.4.0.27" height="5.616" id="rect23" stroke-width="0" width="10.368" x="55.08"  y="122.508"/>
      <rect fill="black" gorn="0.4.0.28" height="5.616" id="rect24" stroke-width="0" width="10.368" x="55.08"  y="115.308"/>
      <rect fill="black" gorn="0.4.0.29" height="5.616" id="rect25" stroke-width="0" width="10.368" x="55.08"  y="108.108"/>
      <rect fill="black" gorn="0.4.0.30" height="5.616" id="rect26" stroke-width="0" width="10.368" x="55.08"  y="100.908"/>
      <rect fill="black" gorn="0.4.0.31" height="5.616" id="rect27" stroke-width="0" width="10.368" x="55.08"  y="93.7078"/>
      <rect fill="black" gorn="0.4.0.32" height="5.616" id="rect28" stroke-width="0" width="10.368" x="55.08"  y="86.5078"/>
      <rect fill="black" gorn="0.4.0.33" height="5.616" id="rect29" stroke-width="0" width="10.368" x="55.08"  y="79.3078"/>
      <rect fill="black" gorn="0.4.0.34" height="5.616" id="rect30" stroke-width="0" width="10.368" x="55.08"  y="72.1078"/>
      <rect fill="black" gorn="0.4.0.35" height="5.616" id="rect31" stroke-width="0" width="10.368" x="55.08"  y="64.9078"/>
      <rect fill="black" gorn="0.4.0.36" height="5.616" id="rect32" stroke-width="0" width="10.368" x="55.08"  y="57.7078"/>
      <rect fill="black" gorn="0.4.0.37" height="5.616" id="rect33" stroke-width="0" width="10.368" x="55.08"  y="50.5078"/>
      <rect fill="black" gorn="0.4.0.38" height="5.616" id="rect34" stroke-width="0" width="10.368" x="55.08"  y="43.3078"/>
      <rect fill="black" gorn="0.4.0.39" height="5.616" id="rect35" stroke-width="0" width="10.368" x="55.08"  y="36.1078"/>
      <rect fill="black" gorn="0.4.0.40" height="5.616" id="rect36" stroke-width="0" width="10.368" x="55.08"  y="28.9078"/>
      <rect fill="black" gorn="0.4.0.41" height="5.616" id="rect37" stroke-width="0" width="10.368" x="55.08"  y="21.7078"/>
      <rect fill="black" gorn="0.4.0.42" height="5.616" id="rect38" stroke-width="0" width="10.368" x="55.08"  y="14.5078"/>
      <rect fill="black" gorn="0.4.0.43" height="5.616" id="rect39" stroke-width="0" width="10.368" x="55.08"  y="7.30777"/>
      <rect fill="black" gorn="0.4.0.44" height="10.368" id="rect40" stroke-width="0" width="5.616" x="22.68"  y="143.46"/>
      <rect fill="black" gorn="0.4.0.45" height="10.368" id="rect41" stroke-width="0" width="5.616" x="29.88"  y="143.46"/>
      <rect fill="black" gorn="0.4.0.46" height="10.368" id="rect42" stroke-width="0" width="5.616" x="37.08"  y="143.46"/>
      <circle cx="7.533" cy="10.0868" fill="black" gorn="0.4.0.47" id="connector0pin" r="2.088" stroke="black" stroke-width="1.44" />
      <rect fill="none" gorn="0.4.0.48" height="0.011232" id="connector0terminal" stroke="none" stroke-width="0" width="0.011232" x="7.52738"  y="9.67968"/>
      <circle cx="7.533" cy="17.2903" fill="black" gorn="0.4.0.49" id="connector1pin" r="2.088" stroke="black" stroke-width="1.44" />
      <circle cx="7.533" cy="24.4903" fill="black" gorn="0.4.0.50" id="connector2pin" r="2.088" stroke="black" stroke-width="1.44" />
      <circle cx="7.533" cy="31.6903" fill="black" gorn="0.4.0.51" id="connector3pin" r="2.088" stroke="black" stroke-width="1.44" />
      <circle cx="7.533" cy="38.8903" fill="black" gorn="0.4.0.52" id="connector4pin" r="2.088" stroke="black" stroke-width="1.44" />
      <circle cx="7.533" cy="46.0903" fill="black" gorn="0.4.0.53" id="connector5pin" r="2.088" stroke="black" stroke-width="1.44" />
      <circle cx="7.533" cy="53.2903" fill="black" gorn="0.4.0.54" id="connector6pin" r="2.088" stroke="black" stroke-width="1.44" />
      <circle cx="7.533" cy="60.4903" fill="black" gorn="0.4.0.55" id="connector7pin" r="2.088" stroke="black" stroke-width="1.44" />
      <circle cx="7.533" cy="67.6903" fill="black" gorn="0.4.0.56" id="connector8pin" r="2.088" stroke="black" stroke-width="1.44" />
      <circle cx="7.533" cy="74.8903" fill="black" gorn="0.4.0.57" id="connector9pin" r="2.088" stroke="black" stroke-width="1.44" />
      <circle cx="7.533" cy="82.0903" fill="black" gorn="0.4.0.58" id="connector10pin" r="2.088" stroke="black" stroke-width="1.44" />
      <circle cx="7.533" cy="89.2903" fill="black" gorn="0.4.0.59" id="connector11pin" r="2.088" stroke="black" stroke-width="1.44" />
      <circle cx="7.533" cy="96.4903" fill="black" gorn="0.4.0.60" id="connector12pin" r="2.088" stroke="black" stroke-width="1.44" />
      <circle cx="7.533" cy="103.69" fill="black" gorn="0.4.0.61" id="connector13pin" r="2.088" stroke="black" stroke-width="1.44" />
      <circle cx="7.533" cy="110.89" fill="black" gorn="0.4.0.62" id="connector14pin" r="2.088" stroke="black" stroke-width="1.44" />
      <circle cx="7.533" cy="118.09" fill="black" gorn="0.4.0.63" id="connector15pin" r="2.088" stroke="black" stroke-width="1.44" />
      <circle cx="7.533" cy="125.29" fill="black" gorn="0.4.0.64" id="connector16pin" r="2.088" stroke="black" stroke-width="1.44" />
      <circle cx="7.533" cy="132.49" fill="black" gorn="0.4.0.65" id="connector17pin" r="2.088" stroke="black" stroke-width="1.44" />
      <circle cx="7.533" cy="139.69" fill="black" gorn="0.4.0.66" id="connector18pin" r="2.088" stroke="black" stroke-width="1.44" />
      <circle cx="7.533" cy="146.89" fill="black" gorn="0.4.0.67" id="connector19pin" r="2.088" stroke="black" stroke-width="1.44" />
      <circle cx="57.9015" cy="146.89" fill="black" gorn="0.4.0.68" id="connector20pin" r="2.088" stroke="black" stroke-width="1.44" />
      <circle cx="57.9015" cy="139.69" fill="black" gorn="0.4.0.69" id="connector21pin" r="2.088" stroke="black" stroke-width="1.44" />
      <circle cx="57.9015" cy="132.49" fill="black" gorn="0.4.0.70" id="connector22pin" r="2.088" stroke="black" stroke-width="1.44" />
      <circle cx="57.9015" cy="125.29" fill="black" gorn="0.4.0.71" id="connector23pin" r="2.088" stroke="black" stroke-width="1.44" />
      <circle cx="57.9015" cy="118.09" fill="black" gorn="0.4.0.72" id="connector24pin" r="2.088" stroke="black" stroke-width="1.44" />
      <circle cx="57.9015" cy="110.89" fill="black" gorn="0.4.0.73" id="connector25pin" r="2.088" stroke="black" stroke-width="1.44" />
      <circle cx="57.9015" cy="103.69" fill="black" gorn="0.4.0.74" id="connector26pin" r="2.088" stroke="black" stroke-width="1.44" />
      <circle cx="57.9015" cy="96.4903" fill="black" gorn="0.4.0.75" id="connector27pin" r="2.088" stroke="black" stroke-width="1.44" />
      <circle cx="57.9015" cy="89.2903" fill="black" gorn="0.4.0.76" id="connector28pin" r="2.088" stroke="black" stroke-width="1.44" />
      <circle cx="57.9015" cy="82.0903" fill="black" gorn="0.4.0.77" id="connector29pin" r="2.088" stroke="black" stroke-width="1.44" />
      <circle cx="57.9015" cy="74.8903" fill="black" gorn="0.4.0.78" id="connector30pin" r="2.088" stroke="black" stroke-width="1.44" />
      <circle cx="57.9015" cy="67.6903" fill="black" gorn="0.4.0.79" id="connector31pin" r="2.088" stroke="black" stroke-width="1.44" />
      <circle cx="57.9015" cy="60.4903" fill="black" gorn="0.4.0.80" id="connector32pin" r="2.088" stroke="black" stroke-width="1.44" />
      <circle cx="57.9015" cy="53.2903" fill="black" gorn="0.4.0.81" id="connector33pin" r="2.088" stroke="black" stroke-width="1.44" />
      <circle cx="57.9015" cy="46.0903" fill="black" gorn="0.4.0.82" id="connector34pin" r="2.088" stroke="black" stroke-width="1.44" />
      <circle cx="57.9015" cy="38.8903" fill="black" gorn="0.4.0.83" id="connector35pin" r="2.088" stroke="black" stroke-width="1.44" />
      <circle cx="57.9015" cy="31.6903" fill="black" gorn="0.4.0.84" id="connector36pin" r="2.088" stroke="black" stroke-width="1.44" />
      <circle cx="57.9015" cy="24.4903" fill="black" gorn="0.4.0.85" id="connector37pin" r="2.088" stroke="black" stroke-width="1.44" />
      <circle cx="57.9015" cy="17.2903" fill="black" gorn="0.4.0.86" id="connector38pin" r="2.088" stroke="black" stroke-width="1.44" />
      <circle cx="57.9015" cy="10.0903" fill="black" gorn="0.4.0.87" id="connector39pin" r="2.088" stroke="black" stroke-width="1.44" />
      <circle cx="25.5015" cy="146.89" fill="black" gorn="0.4.0.88" id="connector40pin" r="2.088" stroke="black" stroke-width="1.44" />
      <circle cx="32.7015" cy="146.89" fill="black" gorn="0.4.0.89" id="connector41pin" r="2.088" stroke="black" stroke-width="1.44" />
      <circle cx="39.9015" cy="146.89" fill="black" gorn="0.4.0.90" id="connector42pin" r="2.088" stroke="black" stroke-width="1.44" />
     </g>
    </g>
   </g>
  </g>
  <g partID="854101250">
   <g transform="translate(52.5914,119.715)">
    <g transform="matrix(-1,0,0,-1,0,0)">
     <g id="copper0" >
      <circle connectorname="VCC" cx="4.05233" cy="4.54396" fill="black" gorn="0.1.0.5" id="connector0pin" r="2.088" stroke="black" stroke-width="1.44" />
      <circle connectorname="GND" cx="11.2526" cy="4.54396" fill="black" gorn="0.1.0.6" id="connector1pin" r="2.088" stroke="black" stroke-width="1.44" />
      <circle connectorname="SCL" cx="18.4529" cy="4.54396" fill="black" gorn="0.1.0.7" id="connector2pin" r="2.088" stroke="black" stroke-width="1.44" />
      <circle connectorname="SDA" cx="25.6532" cy="4.54396" fill="black" gorn="0.1.0.8" id="connector3pin" r="2.088" stroke="black" stroke-width="1.44" />
      <circle connectorname="CSB" cx="32.8535" cy="4.54396" fill="black" gorn="0.1.0.9" id="connector4pin" r="2.088" stroke="black" stroke-width="1.44" />
      <circle connectorname="SDO" cx="40.0538" cy="4.54396" fill="black" gorn="0.1.0.10" id="connector5pin" r="2.088" stroke="black" stroke-width="1.44" />
     </g>
    </g>
   </g>
  </g>
  <g partID="854101340">
   <g transform="translate(83.1428,212.664)">
    <g transform="matrix(-1,0,0,-1,0,0)">
     <g id="copper0" >
      <circle connectorname="SA0" cx="56.2057" cy="39.8927" fill="none" gorn="0.3.0.1" id="connector7pin" r="2.088" stroke="black" stroke-width="1.44" />
      <circle connectorname="SDA" cx="49.0054" cy="39.8927" fill="none" gorn="0.3.0.2" id="connector6pin" r="2.088" stroke="black" stroke-width="1.44" />
      <circle connectorname="SCL" cx="41.8051" cy="39.8927" fill="none" gorn="0.3.0.3" id="connector5pin" r="2.088" stroke="black" stroke-width="1.44" />
      <circle connectorname="INT1" cx="34.6001" cy="39.8962" fill="none" gorn="0.3.0.4" id="connector4pin" r="2.088" stroke="black" stroke-width="1.44" />
      <circle connectorname="INT2" cx="27.4044" cy="39.8927" fill="none" gorn="0.3.0.5" id="connector3pin" r="2.088" stroke="black" stroke-width="1.44" />
      <circle connectorname="+3V3" cx="20.2041" cy="39.8927" fill="none" gorn="0.3.0.6" id="connector2pin" r="2.088" stroke="black" stroke-width="1.44" />
      <circle connectorname="GND" cx="13.0038" cy="39.8927" fill="none" gorn="0.3.0.7" id="connector1pin" r="2.088" stroke="black" stroke-width="1.44" />
      <circle connectorname="VIN" cx="5.8035" cy="39.8927" fill="none" gorn="0.3.0.9" id="connector0pin" r="2.088" stroke="black" stroke-width="1.44" />
      <circle connectorname="SA0" cx="70.6004" cy="39.8927" fill="none" gorn="0.3.0.1" id="connector9pin" r="2.088" stroke="black" stroke-width="1.44" />
      <circle connectorname="SDA" cx="63.4001" cy="39.8927" fill="none" gorn="0.3.0.2" id="connector8pin" r="2.088" stroke="black" stroke-width="1.44" />
     </g>
    </g>
   </g>
  </g>
  <g partID="854103320">
   <g transform="translate(163.583,92.5997)">
    <g transform="matrix(0,1,-1,0,0,0)">
     <g gorn="0.5.0" id="copper0" >
      <circle connectorname="1" cx="3.41008" cy="20.004" fill="none" gorn="0.5.0.0" id="connector0pin" r="1.512" stroke="black" stroke-dasharray="none" stroke-width="0.72" style="stroke-miterlimit:4;" />
      <circle connectorname="2" cx="3.41008" cy="25.764" fill="none" gorn="0.5.0.1" id="connector1pin" r="1.512" stroke="black" stroke-dasharray="none" stroke-width="0.72" style="stroke-miterlimit:4;" />
      <circle connectorname="3" cx="3.41008" cy="31.524" fill="none" gorn="0.5.0.2" id="connector2pin" r="1.512" stroke="black" stroke-dasharray="none" stroke-width="0.72" style="stroke-miterlimit:4;" />
      <circle connectorname="4" cx="3.41008" cy="37.284" fill="none" gorn="0.5.0.3" id="connector3pin" r="1.512" stroke="black" stroke-dasharray="none" stroke-width="0.72" style="stroke-miterlimit:4;" />
      <circle connectorname="5" cx="3.41008" cy="43.044" fill="none" gorn="0.5.0.4" id="connector4pin" r="1.512" stroke="black" stroke-dasharray="none" stroke-width="0.72" style="stroke-miterlimit:4;" />
      <circle connectorname="6" cx="3.41008" cy="48.804" fill="none" gorn="0.5.0.5" id="connector5pin" r="1.512" stroke="black" stroke-dasharray="none" stroke-width="0.72" style="stroke-miterlimit:4;" />
      <circle connectorname="7" cx="3.41008" cy="54.564" fill="none" gorn="0.5.0.6" id="connector6pin" r="1.512" stroke="black" stroke-dasharray="none" stroke-width="0.72" style="stroke-miterlimit:4;" />
      <circle connectorname="8" cx="3.41008" cy="60.324" fill="none" gorn="0.5.0.7" id="connector7pin" r="1.512" stroke="black" stroke-dasharray="none" stroke-width="0.72" style="stroke-miterlimit:4;" />
      <circle connectorname="9" cx="3.41008" cy="66.084" fill="none" gorn="0.5.0.8" id="connector8pin" r="1.512" stroke="black" stroke-dasharray="none" stroke-width="0.72" style="stroke-miterlimit:4;" />
      <circle connectorname="10" cx="3.41008" cy="71.844" fill="none" gorn="0.5.0.9" id="connector9pin" r="1.512" stroke="black" stroke-dasharray="none" stroke-width="0.72" style="stroke-miterlimit:4;" />
      <circle connectorname="11" cx="65.7717" cy="71.844" fill="none" gorn="0.5.0.10" id="connector10pin" r="1.512" stroke="black" stroke-dasharray="none" stroke-width="0.72" style="stroke-miterlimit:4;" />
      <circle connectorname="12" cx="65.7717" cy="66.084" fill="none" gorn="0.5.0.11" id="connector11pin" r="1.512" stroke="black" stroke-dasharray="none" stroke-width="0.72" style="stroke-miterlimit:4;" />
      <circle connectorname="13" cx="65.7717" cy="60.324" fill="none" gorn="0.5.0.12" id="connector12pin" r="1.512" stroke="black" stroke-dasharray="none" stroke-width="0.72" style="stroke-miterlimit:4;" />
      <circle connectorname="14" cx="65.7717" cy="54.564" fill="none" gorn="0.5.0.13" id="connector13pin" r="1.512" stroke="black" stroke-dasharray="none" stroke-width="0.72" style="stroke-miterlimit:4;" />
      <circle connectorname="15" cx="65.7717" cy="48.804" fill="none" gorn="0.5.0.14" id="connector14pin" r="1.512" stroke="black" stroke-dasharray="none" stroke-width="0.72" style="stroke-miterlimit:4;" />
      <circle connectorname="16" cx="65.7717" cy="43.044" fill="none" gorn="0.5.0.15" id="connector15pin" r="1.512" stroke="black" stroke-dasharray="none" stroke-width="0.72" style="stroke-miterlimit:4;" />
      <circle connectorname="17" cx="65.7717" cy="37.284" fill="none" gorn="0.5.0.16" id="connector16pin" r="1.512" stroke="black" stroke-dasharray="none" stroke-width="0.72" style="stroke-miterlimit:4;" />
      <circle connectorname="18" cx="65.7717" cy="31.524" fill="none" gorn="0.5.0.17" id="connector17pin" r="1.512" stroke="black" stroke-dasharray="none" stroke-width="0.72" style="stroke-miterlimit:4;" />
      <circle connectorname="19" cx="65.7717" cy="25.764" fill="none" gorn="0.5.0.18" id="connector18pin" r="1.512" stroke="black" stroke-dasharray="none" stroke-width="0.72" style="stroke-miterlimit:4;" />
      <circle connectorname="20" cx="65.7717" cy="20.004" fill="none" gorn="0.5.0.19" id="connector19pin" r="1.512" stroke="black" stroke-dasharray="none" stroke-width="0.72" style="stroke-miterlimit:4;" />
     </g>
    </g>
   </g>
  </g>
  <g partID="854103500">
   <g transform="translate(23.5642,124.749)">
    <g id="copper0" >
     <g id="copper1" >
      <circle cx="3.375" cy="4.822" fill="none" id="connector10pad" r="1.78" stroke="black" stroke-miterlimit="10" stroke-width="1.2" />
      <circle cx="10.574" cy="4.822" fill="none" id="connector9pad" r="1.78" stroke="black" stroke-miterlimit="10" stroke-width="1.2" />
      <circle cx="24.977" cy="4.822" fill="none" id="connector5pad" r="1.78" stroke="black" stroke-miterlimit="10" stroke-width="1.2" />
      <circle cx="17.775" cy="4.822" fill="none" id="connector6pad" r="1.78" stroke="black" stroke-miterlimit="10" stroke-width="1.2" />
     </g>
    </g>
   </g>
  </g>
  <g partID="855189850">
   <line stroke="black" stroke-linecap="round" stroke-width="1.728" x1="34.1109" x2="34.1365" y1="86.2933" y2="73.3394"/>
  </g>
  <g partID="855189860">
   <line stroke="black" stroke-linecap="round" stroke-width="1.728" x1="34.1372" x2="34.1109" y1="113.803" y2="86.2933"/>
  </g>
  <g partID="855155830">
   <line stroke="black" stroke-linecap="round" stroke-width="1.728" x1="48.5394" x2="48.5411" y1="116.539" y2="128.391"/>
  </g>
  <g partID="855155490">
   <line stroke="black" stroke-linecap="round" stroke-width="1.728" x1="54.9795" x2="27.5938" y1="171.633" y2="130.553"/>
  </g>
  <g partID="855155690">
   <line stroke="black" stroke-linecap="round" stroke-width="1.728" x1="49.1957" x2="76.5804" y1="130.553" y2="171.633"/>
  </g>
  <g partID="855155790">
   <line stroke="black" stroke-linecap="round" stroke-width="1.728" x1="41.3389" x2="41.3392" y1="116.539" y2="128.391"/>
  </g>
  <g partID="855155610">
   <line stroke="black" stroke-linecap="round" stroke-width="1.728" x1="41.9937" x2="69.3801" y1="130.553" y2="171.633"/>
  </g>
  <g partID="855156930">
   <line stroke="black" stroke-linecap="round" stroke-width="1.728" x1="138.023" x2="141.897" y1="94.8759" y2="73.3177"/>
  </g>
  <g partID="855157010">
   <line stroke="black" stroke-linecap="round" stroke-width="1.728" x1="106.132" x2="113.328" y1="86.3639" y2="79.1677"/>
  </g>
  <g partID="855156830">
   <line stroke="black" stroke-linecap="round" stroke-width="1.728" x1="113.328" x2="113.337" y1="79.1677" y2="73.3394"/>
  </g>
  <g partID="855156950">
   <line stroke="black" stroke-linecap="round" stroke-width="1.728" x1="98.9354" x2="106.132" y1="86.3639" y2="86.3639"/>
  </g>
  <g partID="855156980">
   <line stroke="black" stroke-linecap="round" stroke-width="1.728" x1="91.7392" x2="98.9354" y1="93.5602" y2="86.3639"/>
  </g>
  <g partID="855156840">
   <line stroke="black" stroke-linecap="round" stroke-width="1.728" x1="91.7393" x2="91.7392" y1="94.8578" y2="93.5602"/>
  </g>
  <g partID="855157360">
   <line stroke="black" stroke-linecap="round" stroke-width="1.728" x1="134.965" x2="113.284" y1="107.926" y2="115.062"/>
  </g>
  <g partID="855156780">
   <line stroke="black" stroke-linecap="round" stroke-width="1.728" x1="142.904" x2="134.965" y1="96.9434" y2="107.926"/>
  </g>
  <g partID="855156770">
   <line stroke="black" stroke-linecap="round" stroke-width="1.728" x1="113.284" x2="49.9072" y1="115.062" y2="115.169"/>
  </g>
  <g partID="855154530">
   <line stroke="black" stroke-linecap="round" stroke-width="1.728" x1="42.3031" x2="48.5321" y1="173.741" y2="179.995"/>
  </g>
  <g partID="855154520">
   <line stroke="black" stroke-linecap="round" stroke-width="1.728" x1="48.532" x2="55.7481" y1="179.995" y2="179.995"/>
  </g>
  <g partID="855154580">
   <line stroke="black" stroke-linecap="round" stroke-width="1.728" x1="55.7481" x2="61.9736" y1="179.995" y2="173.741"/>
  </g>
  <g partID="855155770">
   <line stroke="black" stroke-linecap="round" stroke-width="1.728" x1="34.1385" x2="34.1382" y1="116.539" y2="128.391"/>
  </g>
  <g partID="855148910">
   <line stroke="black" stroke-linecap="round" stroke-width="1.728" x1="41.3389" x2="41.3392" y1="113.803" y2="73.3394"/>
  </g>
  <g partID="855154630">
   <line stroke="black" stroke-linecap="round" stroke-width="1.728" x1="54.3704" x2="49.9107" y1="172.77" y2="172.768"/>
  </g>
  <g partID="855155750">
   <line stroke="black" stroke-linecap="round" stroke-width="1.728" x1="26.9392" x2="26.9383" y1="128.391" y2="116.539"/>
  </g>
  <g partID="855157270">
   <line stroke="black" stroke-linecap="round" stroke-width="1.728" x1="77.197" x2="49.2963" y1="158.296" y2="116.311"/>
  </g>
  <g partID="855157040">
   <line stroke="black" stroke-linecap="round" stroke-width="1.728" x1="84.6228" x2="77.1971" y1="165.722" y2="158.296"/>
  </g>
  <g partID="855157070">
   <line stroke="black" stroke-linecap="round" stroke-width="1.728" x1="178.076" x2="84.6232" y1="165.567" y2="165.721"/>
  </g>
  <g partID="855157220">
   <line stroke="black" stroke-linecap="round" stroke-width="1.728" x1="185.335" x2="178.076" y1="158.308" y2="165.568"/>
  </g>
  <g partID="855157100">
   <line stroke="black" stroke-linecap="round" stroke-width="1.728" x1="185.424" x2="185.336" y1="14.3998" y2="158.308"/>
  </g>
  <g partID="855157190">
   <line stroke="black" stroke-linecap="round" stroke-width="1.728" x1="178.097" x2="185.424" y1="7.24696" y2="14.3998"/>
  </g>
  <g partID="855157160">
   <line stroke="black" stroke-linecap="round" stroke-width="1.728" x1="62.9534" x2="178.097" y1="7.24696" y2="7.24696"/>
  </g>
  <g partID="855157130">
   <line stroke="black" stroke-linecap="round" stroke-width="1.728" x1="55.8006" x2="62.9534" y1="14.3998" y2="7.24696"/>
  </g>
  <g partID="855154670">
   <line stroke="black" stroke-linecap="round" stroke-width="1.728" x1="55.7509" x2="55.8006" y1="20.235" y2="14.3999"/>
  </g>
  <g partID="855156910">
   <line stroke="black" stroke-linecap="round" stroke-width="1.728" x1="132.196" x2="134.777" y1="94.8659" y2="73.3295"/>
  </g>
  <g partID="855157340">
   <line stroke="black" stroke-linecap="round" stroke-width="1.728" x1="34.7928" x2="62.1798" y1="130.553" y2="171.633"/>
  </g>
  <g partID="855195110">
   <line stroke="black" stroke-linecap="round" stroke-width="1.728" x1="26.9359" x2="26.9381" y1="73.3392" y2="113.803"/>
  </g>
 </g>
</svg>
